M48
; DRILL file {KiCad (5.1.10)-1} date 09/06/21 20:35:08
; FORMAT={-:-/ absolute / metric / decimal}
; #@! TF.CreationDate,2021-09-06T20:35:08+10:00
; #@! TF.GenerationSoftware,Kicad,Pcbnew,(5.1.10)-1
; #@! TF.FileFunction,NonPlated,1,2,NPTH
FMAT,2
METRIC
T1C3.200
T2C6.350
%
G90
G05
T1
X106.68Y-68.58
X106.68Y-157.48
X116.84Y-87.63
X116.84Y-107.95
X116.84Y-120.65
X116.84Y-140.97
X139.7Y-87.63
X139.7Y-107.95
X139.7Y-120.65
X139.7Y-140.97
X162.56Y-87.63
X162.56Y-107.95
X162.56Y-120.65
X162.56Y-140.97
X185.42Y-87.63
X185.42Y-107.95
X185.42Y-120.65
X185.42Y-140.97
X195.58Y-68.58
X195.58Y-157.48
T2
X116.84Y-97.79
X116.84Y-130.81
X139.7Y-97.79
X139.7Y-130.81
X162.56Y-97.79
X162.56Y-130.81
X185.42Y-97.79
X185.42Y-130.81
T0
M30
