%TF.GenerationSoftware,KiCad,Pcbnew,(5.1.10)-1*%
%TF.CreationDate,2021-09-06T20:35:07+10:00*%
%TF.ProjectId,pannel,70616e6e-656c-42e6-9b69-6361645f7063,rev?*%
%TF.SameCoordinates,Original*%
%TF.FileFunction,Legend,Top*%
%TF.FilePolarity,Positive*%
%FSLAX46Y46*%
G04 Gerber Fmt 4.6, Leading zero omitted, Abs format (unit mm)*
G04 Created by KiCad (PCBNEW (5.1.10)-1) date 2021-09-06 20:35:07*
%MOMM*%
%LPD*%
G01*
G04 APERTURE LIST*
%ADD10C,0.150000*%
%ADD11C,0.120000*%
G04 APERTURE END LIST*
D10*
X118745000Y-107950000D02*
G75*
G03*
X118745000Y-107950000I-1905000J0D01*
G01*
X118745000Y-87630000D02*
G75*
G03*
X118745000Y-87630000I-1905000J0D01*
G01*
X141605000Y-87630000D02*
G75*
G03*
X141605000Y-87630000I-1905000J0D01*
G01*
X141605000Y-107950000D02*
G75*
G03*
X141605000Y-107950000I-1905000J0D01*
G01*
X164465000Y-107950000D02*
G75*
G03*
X164465000Y-107950000I-1905000J0D01*
G01*
X164465000Y-87630000D02*
G75*
G03*
X164465000Y-87630000I-1905000J0D01*
G01*
X187325000Y-87630000D02*
G75*
G03*
X187325000Y-87630000I-1905000J0D01*
G01*
X187325000Y-107950000D02*
G75*
G03*
X187325000Y-107950000I-1905000J0D01*
G01*
X187325000Y-140970000D02*
G75*
G03*
X187325000Y-140970000I-1905000J0D01*
G01*
X187325000Y-120650000D02*
G75*
G03*
X187325000Y-120650000I-1905000J0D01*
G01*
X164465000Y-120650000D02*
G75*
G03*
X164465000Y-120650000I-1905000J0D01*
G01*
X164465000Y-140970000D02*
G75*
G03*
X164465000Y-140970000I-1905000J0D01*
G01*
X141605000Y-140970000D02*
G75*
G03*
X141605000Y-140970000I-1905000J0D01*
G01*
X141605000Y-120650000D02*
G75*
G03*
X141605000Y-120650000I-1905000J0D01*
G01*
X118745000Y-140970000D02*
G75*
G03*
X118745000Y-140970000I-1905000J0D01*
G01*
X118745000Y-120650000D02*
G75*
G03*
X118745000Y-120650000I-1905000J0D01*
G01*
X148590000Y-83820000D02*
X148590000Y-111760000D01*
X148590000Y-111760000D02*
X130810000Y-111760000D01*
X130810000Y-83820000D02*
X148590000Y-83820000D01*
X130810000Y-111760000D02*
X130810000Y-83820000D01*
X125730000Y-111760000D02*
X107950000Y-111760000D01*
X125730000Y-83820000D02*
X125730000Y-111760000D01*
X107950000Y-83820000D02*
X125730000Y-83820000D01*
X107950000Y-111760000D02*
X107950000Y-83820000D01*
X176530000Y-111760000D02*
X176530000Y-83820000D01*
X194310000Y-111760000D02*
X176530000Y-111760000D01*
X176530000Y-83820000D02*
X194310000Y-83820000D01*
X194310000Y-83820000D02*
X194310000Y-111760000D01*
X171450000Y-111760000D02*
X153670000Y-111760000D01*
X153670000Y-111760000D02*
X153670000Y-83820000D01*
X153670000Y-83820000D02*
X171450000Y-83820000D01*
X171450000Y-83820000D02*
X171450000Y-111760000D01*
X194310000Y-116840000D02*
X194310000Y-144780000D01*
X194310000Y-144780000D02*
X176530000Y-144780000D01*
X176530000Y-116840000D02*
X194310000Y-116840000D01*
X176530000Y-144780000D02*
X176530000Y-116840000D01*
X171450000Y-116840000D02*
X171450000Y-144780000D01*
X171450000Y-144780000D02*
X153670000Y-144780000D01*
X153670000Y-116840000D02*
X171450000Y-116840000D01*
X153670000Y-144780000D02*
X153670000Y-116840000D01*
X148590000Y-144780000D02*
X130810000Y-144780000D01*
X148590000Y-116840000D02*
X148590000Y-144780000D01*
X130810000Y-116840000D02*
X148590000Y-116840000D01*
X130810000Y-144780000D02*
X130810000Y-116840000D01*
X125730000Y-144780000D02*
X107950000Y-144780000D01*
X125730000Y-116840000D02*
X125730000Y-144780000D01*
X107950000Y-144780000D02*
X107950000Y-116840000D01*
X107950000Y-116840000D02*
X125730000Y-116840000D01*
D11*
%TO.C,REF\u002A\u002A*%
X189230000Y-130810000D02*
G75*
G03*
X189230000Y-130810000I-3810000J0D01*
G01*
X166370000Y-130810000D02*
G75*
G03*
X166370000Y-130810000I-3810000J0D01*
G01*
X143510000Y-130810000D02*
G75*
G03*
X143510000Y-130810000I-3810000J0D01*
G01*
X189230000Y-97790000D02*
G75*
G03*
X189230000Y-97790000I-3810000J0D01*
G01*
X166370000Y-97790000D02*
G75*
G03*
X166370000Y-97790000I-3810000J0D01*
G01*
X143510000Y-97790000D02*
G75*
G03*
X143510000Y-97790000I-3810000J0D01*
G01*
X120650000Y-97790000D02*
G75*
G03*
X120650000Y-97790000I-3810000J0D01*
G01*
X120650000Y-130810000D02*
G75*
G03*
X120650000Y-130810000I-3810000J0D01*
G01*
%TD*%
M02*
