M48
; DRILL file {KiCad (5.1.10)-1} date 11/06/21 18:59:33
; FORMAT={-:-/ absolute / metric / decimal}
; #@! TF.CreationDate,2021-11-06T18:59:33+11:00
; #@! TF.GenerationSoftware,Kicad,Pcbnew,(5.1.10)-1
; #@! TF.FileFunction,NonPlated,1,2,NPTH
FMAT,2
METRIC
T1C3.200
%
G90
G05
T1
X76.2Y-61.645
X76.2Y-130.225
X83.185Y-69.265
X83.185Y-89.585
X83.185Y-102.285
X83.185Y-122.605
X106.045Y-69.265
X106.045Y-89.585
X106.045Y-102.285
X106.045Y-122.605
X128.905Y-69.265
X128.905Y-89.585
X128.905Y-102.285
X128.905Y-122.605
X151.765Y-69.265
X151.765Y-89.585
X151.765Y-102.285
X151.765Y-122.605
X158.75Y-61.63
X158.75Y-130.225
T0
M30
