%TF.GenerationSoftware,KiCad,Pcbnew,(5.1.10)-1*%
%TF.CreationDate,2021-11-06T18:09:33+11:00*%
%TF.ProjectId,pannel_subboard,70616e6e-656c-45f7-9375-62626f617264,rev?*%
%TF.SameCoordinates,Original*%
%TF.FileFunction,Legend,Top*%
%TF.FilePolarity,Positive*%
%FSLAX46Y46*%
G04 Gerber Fmt 4.6, Leading zero omitted, Abs format (unit mm)*
G04 Created by KiCad (PCBNEW (5.1.10)-1) date 2021-11-06 18:09:33*
%MOMM*%
%LPD*%
G01*
G04 APERTURE LIST*
%ADD10C,0.150000*%
%ADD11C,0.120000*%
G04 APERTURE END LIST*
D10*
X120015000Y-98475000D02*
X137795000Y-98475000D01*
X137795000Y-98475000D02*
X137795000Y-126415000D01*
X120015000Y-126415000D02*
X120015000Y-98475000D01*
X130810000Y-122605000D02*
G75*
G03*
X130810000Y-122605000I-1905000J0D01*
G01*
X130810000Y-102285000D02*
G75*
G03*
X130810000Y-102285000I-1905000J0D01*
G01*
X137795000Y-126415000D02*
X120015000Y-126415000D01*
X97155000Y-98475000D02*
X114935000Y-98475000D01*
X114935000Y-98475000D02*
X114935000Y-126415000D01*
X97155000Y-126415000D02*
X97155000Y-98475000D01*
X107950000Y-122605000D02*
G75*
G03*
X107950000Y-122605000I-1905000J0D01*
G01*
X107950000Y-102285000D02*
G75*
G03*
X107950000Y-102285000I-1905000J0D01*
G01*
X114935000Y-126415000D02*
X97155000Y-126415000D01*
X120015000Y-65455000D02*
X137795000Y-65455000D01*
X137795000Y-65455000D02*
X137795000Y-93395000D01*
X120015000Y-93395000D02*
X120015000Y-65455000D01*
X130810000Y-89585000D02*
G75*
G03*
X130810000Y-89585000I-1905000J0D01*
G01*
X130810000Y-69265000D02*
G75*
G03*
X130810000Y-69265000I-1905000J0D01*
G01*
X137795000Y-93395000D02*
X120015000Y-93395000D01*
X97155000Y-65455000D02*
X114935000Y-65455000D01*
X114935000Y-65455000D02*
X114935000Y-93395000D01*
X97155000Y-93395000D02*
X97155000Y-65455000D01*
X107950000Y-89585000D02*
G75*
G03*
X107950000Y-89585000I-1905000J0D01*
G01*
X107950000Y-69265000D02*
G75*
G03*
X107950000Y-69265000I-1905000J0D01*
G01*
X114935000Y-93395000D02*
X97155000Y-93395000D01*
X142875000Y-65455000D02*
X160655000Y-65455000D01*
X160655000Y-65455000D02*
X160655000Y-93395000D01*
X142875000Y-93395000D02*
X142875000Y-65455000D01*
X153670000Y-89585000D02*
G75*
G03*
X153670000Y-89585000I-1905000J0D01*
G01*
X153670000Y-69265000D02*
G75*
G03*
X153670000Y-69265000I-1905000J0D01*
G01*
X160655000Y-93395000D02*
X142875000Y-93395000D01*
X142875000Y-98475000D02*
X160655000Y-98475000D01*
X160655000Y-98475000D02*
X160655000Y-126415000D01*
X142875000Y-126415000D02*
X142875000Y-98475000D01*
X153670000Y-122605000D02*
G75*
G03*
X153670000Y-122605000I-1905000J0D01*
G01*
X153670000Y-102285000D02*
G75*
G03*
X153670000Y-102285000I-1905000J0D01*
G01*
X160655000Y-126415000D02*
X142875000Y-126415000D01*
X74295000Y-98475000D02*
X92075000Y-98475000D01*
X92075000Y-98475000D02*
X92075000Y-126415000D01*
X74295000Y-126415000D02*
X74295000Y-98475000D01*
X85090000Y-122605000D02*
G75*
G03*
X85090000Y-122605000I-1905000J0D01*
G01*
X85090000Y-102285000D02*
G75*
G03*
X85090000Y-102285000I-1905000J0D01*
G01*
X92075000Y-126415000D02*
X74295000Y-126415000D01*
X74295000Y-65455000D02*
X92075000Y-65455000D01*
X92075000Y-65455000D02*
X92075000Y-93395000D01*
X74295000Y-93395000D02*
X74295000Y-65455000D01*
X85090000Y-89585000D02*
G75*
G03*
X85090000Y-89585000I-1905000J0D01*
G01*
X85090000Y-69265000D02*
G75*
G03*
X85090000Y-69265000I-1905000J0D01*
G01*
X92075000Y-93395000D02*
X74295000Y-93395000D01*
D11*
%TO.C,J10*%
X140395000Y-59045000D02*
X140395000Y-60375000D01*
X139065000Y-59045000D02*
X140395000Y-59045000D01*
X140395000Y-61645000D02*
X140395000Y-64245000D01*
X137795000Y-61645000D02*
X140395000Y-61645000D01*
X137795000Y-59045000D02*
X137795000Y-61645000D01*
X140395000Y-64245000D02*
X94555000Y-64245000D01*
X137795000Y-59045000D02*
X94555000Y-59045000D01*
X94555000Y-59045000D02*
X94555000Y-64245000D01*
%TO.C,R1*%
X87630000Y-61870000D02*
X87630000Y-61910000D01*
X88490000Y-61010000D02*
G75*
G03*
X88490000Y-61010000I-860000J0D01*
G01*
%TO.C,J9*%
X156785000Y-106035000D02*
X158115000Y-106035000D01*
X156785000Y-107365000D02*
X156785000Y-106035000D01*
X156785000Y-108635000D02*
X159445000Y-108635000D01*
X159445000Y-108635000D02*
X159445000Y-118855000D01*
X156785000Y-108635000D02*
X156785000Y-118855000D01*
X156785000Y-118855000D02*
X159445000Y-118855000D01*
%TO.C,J8*%
X111065000Y-106035000D02*
X112395000Y-106035000D01*
X111065000Y-107365000D02*
X111065000Y-106035000D01*
X111065000Y-108635000D02*
X113725000Y-108635000D01*
X113725000Y-108635000D02*
X113725000Y-118855000D01*
X111065000Y-108635000D02*
X111065000Y-118855000D01*
X111065000Y-118855000D02*
X113725000Y-118855000D01*
%TO.C,J7*%
X156785000Y-73015000D02*
X158115000Y-73015000D01*
X156785000Y-74345000D02*
X156785000Y-73015000D01*
X156785000Y-75615000D02*
X159445000Y-75615000D01*
X159445000Y-75615000D02*
X159445000Y-85835000D01*
X156785000Y-75615000D02*
X156785000Y-85835000D01*
X156785000Y-85835000D02*
X159445000Y-85835000D01*
%TO.C,J6*%
X111065000Y-73015000D02*
X112395000Y-73015000D01*
X111065000Y-74345000D02*
X111065000Y-73015000D01*
X111065000Y-75615000D02*
X113725000Y-75615000D01*
X113725000Y-75615000D02*
X113725000Y-85835000D01*
X111065000Y-75615000D02*
X111065000Y-85835000D01*
X111065000Y-85835000D02*
X113725000Y-85835000D01*
%TO.C,J5*%
X133925000Y-106035000D02*
X135255000Y-106035000D01*
X133925000Y-107365000D02*
X133925000Y-106035000D01*
X133925000Y-108635000D02*
X136585000Y-108635000D01*
X136585000Y-108635000D02*
X136585000Y-118855000D01*
X133925000Y-108635000D02*
X133925000Y-118855000D01*
X133925000Y-118855000D02*
X136585000Y-118855000D01*
%TO.C,J4*%
X88205000Y-106035000D02*
X89535000Y-106035000D01*
X88205000Y-107365000D02*
X88205000Y-106035000D01*
X88205000Y-108635000D02*
X90865000Y-108635000D01*
X90865000Y-108635000D02*
X90865000Y-118855000D01*
X88205000Y-108635000D02*
X88205000Y-118855000D01*
X88205000Y-118855000D02*
X90865000Y-118855000D01*
%TO.C,J3*%
X133925000Y-73015000D02*
X135255000Y-73015000D01*
X133925000Y-74345000D02*
X133925000Y-73015000D01*
X133925000Y-75615000D02*
X136585000Y-75615000D01*
X136585000Y-75615000D02*
X136585000Y-85835000D01*
X133925000Y-75615000D02*
X133925000Y-85835000D01*
X133925000Y-85835000D02*
X136585000Y-85835000D01*
%TO.C,J2*%
X88205000Y-73015000D02*
X89535000Y-73015000D01*
X88205000Y-74345000D02*
X88205000Y-73015000D01*
X88205000Y-75615000D02*
X90865000Y-75615000D01*
X90865000Y-75615000D02*
X90865000Y-85835000D01*
X88205000Y-75615000D02*
X88205000Y-85835000D01*
X88205000Y-85835000D02*
X90865000Y-85835000D01*
%TO.C,J1*%
X89475000Y-59045000D02*
X90805000Y-59045000D01*
X89475000Y-60375000D02*
X89475000Y-59045000D01*
X89475000Y-61645000D02*
X92135000Y-61645000D01*
X92135000Y-61645000D02*
X92135000Y-64245000D01*
X89475000Y-61645000D02*
X89475000Y-64245000D01*
X89475000Y-64245000D02*
X92135000Y-64245000D01*
%TO.C,D1*%
X84900000Y-63205000D02*
X85056000Y-63205000D01*
X82584000Y-63205000D02*
X82740000Y-63205000D01*
X82741392Y-59972665D02*
G75*
G03*
X82584484Y-63205000I1078608J-1672335D01*
G01*
X84898608Y-59972665D02*
G75*
G02*
X85055516Y-63205000I-1078608J-1672335D01*
G01*
X82740163Y-60603870D02*
G75*
G03*
X82740000Y-62685961I1079837J-1041130D01*
G01*
X84899837Y-60603870D02*
G75*
G02*
X84900000Y-62685961I-1079837J-1041130D01*
G01*
%TO.C,J10*%
D10*
X140847380Y-62454523D02*
X141561666Y-62454523D01*
X141704523Y-62502142D01*
X141799761Y-62597380D01*
X141847380Y-62740238D01*
X141847380Y-62835476D01*
X141847380Y-61454523D02*
X141847380Y-62025952D01*
X141847380Y-61740238D02*
X140847380Y-61740238D01*
X140990238Y-61835476D01*
X141085476Y-61930714D01*
X141133095Y-62025952D01*
X140847380Y-60835476D02*
X140847380Y-60740238D01*
X140895000Y-60645000D01*
X140942619Y-60597380D01*
X141037857Y-60549761D01*
X141228333Y-60502142D01*
X141466428Y-60502142D01*
X141656904Y-60549761D01*
X141752142Y-60597380D01*
X141799761Y-60645000D01*
X141847380Y-60740238D01*
X141847380Y-60835476D01*
X141799761Y-60930714D01*
X141752142Y-60978333D01*
X141656904Y-61025952D01*
X141466428Y-61073571D01*
X141228333Y-61073571D01*
X141037857Y-61025952D01*
X140942619Y-60978333D01*
X140895000Y-60930714D01*
X140847380Y-60835476D01*
%TO.C,R1*%
X89942380Y-62126666D02*
X89466190Y-62460000D01*
X89942380Y-62698095D02*
X88942380Y-62698095D01*
X88942380Y-62317142D01*
X88990000Y-62221904D01*
X89037619Y-62174285D01*
X89132857Y-62126666D01*
X89275714Y-62126666D01*
X89370952Y-62174285D01*
X89418571Y-62221904D01*
X89466190Y-62317142D01*
X89466190Y-62698095D01*
X89942380Y-61174285D02*
X89942380Y-61745714D01*
X89942380Y-61460000D02*
X88942380Y-61460000D01*
X89085238Y-61555238D01*
X89180476Y-61650476D01*
X89228095Y-61745714D01*
%TO.C,J9*%
X157781666Y-104487380D02*
X157781666Y-105201666D01*
X157734047Y-105344523D01*
X157638809Y-105439761D01*
X157495952Y-105487380D01*
X157400714Y-105487380D01*
X158305476Y-105487380D02*
X158495952Y-105487380D01*
X158591190Y-105439761D01*
X158638809Y-105392142D01*
X158734047Y-105249285D01*
X158781666Y-105058809D01*
X158781666Y-104677857D01*
X158734047Y-104582619D01*
X158686428Y-104535000D01*
X158591190Y-104487380D01*
X158400714Y-104487380D01*
X158305476Y-104535000D01*
X158257857Y-104582619D01*
X158210238Y-104677857D01*
X158210238Y-104915952D01*
X158257857Y-105011190D01*
X158305476Y-105058809D01*
X158400714Y-105106428D01*
X158591190Y-105106428D01*
X158686428Y-105058809D01*
X158734047Y-105011190D01*
X158781666Y-104915952D01*
%TO.C,J8*%
X112061666Y-104487380D02*
X112061666Y-105201666D01*
X112014047Y-105344523D01*
X111918809Y-105439761D01*
X111775952Y-105487380D01*
X111680714Y-105487380D01*
X112680714Y-104915952D02*
X112585476Y-104868333D01*
X112537857Y-104820714D01*
X112490238Y-104725476D01*
X112490238Y-104677857D01*
X112537857Y-104582619D01*
X112585476Y-104535000D01*
X112680714Y-104487380D01*
X112871190Y-104487380D01*
X112966428Y-104535000D01*
X113014047Y-104582619D01*
X113061666Y-104677857D01*
X113061666Y-104725476D01*
X113014047Y-104820714D01*
X112966428Y-104868333D01*
X112871190Y-104915952D01*
X112680714Y-104915952D01*
X112585476Y-104963571D01*
X112537857Y-105011190D01*
X112490238Y-105106428D01*
X112490238Y-105296904D01*
X112537857Y-105392142D01*
X112585476Y-105439761D01*
X112680714Y-105487380D01*
X112871190Y-105487380D01*
X112966428Y-105439761D01*
X113014047Y-105392142D01*
X113061666Y-105296904D01*
X113061666Y-105106428D01*
X113014047Y-105011190D01*
X112966428Y-104963571D01*
X112871190Y-104915952D01*
%TO.C,J7*%
X157781666Y-71467380D02*
X157781666Y-72181666D01*
X157734047Y-72324523D01*
X157638809Y-72419761D01*
X157495952Y-72467380D01*
X157400714Y-72467380D01*
X158162619Y-71467380D02*
X158829285Y-71467380D01*
X158400714Y-72467380D01*
%TO.C,J6*%
X112061666Y-71467380D02*
X112061666Y-72181666D01*
X112014047Y-72324523D01*
X111918809Y-72419761D01*
X111775952Y-72467380D01*
X111680714Y-72467380D01*
X112966428Y-71467380D02*
X112775952Y-71467380D01*
X112680714Y-71515000D01*
X112633095Y-71562619D01*
X112537857Y-71705476D01*
X112490238Y-71895952D01*
X112490238Y-72276904D01*
X112537857Y-72372142D01*
X112585476Y-72419761D01*
X112680714Y-72467380D01*
X112871190Y-72467380D01*
X112966428Y-72419761D01*
X113014047Y-72372142D01*
X113061666Y-72276904D01*
X113061666Y-72038809D01*
X113014047Y-71943571D01*
X112966428Y-71895952D01*
X112871190Y-71848333D01*
X112680714Y-71848333D01*
X112585476Y-71895952D01*
X112537857Y-71943571D01*
X112490238Y-72038809D01*
%TO.C,J5*%
X134921666Y-104487380D02*
X134921666Y-105201666D01*
X134874047Y-105344523D01*
X134778809Y-105439761D01*
X134635952Y-105487380D01*
X134540714Y-105487380D01*
X135874047Y-104487380D02*
X135397857Y-104487380D01*
X135350238Y-104963571D01*
X135397857Y-104915952D01*
X135493095Y-104868333D01*
X135731190Y-104868333D01*
X135826428Y-104915952D01*
X135874047Y-104963571D01*
X135921666Y-105058809D01*
X135921666Y-105296904D01*
X135874047Y-105392142D01*
X135826428Y-105439761D01*
X135731190Y-105487380D01*
X135493095Y-105487380D01*
X135397857Y-105439761D01*
X135350238Y-105392142D01*
%TO.C,J4*%
X89201666Y-104487380D02*
X89201666Y-105201666D01*
X89154047Y-105344523D01*
X89058809Y-105439761D01*
X88915952Y-105487380D01*
X88820714Y-105487380D01*
X90106428Y-104820714D02*
X90106428Y-105487380D01*
X89868333Y-104439761D02*
X89630238Y-105154047D01*
X90249285Y-105154047D01*
%TO.C,J3*%
X134921666Y-71467380D02*
X134921666Y-72181666D01*
X134874047Y-72324523D01*
X134778809Y-72419761D01*
X134635952Y-72467380D01*
X134540714Y-72467380D01*
X135302619Y-71467380D02*
X135921666Y-71467380D01*
X135588333Y-71848333D01*
X135731190Y-71848333D01*
X135826428Y-71895952D01*
X135874047Y-71943571D01*
X135921666Y-72038809D01*
X135921666Y-72276904D01*
X135874047Y-72372142D01*
X135826428Y-72419761D01*
X135731190Y-72467380D01*
X135445476Y-72467380D01*
X135350238Y-72419761D01*
X135302619Y-72372142D01*
%TO.C,J2*%
X89201666Y-71467380D02*
X89201666Y-72181666D01*
X89154047Y-72324523D01*
X89058809Y-72419761D01*
X88915952Y-72467380D01*
X88820714Y-72467380D01*
X89630238Y-71562619D02*
X89677857Y-71515000D01*
X89773095Y-71467380D01*
X90011190Y-71467380D01*
X90106428Y-71515000D01*
X90154047Y-71562619D01*
X90201666Y-71657857D01*
X90201666Y-71753095D01*
X90154047Y-71895952D01*
X89582619Y-72467380D01*
X90201666Y-72467380D01*
%TO.C,J1*%
X90471666Y-57497380D02*
X90471666Y-58211666D01*
X90424047Y-58354523D01*
X90328809Y-58449761D01*
X90185952Y-58497380D01*
X90090714Y-58497380D01*
X91471666Y-58497380D02*
X90900238Y-58497380D01*
X91185952Y-58497380D02*
X91185952Y-57497380D01*
X91090714Y-57640238D01*
X90995476Y-57735476D01*
X90900238Y-57783095D01*
%TO.C,D1*%
X81312380Y-62383095D02*
X80312380Y-62383095D01*
X80312380Y-62145000D01*
X80360000Y-62002142D01*
X80455238Y-61906904D01*
X80550476Y-61859285D01*
X80740952Y-61811666D01*
X80883809Y-61811666D01*
X81074285Y-61859285D01*
X81169523Y-61906904D01*
X81264761Y-62002142D01*
X81312380Y-62145000D01*
X81312380Y-62383095D01*
X81312380Y-60859285D02*
X81312380Y-61430714D01*
X81312380Y-61145000D02*
X80312380Y-61145000D01*
X80455238Y-61240238D01*
X80550476Y-61335476D01*
X80598095Y-61430714D01*
%TD*%
M02*
