%TF.GenerationSoftware,KiCad,Pcbnew,(5.1.10)-1*%
%TF.CreationDate,2021-11-06T18:09:33+11:00*%
%TF.ProjectId,pannel_subboard,70616e6e-656c-45f7-9375-62626f617264,rev?*%
%TF.SameCoordinates,Original*%
%TF.FileFunction,Copper,L1,Top*%
%TF.FilePolarity,Positive*%
%FSLAX46Y46*%
G04 Gerber Fmt 4.6, Leading zero omitted, Abs format (unit mm)*
G04 Created by KiCad (PCBNEW (5.1.10)-1) date 2021-11-06 18:09:33*
%MOMM*%
%LPD*%
G01*
G04 APERTURE LIST*
%TA.AperFunction,ComponentPad*%
%ADD10R,1.700000X1.700000*%
%TD*%
%TA.AperFunction,ComponentPad*%
%ADD11O,1.700000X1.700000*%
%TD*%
%TA.AperFunction,ComponentPad*%
%ADD12C,1.400000*%
%TD*%
%TA.AperFunction,ComponentPad*%
%ADD13O,1.400000X1.400000*%
%TD*%
%TA.AperFunction,ComponentPad*%
%ADD14R,1.800000X1.800000*%
%TD*%
%TA.AperFunction,ComponentPad*%
%ADD15C,1.800000*%
%TD*%
%TA.AperFunction,Conductor*%
%ADD16C,0.250000*%
%TD*%
%TA.AperFunction,Conductor*%
%ADD17C,0.254000*%
%TD*%
%TA.AperFunction,Conductor*%
%ADD18C,0.100000*%
%TD*%
G04 APERTURE END LIST*
D10*
%TO.P,J10,1*%
%TO.N,VCC*%
X139065000Y-60375000D03*
D11*
%TO.P,J10,2*%
X139065000Y-62915000D03*
%TO.P,J10,3*%
%TO.N,Net-(J10-Pad3)*%
X136525000Y-60375000D03*
%TO.P,J10,4*%
%TO.N,Net-(J10-Pad4)*%
X136525000Y-62915000D03*
%TO.P,J10,5*%
%TO.N,Net-(J10-Pad5)*%
X133985000Y-60375000D03*
%TO.P,J10,6*%
%TO.N,Net-(J10-Pad6)*%
X133985000Y-62915000D03*
%TO.P,J10,7*%
%TO.N,Net-(J10-Pad7)*%
X131445000Y-60375000D03*
%TO.P,J10,8*%
%TO.N,Net-(J10-Pad8)*%
X131445000Y-62915000D03*
%TO.P,J10,9*%
%TO.N,Net-(J10-Pad9)*%
X128905000Y-60375000D03*
%TO.P,J10,10*%
%TO.N,Net-(J10-Pad10)*%
X128905000Y-62915000D03*
%TO.P,J10,11*%
%TO.N,SW8-C*%
X126365000Y-60375000D03*
%TO.P,J10,12*%
%TO.N,SW4-C*%
X126365000Y-62915000D03*
%TO.P,J10,13*%
%TO.N,SW8-B*%
X123825000Y-60375000D03*
%TO.P,J10,14*%
%TO.N,SW4-B*%
X123825000Y-62915000D03*
%TO.P,J10,15*%
%TO.N,SW8-A*%
X121285000Y-60375000D03*
%TO.P,J10,16*%
%TO.N,SW4-A*%
X121285000Y-62915000D03*
%TO.P,J10,17*%
%TO.N,SW7-C*%
X118745000Y-60375000D03*
%TO.P,J10,18*%
%TO.N,SW3-C*%
X118745000Y-62915000D03*
%TO.P,J10,19*%
%TO.N,SW7-B*%
X116205000Y-60375000D03*
%TO.P,J10,20*%
%TO.N,SW3-B*%
X116205000Y-62915000D03*
%TO.P,J10,21*%
%TO.N,SW7-A*%
X113665000Y-60375000D03*
%TO.P,J10,22*%
%TO.N,SW3-A*%
X113665000Y-62915000D03*
%TO.P,J10,23*%
%TO.N,SW6-C*%
X111125000Y-60375000D03*
%TO.P,J10,24*%
%TO.N,SW2-C*%
X111125000Y-62915000D03*
%TO.P,J10,25*%
%TO.N,SW6-B*%
X108585000Y-60375000D03*
%TO.P,J10,26*%
%TO.N,SW2-B*%
X108585000Y-62915000D03*
%TO.P,J10,27*%
%TO.N,SW6-A*%
X106045000Y-60375000D03*
%TO.P,J10,28*%
%TO.N,SW2-A*%
X106045000Y-62915000D03*
%TO.P,J10,29*%
%TO.N,SW5-C*%
X103505000Y-60375000D03*
%TO.P,J10,30*%
%TO.N,SW1-C*%
X103505000Y-62915000D03*
%TO.P,J10,31*%
%TO.N,SW5-B*%
X100965000Y-60375000D03*
%TO.P,J10,32*%
%TO.N,SW1-B*%
X100965000Y-62915000D03*
%TO.P,J10,33*%
%TO.N,SW5-A*%
X98425000Y-60375000D03*
%TO.P,J10,34*%
%TO.N,SW1-A*%
X98425000Y-62915000D03*
%TO.P,J10,35*%
%TO.N,GND*%
X95885000Y-60375000D03*
%TO.P,J10,36*%
X95885000Y-62915000D03*
%TD*%
D12*
%TO.P,R1,1*%
%TO.N,GND*%
X87630000Y-61010000D03*
D13*
%TO.P,R1,2*%
%TO.N,Net-(D1-Pad1)*%
X87630000Y-62910000D03*
%TD*%
D10*
%TO.P,J9,1*%
%TO.N,VCC*%
X158115000Y-107365000D03*
D11*
%TO.P,J9,2*%
%TO.N,SW8-A*%
X158115000Y-109905000D03*
%TO.P,J9,3*%
%TO.N,SW8-B*%
X158115000Y-112445000D03*
%TO.P,J9,4*%
%TO.N,SW8-C*%
X158115000Y-114985000D03*
%TO.P,J9,5*%
%TO.N,GND*%
X158115000Y-117525000D03*
%TD*%
D10*
%TO.P,J8,1*%
%TO.N,VCC*%
X112395000Y-107365000D03*
D11*
%TO.P,J8,2*%
%TO.N,SW6-A*%
X112395000Y-109905000D03*
%TO.P,J8,3*%
%TO.N,SW6-B*%
X112395000Y-112445000D03*
%TO.P,J8,4*%
%TO.N,SW6-C*%
X112395000Y-114985000D03*
%TO.P,J8,5*%
%TO.N,GND*%
X112395000Y-117525000D03*
%TD*%
D10*
%TO.P,J7,1*%
%TO.N,VCC*%
X158115000Y-74345000D03*
D11*
%TO.P,J7,2*%
%TO.N,SW4-A*%
X158115000Y-76885000D03*
%TO.P,J7,3*%
%TO.N,SW4-B*%
X158115000Y-79425000D03*
%TO.P,J7,4*%
%TO.N,SW4-C*%
X158115000Y-81965000D03*
%TO.P,J7,5*%
%TO.N,GND*%
X158115000Y-84505000D03*
%TD*%
D10*
%TO.P,J6,1*%
%TO.N,VCC*%
X112395000Y-74345000D03*
D11*
%TO.P,J6,2*%
%TO.N,SW2-A*%
X112395000Y-76885000D03*
%TO.P,J6,3*%
%TO.N,SW2-B*%
X112395000Y-79425000D03*
%TO.P,J6,4*%
%TO.N,SW2-C*%
X112395000Y-81965000D03*
%TO.P,J6,5*%
%TO.N,GND*%
X112395000Y-84505000D03*
%TD*%
D10*
%TO.P,J5,1*%
%TO.N,VCC*%
X135255000Y-107365000D03*
D11*
%TO.P,J5,2*%
%TO.N,SW7-A*%
X135255000Y-109905000D03*
%TO.P,J5,3*%
%TO.N,SW7-B*%
X135255000Y-112445000D03*
%TO.P,J5,4*%
%TO.N,SW7-C*%
X135255000Y-114985000D03*
%TO.P,J5,5*%
%TO.N,GND*%
X135255000Y-117525000D03*
%TD*%
D10*
%TO.P,J4,1*%
%TO.N,VCC*%
X89535000Y-107365000D03*
D11*
%TO.P,J4,2*%
%TO.N,SW5-A*%
X89535000Y-109905000D03*
%TO.P,J4,3*%
%TO.N,SW5-B*%
X89535000Y-112445000D03*
%TO.P,J4,4*%
%TO.N,SW5-C*%
X89535000Y-114985000D03*
%TO.P,J4,5*%
%TO.N,GND*%
X89535000Y-117525000D03*
%TD*%
D10*
%TO.P,J3,1*%
%TO.N,VCC*%
X135255000Y-74345000D03*
D11*
%TO.P,J3,2*%
%TO.N,SW3-A*%
X135255000Y-76885000D03*
%TO.P,J3,3*%
%TO.N,SW3-B*%
X135255000Y-79425000D03*
%TO.P,J3,4*%
%TO.N,SW3-C*%
X135255000Y-81965000D03*
%TO.P,J3,5*%
%TO.N,GND*%
X135255000Y-84505000D03*
%TD*%
D10*
%TO.P,J2,1*%
%TO.N,VCC*%
X89535000Y-74345000D03*
D11*
%TO.P,J2,2*%
%TO.N,SW1-A*%
X89535000Y-76885000D03*
%TO.P,J2,3*%
%TO.N,SW1-B*%
X89535000Y-79425000D03*
%TO.P,J2,4*%
%TO.N,SW1-C*%
X89535000Y-81965000D03*
%TO.P,J2,5*%
%TO.N,GND*%
X89535000Y-84505000D03*
%TD*%
D10*
%TO.P,J1,1*%
%TO.N,VCC*%
X90805000Y-60375000D03*
D11*
%TO.P,J1,2*%
%TO.N,GND*%
X90805000Y-62915000D03*
%TD*%
D14*
%TO.P,D1,1*%
%TO.N,Net-(D1-Pad1)*%
X83820000Y-62915000D03*
D15*
%TO.P,D1,2*%
%TO.N,VCC*%
X83820000Y-60375000D03*
%TD*%
D16*
%TO.N,Net-(D1-Pad1)*%
X87625000Y-62915000D02*
X87630000Y-62910000D01*
X83820000Y-62915000D02*
X87625000Y-62915000D01*
%TO.N,SW1-A*%
X89535000Y-76885000D02*
X89535000Y-76882178D01*
X89535000Y-76882178D02*
X98425000Y-67992178D01*
X98425000Y-67992178D02*
X98425000Y-64117081D01*
X98425000Y-64117081D02*
X98425000Y-62915000D01*
%TO.N,SW1-B*%
X92259989Y-76700011D02*
X92259989Y-74793600D01*
X100965000Y-64117081D02*
X100965000Y-62915000D01*
X92259989Y-74793600D02*
X100965000Y-66088589D01*
X100965000Y-66088589D02*
X100965000Y-64117081D01*
X89535000Y-79425000D02*
X92259989Y-76700011D01*
%TO.N,SW1-C*%
X89535000Y-81965000D02*
X92710000Y-78790000D01*
X92710000Y-78790000D02*
X92710000Y-74980000D01*
X103505000Y-64185000D02*
X103505000Y-62915000D01*
X92710000Y-74980000D02*
X103505000Y-64185000D01*
%TO.N,SW3-A*%
X113665000Y-64185000D02*
X113665000Y-62915000D01*
X115383600Y-65903600D02*
X113665000Y-64185000D01*
X121657166Y-65903600D02*
X115383600Y-65903600D01*
X132638565Y-76885000D02*
X121657166Y-65903600D01*
X135255000Y-76885000D02*
X132638565Y-76885000D01*
%TO.N,SW3-B*%
X113195998Y-61645000D02*
X114935000Y-61645000D01*
X112489999Y-64279999D02*
X112489999Y-62350999D01*
X112489999Y-62350999D02*
X113195998Y-61645000D01*
X133692155Y-78575001D02*
X121470766Y-66353611D01*
X114935000Y-61645000D02*
X116205000Y-62915000D01*
X114563611Y-66353611D02*
X112489999Y-64279999D01*
X121470766Y-66353611D02*
X114563611Y-66353611D01*
X134405001Y-78575001D02*
X133692155Y-78575001D01*
X135255000Y-79425000D02*
X134405001Y-78575001D01*
%TO.N,SW3-C*%
X136430001Y-76320999D02*
X136430001Y-80789999D01*
X135724002Y-75615000D02*
X136430001Y-76320999D01*
X136430001Y-80789999D02*
X135255000Y-81965000D01*
X132082822Y-75615000D02*
X135724002Y-75615000D01*
X121921411Y-65453589D02*
X119378589Y-65453589D01*
X121921411Y-65453589D02*
X132082822Y-75615000D01*
X118745000Y-64820000D02*
X118745000Y-62915000D01*
X119378589Y-65453589D02*
X118745000Y-64820000D01*
%TO.N,SW2-A*%
X109404991Y-66274991D02*
X106045000Y-62915000D01*
X109404991Y-75097072D02*
X109404991Y-66274991D01*
X111192919Y-76885000D02*
X109404991Y-75097072D01*
X112395000Y-76885000D02*
X111192919Y-76885000D01*
%TO.N,SW2-B*%
X107220001Y-61550001D02*
X108585000Y-62915000D01*
X105670997Y-61550001D02*
X107220001Y-61550001D01*
X104869999Y-62350999D02*
X105670997Y-61550001D01*
X106680000Y-65455000D02*
X104869999Y-63644999D01*
X108954980Y-67094980D02*
X107315000Y-65455000D01*
X107315000Y-65455000D02*
X106680000Y-65455000D01*
X108954980Y-75984980D02*
X108954980Y-67094980D01*
X112395000Y-79425000D02*
X108954980Y-75984980D01*
X104869999Y-63644999D02*
X104869999Y-62350999D01*
%TO.N,SW2-C*%
X112769003Y-75520001D02*
X111284999Y-75520001D01*
X113570001Y-76320999D02*
X112769003Y-75520001D01*
X113570001Y-80789999D02*
X113570001Y-76320999D01*
X112395000Y-81965000D02*
X113570001Y-80789999D01*
X111219999Y-75455001D02*
X110965001Y-75455001D01*
X111284999Y-75520001D02*
X111219999Y-75455001D01*
X110965001Y-75455001D02*
X109855000Y-74345000D01*
X109855000Y-64185000D02*
X111125000Y-62915000D01*
X109855000Y-74345000D02*
X109855000Y-64185000D01*
%TO.N,SW4-A*%
X154306410Y-76885000D02*
X158115000Y-76885000D01*
X124275011Y-65905011D02*
X143326422Y-65905011D01*
X143326422Y-65905011D02*
X154306410Y-76885000D01*
X124275011Y-65905011D02*
X121285000Y-62915000D01*
%TO.N,SW4-B*%
X123825000Y-64185000D02*
X123825000Y-62915000D01*
X143512822Y-65455000D02*
X125095000Y-65455000D01*
X153767819Y-75709999D02*
X143512822Y-65455000D01*
X125095000Y-65455000D02*
X123825000Y-64185000D01*
X158679001Y-75709999D02*
X153767819Y-75709999D01*
X159290001Y-76320999D02*
X158679001Y-75709999D01*
X159290001Y-78249999D02*
X159290001Y-76320999D01*
X158115000Y-79425000D02*
X159290001Y-78249999D01*
%TO.N,SW4-C*%
X125189999Y-61739999D02*
X126365000Y-62915000D01*
X120720999Y-61739999D02*
X125189999Y-61739999D01*
X120109999Y-62350999D02*
X120720999Y-61739999D01*
X120109999Y-64279999D02*
X120109999Y-62350999D01*
X120647884Y-64817884D02*
X120109999Y-64279999D01*
X121922116Y-64817884D02*
X120647884Y-64817884D01*
X123459254Y-66355022D02*
X121922116Y-64817884D01*
X143140022Y-66355022D02*
X123459254Y-66355022D01*
X154305000Y-77520000D02*
X155575000Y-77520000D01*
X154305000Y-77520000D02*
X143140022Y-66355022D01*
X156845000Y-78790000D02*
X156845000Y-80695000D01*
X155575000Y-77520000D02*
X156845000Y-78790000D01*
X158115000Y-81965000D02*
X156845000Y-80695000D01*
%TD*%
D17*
%TO.N,VCC*%
X161850001Y-58544881D02*
X161850000Y-133310119D01*
X73100000Y-133324882D01*
X73100000Y-130004872D01*
X73965000Y-130004872D01*
X73965000Y-130445128D01*
X74050890Y-130876925D01*
X74219369Y-131283669D01*
X74463962Y-131649729D01*
X74775271Y-131961038D01*
X75141331Y-132205631D01*
X75548075Y-132374110D01*
X75979872Y-132460000D01*
X76420128Y-132460000D01*
X76851925Y-132374110D01*
X77258669Y-132205631D01*
X77624729Y-131961038D01*
X77936038Y-131649729D01*
X78180631Y-131283669D01*
X78349110Y-130876925D01*
X78435000Y-130445128D01*
X78435000Y-130004872D01*
X156515000Y-130004872D01*
X156515000Y-130445128D01*
X156600890Y-130876925D01*
X156769369Y-131283669D01*
X157013962Y-131649729D01*
X157325271Y-131961038D01*
X157691331Y-132205631D01*
X158098075Y-132374110D01*
X158529872Y-132460000D01*
X158970128Y-132460000D01*
X159401925Y-132374110D01*
X159808669Y-132205631D01*
X160174729Y-131961038D01*
X160486038Y-131649729D01*
X160730631Y-131283669D01*
X160899110Y-130876925D01*
X160985000Y-130445128D01*
X160985000Y-130004872D01*
X160899110Y-129573075D01*
X160730631Y-129166331D01*
X160486038Y-128800271D01*
X160174729Y-128488962D01*
X159808669Y-128244369D01*
X159401925Y-128075890D01*
X158970128Y-127990000D01*
X158529872Y-127990000D01*
X158098075Y-128075890D01*
X157691331Y-128244369D01*
X157325271Y-128488962D01*
X157013962Y-128800271D01*
X156769369Y-129166331D01*
X156600890Y-129573075D01*
X156515000Y-130004872D01*
X78435000Y-130004872D01*
X78349110Y-129573075D01*
X78180631Y-129166331D01*
X77936038Y-128800271D01*
X77624729Y-128488962D01*
X77258669Y-128244369D01*
X76851925Y-128075890D01*
X76420128Y-127990000D01*
X75979872Y-127990000D01*
X75548075Y-128075890D01*
X75141331Y-128244369D01*
X74775271Y-128488962D01*
X74463962Y-128800271D01*
X74219369Y-129166331D01*
X74050890Y-129573075D01*
X73965000Y-130004872D01*
X73100000Y-130004872D01*
X73100000Y-122384872D01*
X80950000Y-122384872D01*
X80950000Y-122825128D01*
X81035890Y-123256925D01*
X81204369Y-123663669D01*
X81448962Y-124029729D01*
X81760271Y-124341038D01*
X82126331Y-124585631D01*
X82533075Y-124754110D01*
X82964872Y-124840000D01*
X83405128Y-124840000D01*
X83836925Y-124754110D01*
X84243669Y-124585631D01*
X84609729Y-124341038D01*
X84921038Y-124029729D01*
X85165631Y-123663669D01*
X85334110Y-123256925D01*
X85420000Y-122825128D01*
X85420000Y-122384872D01*
X103810000Y-122384872D01*
X103810000Y-122825128D01*
X103895890Y-123256925D01*
X104064369Y-123663669D01*
X104308962Y-124029729D01*
X104620271Y-124341038D01*
X104986331Y-124585631D01*
X105393075Y-124754110D01*
X105824872Y-124840000D01*
X106265128Y-124840000D01*
X106696925Y-124754110D01*
X107103669Y-124585631D01*
X107469729Y-124341038D01*
X107781038Y-124029729D01*
X108025631Y-123663669D01*
X108194110Y-123256925D01*
X108280000Y-122825128D01*
X108280000Y-122384872D01*
X126670000Y-122384872D01*
X126670000Y-122825128D01*
X126755890Y-123256925D01*
X126924369Y-123663669D01*
X127168962Y-124029729D01*
X127480271Y-124341038D01*
X127846331Y-124585631D01*
X128253075Y-124754110D01*
X128684872Y-124840000D01*
X129125128Y-124840000D01*
X129556925Y-124754110D01*
X129963669Y-124585631D01*
X130329729Y-124341038D01*
X130641038Y-124029729D01*
X130885631Y-123663669D01*
X131054110Y-123256925D01*
X131140000Y-122825128D01*
X131140000Y-122384872D01*
X149530000Y-122384872D01*
X149530000Y-122825128D01*
X149615890Y-123256925D01*
X149784369Y-123663669D01*
X150028962Y-124029729D01*
X150340271Y-124341038D01*
X150706331Y-124585631D01*
X151113075Y-124754110D01*
X151544872Y-124840000D01*
X151985128Y-124840000D01*
X152416925Y-124754110D01*
X152823669Y-124585631D01*
X153189729Y-124341038D01*
X153501038Y-124029729D01*
X153745631Y-123663669D01*
X153914110Y-123256925D01*
X154000000Y-122825128D01*
X154000000Y-122384872D01*
X153914110Y-121953075D01*
X153745631Y-121546331D01*
X153501038Y-121180271D01*
X153189729Y-120868962D01*
X152823669Y-120624369D01*
X152416925Y-120455890D01*
X151985128Y-120370000D01*
X151544872Y-120370000D01*
X151113075Y-120455890D01*
X150706331Y-120624369D01*
X150340271Y-120868962D01*
X150028962Y-121180271D01*
X149784369Y-121546331D01*
X149615890Y-121953075D01*
X149530000Y-122384872D01*
X131140000Y-122384872D01*
X131054110Y-121953075D01*
X130885631Y-121546331D01*
X130641038Y-121180271D01*
X130329729Y-120868962D01*
X129963669Y-120624369D01*
X129556925Y-120455890D01*
X129125128Y-120370000D01*
X128684872Y-120370000D01*
X128253075Y-120455890D01*
X127846331Y-120624369D01*
X127480271Y-120868962D01*
X127168962Y-121180271D01*
X126924369Y-121546331D01*
X126755890Y-121953075D01*
X126670000Y-122384872D01*
X108280000Y-122384872D01*
X108194110Y-121953075D01*
X108025631Y-121546331D01*
X107781038Y-121180271D01*
X107469729Y-120868962D01*
X107103669Y-120624369D01*
X106696925Y-120455890D01*
X106265128Y-120370000D01*
X105824872Y-120370000D01*
X105393075Y-120455890D01*
X104986331Y-120624369D01*
X104620271Y-120868962D01*
X104308962Y-121180271D01*
X104064369Y-121546331D01*
X103895890Y-121953075D01*
X103810000Y-122384872D01*
X85420000Y-122384872D01*
X85334110Y-121953075D01*
X85165631Y-121546331D01*
X84921038Y-121180271D01*
X84609729Y-120868962D01*
X84243669Y-120624369D01*
X83836925Y-120455890D01*
X83405128Y-120370000D01*
X82964872Y-120370000D01*
X82533075Y-120455890D01*
X82126331Y-120624369D01*
X81760271Y-120868962D01*
X81448962Y-121180271D01*
X81204369Y-121546331D01*
X81035890Y-121953075D01*
X80950000Y-122384872D01*
X73100000Y-122384872D01*
X73100000Y-108215000D01*
X88046928Y-108215000D01*
X88059188Y-108339482D01*
X88095498Y-108459180D01*
X88154463Y-108569494D01*
X88233815Y-108666185D01*
X88330506Y-108745537D01*
X88440820Y-108804502D01*
X88513380Y-108826513D01*
X88381525Y-108958368D01*
X88219010Y-109201589D01*
X88107068Y-109471842D01*
X88050000Y-109758740D01*
X88050000Y-110051260D01*
X88107068Y-110338158D01*
X88219010Y-110608411D01*
X88381525Y-110851632D01*
X88588368Y-111058475D01*
X88762760Y-111175000D01*
X88588368Y-111291525D01*
X88381525Y-111498368D01*
X88219010Y-111741589D01*
X88107068Y-112011842D01*
X88050000Y-112298740D01*
X88050000Y-112591260D01*
X88107068Y-112878158D01*
X88219010Y-113148411D01*
X88381525Y-113391632D01*
X88588368Y-113598475D01*
X88762760Y-113715000D01*
X88588368Y-113831525D01*
X88381525Y-114038368D01*
X88219010Y-114281589D01*
X88107068Y-114551842D01*
X88050000Y-114838740D01*
X88050000Y-115131260D01*
X88107068Y-115418158D01*
X88219010Y-115688411D01*
X88381525Y-115931632D01*
X88588368Y-116138475D01*
X88762760Y-116255000D01*
X88588368Y-116371525D01*
X88381525Y-116578368D01*
X88219010Y-116821589D01*
X88107068Y-117091842D01*
X88050000Y-117378740D01*
X88050000Y-117671260D01*
X88107068Y-117958158D01*
X88219010Y-118228411D01*
X88381525Y-118471632D01*
X88588368Y-118678475D01*
X88831589Y-118840990D01*
X89101842Y-118952932D01*
X89388740Y-119010000D01*
X89681260Y-119010000D01*
X89968158Y-118952932D01*
X90238411Y-118840990D01*
X90481632Y-118678475D01*
X90688475Y-118471632D01*
X90850990Y-118228411D01*
X90962932Y-117958158D01*
X91020000Y-117671260D01*
X91020000Y-117378740D01*
X90962932Y-117091842D01*
X90850990Y-116821589D01*
X90688475Y-116578368D01*
X90481632Y-116371525D01*
X90307240Y-116255000D01*
X90481632Y-116138475D01*
X90688475Y-115931632D01*
X90850990Y-115688411D01*
X90962932Y-115418158D01*
X91020000Y-115131260D01*
X91020000Y-114838740D01*
X90962932Y-114551842D01*
X90850990Y-114281589D01*
X90688475Y-114038368D01*
X90481632Y-113831525D01*
X90307240Y-113715000D01*
X90481632Y-113598475D01*
X90688475Y-113391632D01*
X90850990Y-113148411D01*
X90962932Y-112878158D01*
X91020000Y-112591260D01*
X91020000Y-112298740D01*
X90962932Y-112011842D01*
X90850990Y-111741589D01*
X90688475Y-111498368D01*
X90481632Y-111291525D01*
X90307240Y-111175000D01*
X90481632Y-111058475D01*
X90688475Y-110851632D01*
X90850990Y-110608411D01*
X90962932Y-110338158D01*
X91020000Y-110051260D01*
X91020000Y-109758740D01*
X90962932Y-109471842D01*
X90850990Y-109201589D01*
X90688475Y-108958368D01*
X90556620Y-108826513D01*
X90629180Y-108804502D01*
X90739494Y-108745537D01*
X90836185Y-108666185D01*
X90915537Y-108569494D01*
X90974502Y-108459180D01*
X91010812Y-108339482D01*
X91023072Y-108215000D01*
X110906928Y-108215000D01*
X110919188Y-108339482D01*
X110955498Y-108459180D01*
X111014463Y-108569494D01*
X111093815Y-108666185D01*
X111190506Y-108745537D01*
X111300820Y-108804502D01*
X111373380Y-108826513D01*
X111241525Y-108958368D01*
X111079010Y-109201589D01*
X110967068Y-109471842D01*
X110910000Y-109758740D01*
X110910000Y-110051260D01*
X110967068Y-110338158D01*
X111079010Y-110608411D01*
X111241525Y-110851632D01*
X111448368Y-111058475D01*
X111622760Y-111175000D01*
X111448368Y-111291525D01*
X111241525Y-111498368D01*
X111079010Y-111741589D01*
X110967068Y-112011842D01*
X110910000Y-112298740D01*
X110910000Y-112591260D01*
X110967068Y-112878158D01*
X111079010Y-113148411D01*
X111241525Y-113391632D01*
X111448368Y-113598475D01*
X111622760Y-113715000D01*
X111448368Y-113831525D01*
X111241525Y-114038368D01*
X111079010Y-114281589D01*
X110967068Y-114551842D01*
X110910000Y-114838740D01*
X110910000Y-115131260D01*
X110967068Y-115418158D01*
X111079010Y-115688411D01*
X111241525Y-115931632D01*
X111448368Y-116138475D01*
X111622760Y-116255000D01*
X111448368Y-116371525D01*
X111241525Y-116578368D01*
X111079010Y-116821589D01*
X110967068Y-117091842D01*
X110910000Y-117378740D01*
X110910000Y-117671260D01*
X110967068Y-117958158D01*
X111079010Y-118228411D01*
X111241525Y-118471632D01*
X111448368Y-118678475D01*
X111691589Y-118840990D01*
X111961842Y-118952932D01*
X112248740Y-119010000D01*
X112541260Y-119010000D01*
X112828158Y-118952932D01*
X113098411Y-118840990D01*
X113341632Y-118678475D01*
X113548475Y-118471632D01*
X113710990Y-118228411D01*
X113822932Y-117958158D01*
X113880000Y-117671260D01*
X113880000Y-117378740D01*
X113822932Y-117091842D01*
X113710990Y-116821589D01*
X113548475Y-116578368D01*
X113341632Y-116371525D01*
X113167240Y-116255000D01*
X113341632Y-116138475D01*
X113548475Y-115931632D01*
X113710990Y-115688411D01*
X113822932Y-115418158D01*
X113880000Y-115131260D01*
X113880000Y-114838740D01*
X113822932Y-114551842D01*
X113710990Y-114281589D01*
X113548475Y-114038368D01*
X113341632Y-113831525D01*
X113167240Y-113715000D01*
X113341632Y-113598475D01*
X113548475Y-113391632D01*
X113710990Y-113148411D01*
X113822932Y-112878158D01*
X113880000Y-112591260D01*
X113880000Y-112298740D01*
X113822932Y-112011842D01*
X113710990Y-111741589D01*
X113548475Y-111498368D01*
X113341632Y-111291525D01*
X113167240Y-111175000D01*
X113341632Y-111058475D01*
X113548475Y-110851632D01*
X113710990Y-110608411D01*
X113822932Y-110338158D01*
X113880000Y-110051260D01*
X113880000Y-109758740D01*
X113822932Y-109471842D01*
X113710990Y-109201589D01*
X113548475Y-108958368D01*
X113416620Y-108826513D01*
X113489180Y-108804502D01*
X113599494Y-108745537D01*
X113696185Y-108666185D01*
X113775537Y-108569494D01*
X113834502Y-108459180D01*
X113870812Y-108339482D01*
X113883072Y-108215000D01*
X133766928Y-108215000D01*
X133779188Y-108339482D01*
X133815498Y-108459180D01*
X133874463Y-108569494D01*
X133953815Y-108666185D01*
X134050506Y-108745537D01*
X134160820Y-108804502D01*
X134233380Y-108826513D01*
X134101525Y-108958368D01*
X133939010Y-109201589D01*
X133827068Y-109471842D01*
X133770000Y-109758740D01*
X133770000Y-110051260D01*
X133827068Y-110338158D01*
X133939010Y-110608411D01*
X134101525Y-110851632D01*
X134308368Y-111058475D01*
X134482760Y-111175000D01*
X134308368Y-111291525D01*
X134101525Y-111498368D01*
X133939010Y-111741589D01*
X133827068Y-112011842D01*
X133770000Y-112298740D01*
X133770000Y-112591260D01*
X133827068Y-112878158D01*
X133939010Y-113148411D01*
X134101525Y-113391632D01*
X134308368Y-113598475D01*
X134482760Y-113715000D01*
X134308368Y-113831525D01*
X134101525Y-114038368D01*
X133939010Y-114281589D01*
X133827068Y-114551842D01*
X133770000Y-114838740D01*
X133770000Y-115131260D01*
X133827068Y-115418158D01*
X133939010Y-115688411D01*
X134101525Y-115931632D01*
X134308368Y-116138475D01*
X134482760Y-116255000D01*
X134308368Y-116371525D01*
X134101525Y-116578368D01*
X133939010Y-116821589D01*
X133827068Y-117091842D01*
X133770000Y-117378740D01*
X133770000Y-117671260D01*
X133827068Y-117958158D01*
X133939010Y-118228411D01*
X134101525Y-118471632D01*
X134308368Y-118678475D01*
X134551589Y-118840990D01*
X134821842Y-118952932D01*
X135108740Y-119010000D01*
X135401260Y-119010000D01*
X135688158Y-118952932D01*
X135958411Y-118840990D01*
X136201632Y-118678475D01*
X136408475Y-118471632D01*
X136570990Y-118228411D01*
X136682932Y-117958158D01*
X136740000Y-117671260D01*
X136740000Y-117378740D01*
X136682932Y-117091842D01*
X136570990Y-116821589D01*
X136408475Y-116578368D01*
X136201632Y-116371525D01*
X136027240Y-116255000D01*
X136201632Y-116138475D01*
X136408475Y-115931632D01*
X136570990Y-115688411D01*
X136682932Y-115418158D01*
X136740000Y-115131260D01*
X136740000Y-114838740D01*
X136682932Y-114551842D01*
X136570990Y-114281589D01*
X136408475Y-114038368D01*
X136201632Y-113831525D01*
X136027240Y-113715000D01*
X136201632Y-113598475D01*
X136408475Y-113391632D01*
X136570990Y-113148411D01*
X136682932Y-112878158D01*
X136740000Y-112591260D01*
X136740000Y-112298740D01*
X136682932Y-112011842D01*
X136570990Y-111741589D01*
X136408475Y-111498368D01*
X136201632Y-111291525D01*
X136027240Y-111175000D01*
X136201632Y-111058475D01*
X136408475Y-110851632D01*
X136570990Y-110608411D01*
X136682932Y-110338158D01*
X136740000Y-110051260D01*
X136740000Y-109758740D01*
X136682932Y-109471842D01*
X136570990Y-109201589D01*
X136408475Y-108958368D01*
X136276620Y-108826513D01*
X136349180Y-108804502D01*
X136459494Y-108745537D01*
X136556185Y-108666185D01*
X136635537Y-108569494D01*
X136694502Y-108459180D01*
X136730812Y-108339482D01*
X136743072Y-108215000D01*
X156626928Y-108215000D01*
X156639188Y-108339482D01*
X156675498Y-108459180D01*
X156734463Y-108569494D01*
X156813815Y-108666185D01*
X156910506Y-108745537D01*
X157020820Y-108804502D01*
X157093380Y-108826513D01*
X156961525Y-108958368D01*
X156799010Y-109201589D01*
X156687068Y-109471842D01*
X156630000Y-109758740D01*
X156630000Y-110051260D01*
X156687068Y-110338158D01*
X156799010Y-110608411D01*
X156961525Y-110851632D01*
X157168368Y-111058475D01*
X157342760Y-111175000D01*
X157168368Y-111291525D01*
X156961525Y-111498368D01*
X156799010Y-111741589D01*
X156687068Y-112011842D01*
X156630000Y-112298740D01*
X156630000Y-112591260D01*
X156687068Y-112878158D01*
X156799010Y-113148411D01*
X156961525Y-113391632D01*
X157168368Y-113598475D01*
X157342760Y-113715000D01*
X157168368Y-113831525D01*
X156961525Y-114038368D01*
X156799010Y-114281589D01*
X156687068Y-114551842D01*
X156630000Y-114838740D01*
X156630000Y-115131260D01*
X156687068Y-115418158D01*
X156799010Y-115688411D01*
X156961525Y-115931632D01*
X157168368Y-116138475D01*
X157342760Y-116255000D01*
X157168368Y-116371525D01*
X156961525Y-116578368D01*
X156799010Y-116821589D01*
X156687068Y-117091842D01*
X156630000Y-117378740D01*
X156630000Y-117671260D01*
X156687068Y-117958158D01*
X156799010Y-118228411D01*
X156961525Y-118471632D01*
X157168368Y-118678475D01*
X157411589Y-118840990D01*
X157681842Y-118952932D01*
X157968740Y-119010000D01*
X158261260Y-119010000D01*
X158548158Y-118952932D01*
X158818411Y-118840990D01*
X159061632Y-118678475D01*
X159268475Y-118471632D01*
X159430990Y-118228411D01*
X159542932Y-117958158D01*
X159600000Y-117671260D01*
X159600000Y-117378740D01*
X159542932Y-117091842D01*
X159430990Y-116821589D01*
X159268475Y-116578368D01*
X159061632Y-116371525D01*
X158887240Y-116255000D01*
X159061632Y-116138475D01*
X159268475Y-115931632D01*
X159430990Y-115688411D01*
X159542932Y-115418158D01*
X159600000Y-115131260D01*
X159600000Y-114838740D01*
X159542932Y-114551842D01*
X159430990Y-114281589D01*
X159268475Y-114038368D01*
X159061632Y-113831525D01*
X158887240Y-113715000D01*
X159061632Y-113598475D01*
X159268475Y-113391632D01*
X159430990Y-113148411D01*
X159542932Y-112878158D01*
X159600000Y-112591260D01*
X159600000Y-112298740D01*
X159542932Y-112011842D01*
X159430990Y-111741589D01*
X159268475Y-111498368D01*
X159061632Y-111291525D01*
X158887240Y-111175000D01*
X159061632Y-111058475D01*
X159268475Y-110851632D01*
X159430990Y-110608411D01*
X159542932Y-110338158D01*
X159600000Y-110051260D01*
X159600000Y-109758740D01*
X159542932Y-109471842D01*
X159430990Y-109201589D01*
X159268475Y-108958368D01*
X159136620Y-108826513D01*
X159209180Y-108804502D01*
X159319494Y-108745537D01*
X159416185Y-108666185D01*
X159495537Y-108569494D01*
X159554502Y-108459180D01*
X159590812Y-108339482D01*
X159603072Y-108215000D01*
X159600000Y-107650750D01*
X159441250Y-107492000D01*
X158242000Y-107492000D01*
X158242000Y-107512000D01*
X157988000Y-107512000D01*
X157988000Y-107492000D01*
X156788750Y-107492000D01*
X156630000Y-107650750D01*
X156626928Y-108215000D01*
X136743072Y-108215000D01*
X136740000Y-107650750D01*
X136581250Y-107492000D01*
X135382000Y-107492000D01*
X135382000Y-107512000D01*
X135128000Y-107512000D01*
X135128000Y-107492000D01*
X133928750Y-107492000D01*
X133770000Y-107650750D01*
X133766928Y-108215000D01*
X113883072Y-108215000D01*
X113880000Y-107650750D01*
X113721250Y-107492000D01*
X112522000Y-107492000D01*
X112522000Y-107512000D01*
X112268000Y-107512000D01*
X112268000Y-107492000D01*
X111068750Y-107492000D01*
X110910000Y-107650750D01*
X110906928Y-108215000D01*
X91023072Y-108215000D01*
X91020000Y-107650750D01*
X90861250Y-107492000D01*
X89662000Y-107492000D01*
X89662000Y-107512000D01*
X89408000Y-107512000D01*
X89408000Y-107492000D01*
X88208750Y-107492000D01*
X88050000Y-107650750D01*
X88046928Y-108215000D01*
X73100000Y-108215000D01*
X73100000Y-106515000D01*
X88046928Y-106515000D01*
X88050000Y-107079250D01*
X88208750Y-107238000D01*
X89408000Y-107238000D01*
X89408000Y-106038750D01*
X89662000Y-106038750D01*
X89662000Y-107238000D01*
X90861250Y-107238000D01*
X91020000Y-107079250D01*
X91023072Y-106515000D01*
X110906928Y-106515000D01*
X110910000Y-107079250D01*
X111068750Y-107238000D01*
X112268000Y-107238000D01*
X112268000Y-106038750D01*
X112522000Y-106038750D01*
X112522000Y-107238000D01*
X113721250Y-107238000D01*
X113880000Y-107079250D01*
X113883072Y-106515000D01*
X133766928Y-106515000D01*
X133770000Y-107079250D01*
X133928750Y-107238000D01*
X135128000Y-107238000D01*
X135128000Y-106038750D01*
X135382000Y-106038750D01*
X135382000Y-107238000D01*
X136581250Y-107238000D01*
X136740000Y-107079250D01*
X136743072Y-106515000D01*
X156626928Y-106515000D01*
X156630000Y-107079250D01*
X156788750Y-107238000D01*
X157988000Y-107238000D01*
X157988000Y-106038750D01*
X158242000Y-106038750D01*
X158242000Y-107238000D01*
X159441250Y-107238000D01*
X159600000Y-107079250D01*
X159603072Y-106515000D01*
X159590812Y-106390518D01*
X159554502Y-106270820D01*
X159495537Y-106160506D01*
X159416185Y-106063815D01*
X159319494Y-105984463D01*
X159209180Y-105925498D01*
X159089482Y-105889188D01*
X158965000Y-105876928D01*
X158400750Y-105880000D01*
X158242000Y-106038750D01*
X157988000Y-106038750D01*
X157829250Y-105880000D01*
X157265000Y-105876928D01*
X157140518Y-105889188D01*
X157020820Y-105925498D01*
X156910506Y-105984463D01*
X156813815Y-106063815D01*
X156734463Y-106160506D01*
X156675498Y-106270820D01*
X156639188Y-106390518D01*
X156626928Y-106515000D01*
X136743072Y-106515000D01*
X136730812Y-106390518D01*
X136694502Y-106270820D01*
X136635537Y-106160506D01*
X136556185Y-106063815D01*
X136459494Y-105984463D01*
X136349180Y-105925498D01*
X136229482Y-105889188D01*
X136105000Y-105876928D01*
X135540750Y-105880000D01*
X135382000Y-106038750D01*
X135128000Y-106038750D01*
X134969250Y-105880000D01*
X134405000Y-105876928D01*
X134280518Y-105889188D01*
X134160820Y-105925498D01*
X134050506Y-105984463D01*
X133953815Y-106063815D01*
X133874463Y-106160506D01*
X133815498Y-106270820D01*
X133779188Y-106390518D01*
X133766928Y-106515000D01*
X113883072Y-106515000D01*
X113870812Y-106390518D01*
X113834502Y-106270820D01*
X113775537Y-106160506D01*
X113696185Y-106063815D01*
X113599494Y-105984463D01*
X113489180Y-105925498D01*
X113369482Y-105889188D01*
X113245000Y-105876928D01*
X112680750Y-105880000D01*
X112522000Y-106038750D01*
X112268000Y-106038750D01*
X112109250Y-105880000D01*
X111545000Y-105876928D01*
X111420518Y-105889188D01*
X111300820Y-105925498D01*
X111190506Y-105984463D01*
X111093815Y-106063815D01*
X111014463Y-106160506D01*
X110955498Y-106270820D01*
X110919188Y-106390518D01*
X110906928Y-106515000D01*
X91023072Y-106515000D01*
X91010812Y-106390518D01*
X90974502Y-106270820D01*
X90915537Y-106160506D01*
X90836185Y-106063815D01*
X90739494Y-105984463D01*
X90629180Y-105925498D01*
X90509482Y-105889188D01*
X90385000Y-105876928D01*
X89820750Y-105880000D01*
X89662000Y-106038750D01*
X89408000Y-106038750D01*
X89249250Y-105880000D01*
X88685000Y-105876928D01*
X88560518Y-105889188D01*
X88440820Y-105925498D01*
X88330506Y-105984463D01*
X88233815Y-106063815D01*
X88154463Y-106160506D01*
X88095498Y-106270820D01*
X88059188Y-106390518D01*
X88046928Y-106515000D01*
X73100000Y-106515000D01*
X73100000Y-102064872D01*
X80950000Y-102064872D01*
X80950000Y-102505128D01*
X81035890Y-102936925D01*
X81204369Y-103343669D01*
X81448962Y-103709729D01*
X81760271Y-104021038D01*
X82126331Y-104265631D01*
X82533075Y-104434110D01*
X82964872Y-104520000D01*
X83405128Y-104520000D01*
X83836925Y-104434110D01*
X84243669Y-104265631D01*
X84609729Y-104021038D01*
X84921038Y-103709729D01*
X85165631Y-103343669D01*
X85334110Y-102936925D01*
X85420000Y-102505128D01*
X85420000Y-102064872D01*
X103810000Y-102064872D01*
X103810000Y-102505128D01*
X103895890Y-102936925D01*
X104064369Y-103343669D01*
X104308962Y-103709729D01*
X104620271Y-104021038D01*
X104986331Y-104265631D01*
X105393075Y-104434110D01*
X105824872Y-104520000D01*
X106265128Y-104520000D01*
X106696925Y-104434110D01*
X107103669Y-104265631D01*
X107469729Y-104021038D01*
X107781038Y-103709729D01*
X108025631Y-103343669D01*
X108194110Y-102936925D01*
X108280000Y-102505128D01*
X108280000Y-102064872D01*
X126670000Y-102064872D01*
X126670000Y-102505128D01*
X126755890Y-102936925D01*
X126924369Y-103343669D01*
X127168962Y-103709729D01*
X127480271Y-104021038D01*
X127846331Y-104265631D01*
X128253075Y-104434110D01*
X128684872Y-104520000D01*
X129125128Y-104520000D01*
X129556925Y-104434110D01*
X129963669Y-104265631D01*
X130329729Y-104021038D01*
X130641038Y-103709729D01*
X130885631Y-103343669D01*
X131054110Y-102936925D01*
X131140000Y-102505128D01*
X131140000Y-102064872D01*
X149530000Y-102064872D01*
X149530000Y-102505128D01*
X149615890Y-102936925D01*
X149784369Y-103343669D01*
X150028962Y-103709729D01*
X150340271Y-104021038D01*
X150706331Y-104265631D01*
X151113075Y-104434110D01*
X151544872Y-104520000D01*
X151985128Y-104520000D01*
X152416925Y-104434110D01*
X152823669Y-104265631D01*
X153189729Y-104021038D01*
X153501038Y-103709729D01*
X153745631Y-103343669D01*
X153914110Y-102936925D01*
X154000000Y-102505128D01*
X154000000Y-102064872D01*
X153914110Y-101633075D01*
X153745631Y-101226331D01*
X153501038Y-100860271D01*
X153189729Y-100548962D01*
X152823669Y-100304369D01*
X152416925Y-100135890D01*
X151985128Y-100050000D01*
X151544872Y-100050000D01*
X151113075Y-100135890D01*
X150706331Y-100304369D01*
X150340271Y-100548962D01*
X150028962Y-100860271D01*
X149784369Y-101226331D01*
X149615890Y-101633075D01*
X149530000Y-102064872D01*
X131140000Y-102064872D01*
X131054110Y-101633075D01*
X130885631Y-101226331D01*
X130641038Y-100860271D01*
X130329729Y-100548962D01*
X129963669Y-100304369D01*
X129556925Y-100135890D01*
X129125128Y-100050000D01*
X128684872Y-100050000D01*
X128253075Y-100135890D01*
X127846331Y-100304369D01*
X127480271Y-100548962D01*
X127168962Y-100860271D01*
X126924369Y-101226331D01*
X126755890Y-101633075D01*
X126670000Y-102064872D01*
X108280000Y-102064872D01*
X108194110Y-101633075D01*
X108025631Y-101226331D01*
X107781038Y-100860271D01*
X107469729Y-100548962D01*
X107103669Y-100304369D01*
X106696925Y-100135890D01*
X106265128Y-100050000D01*
X105824872Y-100050000D01*
X105393075Y-100135890D01*
X104986331Y-100304369D01*
X104620271Y-100548962D01*
X104308962Y-100860271D01*
X104064369Y-101226331D01*
X103895890Y-101633075D01*
X103810000Y-102064872D01*
X85420000Y-102064872D01*
X85334110Y-101633075D01*
X85165631Y-101226331D01*
X84921038Y-100860271D01*
X84609729Y-100548962D01*
X84243669Y-100304369D01*
X83836925Y-100135890D01*
X83405128Y-100050000D01*
X82964872Y-100050000D01*
X82533075Y-100135890D01*
X82126331Y-100304369D01*
X81760271Y-100548962D01*
X81448962Y-100860271D01*
X81204369Y-101226331D01*
X81035890Y-101633075D01*
X80950000Y-102064872D01*
X73100000Y-102064872D01*
X73100000Y-89364872D01*
X80950000Y-89364872D01*
X80950000Y-89805128D01*
X81035890Y-90236925D01*
X81204369Y-90643669D01*
X81448962Y-91009729D01*
X81760271Y-91321038D01*
X82126331Y-91565631D01*
X82533075Y-91734110D01*
X82964872Y-91820000D01*
X83405128Y-91820000D01*
X83836925Y-91734110D01*
X84243669Y-91565631D01*
X84609729Y-91321038D01*
X84921038Y-91009729D01*
X85165631Y-90643669D01*
X85334110Y-90236925D01*
X85420000Y-89805128D01*
X85420000Y-89364872D01*
X103810000Y-89364872D01*
X103810000Y-89805128D01*
X103895890Y-90236925D01*
X104064369Y-90643669D01*
X104308962Y-91009729D01*
X104620271Y-91321038D01*
X104986331Y-91565631D01*
X105393075Y-91734110D01*
X105824872Y-91820000D01*
X106265128Y-91820000D01*
X106696925Y-91734110D01*
X107103669Y-91565631D01*
X107469729Y-91321038D01*
X107781038Y-91009729D01*
X108025631Y-90643669D01*
X108194110Y-90236925D01*
X108280000Y-89805128D01*
X108280000Y-89364872D01*
X126670000Y-89364872D01*
X126670000Y-89805128D01*
X126755890Y-90236925D01*
X126924369Y-90643669D01*
X127168962Y-91009729D01*
X127480271Y-91321038D01*
X127846331Y-91565631D01*
X128253075Y-91734110D01*
X128684872Y-91820000D01*
X129125128Y-91820000D01*
X129556925Y-91734110D01*
X129963669Y-91565631D01*
X130329729Y-91321038D01*
X130641038Y-91009729D01*
X130885631Y-90643669D01*
X131054110Y-90236925D01*
X131140000Y-89805128D01*
X131140000Y-89364872D01*
X149530000Y-89364872D01*
X149530000Y-89805128D01*
X149615890Y-90236925D01*
X149784369Y-90643669D01*
X150028962Y-91009729D01*
X150340271Y-91321038D01*
X150706331Y-91565631D01*
X151113075Y-91734110D01*
X151544872Y-91820000D01*
X151985128Y-91820000D01*
X152416925Y-91734110D01*
X152823669Y-91565631D01*
X153189729Y-91321038D01*
X153501038Y-91009729D01*
X153745631Y-90643669D01*
X153914110Y-90236925D01*
X154000000Y-89805128D01*
X154000000Y-89364872D01*
X153914110Y-88933075D01*
X153745631Y-88526331D01*
X153501038Y-88160271D01*
X153189729Y-87848962D01*
X152823669Y-87604369D01*
X152416925Y-87435890D01*
X151985128Y-87350000D01*
X151544872Y-87350000D01*
X151113075Y-87435890D01*
X150706331Y-87604369D01*
X150340271Y-87848962D01*
X150028962Y-88160271D01*
X149784369Y-88526331D01*
X149615890Y-88933075D01*
X149530000Y-89364872D01*
X131140000Y-89364872D01*
X131054110Y-88933075D01*
X130885631Y-88526331D01*
X130641038Y-88160271D01*
X130329729Y-87848962D01*
X129963669Y-87604369D01*
X129556925Y-87435890D01*
X129125128Y-87350000D01*
X128684872Y-87350000D01*
X128253075Y-87435890D01*
X127846331Y-87604369D01*
X127480271Y-87848962D01*
X127168962Y-88160271D01*
X126924369Y-88526331D01*
X126755890Y-88933075D01*
X126670000Y-89364872D01*
X108280000Y-89364872D01*
X108194110Y-88933075D01*
X108025631Y-88526331D01*
X107781038Y-88160271D01*
X107469729Y-87848962D01*
X107103669Y-87604369D01*
X106696925Y-87435890D01*
X106265128Y-87350000D01*
X105824872Y-87350000D01*
X105393075Y-87435890D01*
X104986331Y-87604369D01*
X104620271Y-87848962D01*
X104308962Y-88160271D01*
X104064369Y-88526331D01*
X103895890Y-88933075D01*
X103810000Y-89364872D01*
X85420000Y-89364872D01*
X85334110Y-88933075D01*
X85165631Y-88526331D01*
X84921038Y-88160271D01*
X84609729Y-87848962D01*
X84243669Y-87604369D01*
X83836925Y-87435890D01*
X83405128Y-87350000D01*
X82964872Y-87350000D01*
X82533075Y-87435890D01*
X82126331Y-87604369D01*
X81760271Y-87848962D01*
X81448962Y-88160271D01*
X81204369Y-88526331D01*
X81035890Y-88933075D01*
X80950000Y-89364872D01*
X73100000Y-89364872D01*
X73100000Y-75195000D01*
X88046928Y-75195000D01*
X88059188Y-75319482D01*
X88095498Y-75439180D01*
X88154463Y-75549494D01*
X88233815Y-75646185D01*
X88330506Y-75725537D01*
X88440820Y-75784502D01*
X88513380Y-75806513D01*
X88381525Y-75938368D01*
X88219010Y-76181589D01*
X88107068Y-76451842D01*
X88050000Y-76738740D01*
X88050000Y-77031260D01*
X88107068Y-77318158D01*
X88219010Y-77588411D01*
X88381525Y-77831632D01*
X88588368Y-78038475D01*
X88762760Y-78155000D01*
X88588368Y-78271525D01*
X88381525Y-78478368D01*
X88219010Y-78721589D01*
X88107068Y-78991842D01*
X88050000Y-79278740D01*
X88050000Y-79571260D01*
X88107068Y-79858158D01*
X88219010Y-80128411D01*
X88381525Y-80371632D01*
X88588368Y-80578475D01*
X88762760Y-80695000D01*
X88588368Y-80811525D01*
X88381525Y-81018368D01*
X88219010Y-81261589D01*
X88107068Y-81531842D01*
X88050000Y-81818740D01*
X88050000Y-82111260D01*
X88107068Y-82398158D01*
X88219010Y-82668411D01*
X88381525Y-82911632D01*
X88588368Y-83118475D01*
X88762760Y-83235000D01*
X88588368Y-83351525D01*
X88381525Y-83558368D01*
X88219010Y-83801589D01*
X88107068Y-84071842D01*
X88050000Y-84358740D01*
X88050000Y-84651260D01*
X88107068Y-84938158D01*
X88219010Y-85208411D01*
X88381525Y-85451632D01*
X88588368Y-85658475D01*
X88831589Y-85820990D01*
X89101842Y-85932932D01*
X89388740Y-85990000D01*
X89681260Y-85990000D01*
X89968158Y-85932932D01*
X90238411Y-85820990D01*
X90481632Y-85658475D01*
X90688475Y-85451632D01*
X90850990Y-85208411D01*
X90962932Y-84938158D01*
X91020000Y-84651260D01*
X91020000Y-84358740D01*
X90962932Y-84071842D01*
X90850990Y-83801589D01*
X90688475Y-83558368D01*
X90481632Y-83351525D01*
X90307240Y-83235000D01*
X90481632Y-83118475D01*
X90688475Y-82911632D01*
X90850990Y-82668411D01*
X90962932Y-82398158D01*
X91020000Y-82111260D01*
X91020000Y-81818740D01*
X90976209Y-81598592D01*
X93221004Y-79353798D01*
X93250001Y-79330001D01*
X93294308Y-79276013D01*
X93344974Y-79214277D01*
X93415546Y-79082247D01*
X93440275Y-79000724D01*
X93459003Y-78938986D01*
X93470000Y-78827333D01*
X93470000Y-78827324D01*
X93473676Y-78790001D01*
X93470000Y-78752678D01*
X93470000Y-75294801D01*
X104016009Y-64748793D01*
X104045001Y-64725001D01*
X104068795Y-64696008D01*
X104068799Y-64696004D01*
X104139973Y-64609277D01*
X104139974Y-64609276D01*
X104210546Y-64477247D01*
X104254003Y-64333986D01*
X104265000Y-64222333D01*
X104265000Y-64222324D01*
X104268073Y-64191125D01*
X104311314Y-64162233D01*
X104329998Y-64185000D01*
X104359002Y-64208803D01*
X106116200Y-65966002D01*
X106139999Y-65995001D01*
X106168997Y-66018799D01*
X106255723Y-66089974D01*
X106322975Y-66125921D01*
X106387753Y-66160546D01*
X106531014Y-66204003D01*
X106642667Y-66215000D01*
X106642677Y-66215000D01*
X106680000Y-66218676D01*
X106717323Y-66215000D01*
X107000199Y-66215000D01*
X108194981Y-67409783D01*
X108194981Y-68617453D01*
X108194110Y-68613075D01*
X108025631Y-68206331D01*
X107781038Y-67840271D01*
X107469729Y-67528962D01*
X107103669Y-67284369D01*
X106696925Y-67115890D01*
X106265128Y-67030000D01*
X105824872Y-67030000D01*
X105393075Y-67115890D01*
X104986331Y-67284369D01*
X104620271Y-67528962D01*
X104308962Y-67840271D01*
X104064369Y-68206331D01*
X103895890Y-68613075D01*
X103810000Y-69044872D01*
X103810000Y-69485128D01*
X103895890Y-69916925D01*
X104064369Y-70323669D01*
X104308962Y-70689729D01*
X104620271Y-71001038D01*
X104986331Y-71245631D01*
X105393075Y-71414110D01*
X105824872Y-71500000D01*
X106265128Y-71500000D01*
X106696925Y-71414110D01*
X107103669Y-71245631D01*
X107469729Y-71001038D01*
X107781038Y-70689729D01*
X108025631Y-70323669D01*
X108194110Y-69916925D01*
X108194981Y-69912548D01*
X108194980Y-75947658D01*
X108191304Y-75984980D01*
X108194980Y-76022302D01*
X108194980Y-76022312D01*
X108205977Y-76133965D01*
X108241175Y-76250000D01*
X108249434Y-76277226D01*
X108320006Y-76409256D01*
X108354956Y-76451842D01*
X108414979Y-76524981D01*
X108443983Y-76548784D01*
X110953790Y-79058592D01*
X110910000Y-79278740D01*
X110910000Y-79571260D01*
X110967068Y-79858158D01*
X111079010Y-80128411D01*
X111241525Y-80371632D01*
X111448368Y-80578475D01*
X111622760Y-80695000D01*
X111448368Y-80811525D01*
X111241525Y-81018368D01*
X111079010Y-81261589D01*
X110967068Y-81531842D01*
X110910000Y-81818740D01*
X110910000Y-82111260D01*
X110967068Y-82398158D01*
X111079010Y-82668411D01*
X111241525Y-82911632D01*
X111448368Y-83118475D01*
X111622760Y-83235000D01*
X111448368Y-83351525D01*
X111241525Y-83558368D01*
X111079010Y-83801589D01*
X110967068Y-84071842D01*
X110910000Y-84358740D01*
X110910000Y-84651260D01*
X110967068Y-84938158D01*
X111079010Y-85208411D01*
X111241525Y-85451632D01*
X111448368Y-85658475D01*
X111691589Y-85820990D01*
X111961842Y-85932932D01*
X112248740Y-85990000D01*
X112541260Y-85990000D01*
X112828158Y-85932932D01*
X113098411Y-85820990D01*
X113341632Y-85658475D01*
X113548475Y-85451632D01*
X113710990Y-85208411D01*
X113822932Y-84938158D01*
X113880000Y-84651260D01*
X113880000Y-84358740D01*
X113822932Y-84071842D01*
X113710990Y-83801589D01*
X113548475Y-83558368D01*
X113341632Y-83351525D01*
X113167240Y-83235000D01*
X113341632Y-83118475D01*
X113548475Y-82911632D01*
X113710990Y-82668411D01*
X113822932Y-82398158D01*
X113880000Y-82111260D01*
X113880000Y-81818740D01*
X113836210Y-81598592D01*
X114081005Y-81353797D01*
X114110002Y-81330000D01*
X114204975Y-81214275D01*
X114275547Y-81082246D01*
X114319004Y-80938985D01*
X114330001Y-80827332D01*
X114330001Y-80827323D01*
X114333677Y-80790000D01*
X114330001Y-80752677D01*
X114330001Y-76358321D01*
X114333677Y-76320998D01*
X114330001Y-76283675D01*
X114330001Y-76283666D01*
X114319004Y-76172013D01*
X114275547Y-76028752D01*
X114204975Y-75896723D01*
X114110002Y-75780998D01*
X114081003Y-75757200D01*
X113809590Y-75485786D01*
X113834502Y-75439180D01*
X113870812Y-75319482D01*
X113883072Y-75195000D01*
X113880000Y-74630750D01*
X113721250Y-74472000D01*
X112522000Y-74472000D01*
X112522000Y-74492000D01*
X112268000Y-74492000D01*
X112268000Y-74472000D01*
X112248000Y-74472000D01*
X112248000Y-74218000D01*
X112268000Y-74218000D01*
X112268000Y-73018750D01*
X112522000Y-73018750D01*
X112522000Y-74218000D01*
X113721250Y-74218000D01*
X113880000Y-74059250D01*
X113883072Y-73495000D01*
X113870812Y-73370518D01*
X113834502Y-73250820D01*
X113775537Y-73140506D01*
X113696185Y-73043815D01*
X113599494Y-72964463D01*
X113489180Y-72905498D01*
X113369482Y-72869188D01*
X113245000Y-72856928D01*
X112680750Y-72860000D01*
X112522000Y-73018750D01*
X112268000Y-73018750D01*
X112109250Y-72860000D01*
X111545000Y-72856928D01*
X111420518Y-72869188D01*
X111300820Y-72905498D01*
X111190506Y-72964463D01*
X111093815Y-73043815D01*
X111014463Y-73140506D01*
X110955498Y-73250820D01*
X110919188Y-73370518D01*
X110906928Y-73495000D01*
X110910000Y-74059250D01*
X111068748Y-74217998D01*
X110910000Y-74217998D01*
X110910000Y-74325198D01*
X110615000Y-74030199D01*
X110615000Y-64499801D01*
X110758592Y-64356209D01*
X110978740Y-64400000D01*
X111271260Y-64400000D01*
X111558158Y-64342932D01*
X111727013Y-64272990D01*
X111726323Y-64279999D01*
X111729999Y-64317321D01*
X111729999Y-64317331D01*
X111740996Y-64428984D01*
X111784453Y-64572245D01*
X111855025Y-64704275D01*
X111872035Y-64725001D01*
X111949998Y-64820000D01*
X111979002Y-64843803D01*
X113999811Y-66864613D01*
X114023610Y-66893612D01*
X114139335Y-66988585D01*
X114271364Y-67059157D01*
X114414625Y-67102614D01*
X114526278Y-67113611D01*
X114526287Y-67113611D01*
X114563610Y-67117287D01*
X114600933Y-67113611D01*
X121155965Y-67113611D01*
X133128355Y-79086003D01*
X133152154Y-79115002D01*
X133267879Y-79209975D01*
X133399908Y-79280547D01*
X133543169Y-79324004D01*
X133654822Y-79335001D01*
X133654830Y-79335001D01*
X133692155Y-79338677D01*
X133729480Y-79335001D01*
X133770000Y-79335001D01*
X133770000Y-79571260D01*
X133827068Y-79858158D01*
X133939010Y-80128411D01*
X134101525Y-80371632D01*
X134308368Y-80578475D01*
X134482760Y-80695000D01*
X134308368Y-80811525D01*
X134101525Y-81018368D01*
X133939010Y-81261589D01*
X133827068Y-81531842D01*
X133770000Y-81818740D01*
X133770000Y-82111260D01*
X133827068Y-82398158D01*
X133939010Y-82668411D01*
X134101525Y-82911632D01*
X134308368Y-83118475D01*
X134482760Y-83235000D01*
X134308368Y-83351525D01*
X134101525Y-83558368D01*
X133939010Y-83801589D01*
X133827068Y-84071842D01*
X133770000Y-84358740D01*
X133770000Y-84651260D01*
X133827068Y-84938158D01*
X133939010Y-85208411D01*
X134101525Y-85451632D01*
X134308368Y-85658475D01*
X134551589Y-85820990D01*
X134821842Y-85932932D01*
X135108740Y-85990000D01*
X135401260Y-85990000D01*
X135688158Y-85932932D01*
X135958411Y-85820990D01*
X136201632Y-85658475D01*
X136408475Y-85451632D01*
X136570990Y-85208411D01*
X136682932Y-84938158D01*
X136740000Y-84651260D01*
X136740000Y-84358740D01*
X136682932Y-84071842D01*
X136570990Y-83801589D01*
X136408475Y-83558368D01*
X136201632Y-83351525D01*
X136027240Y-83235000D01*
X136201632Y-83118475D01*
X136408475Y-82911632D01*
X136570990Y-82668411D01*
X136682932Y-82398158D01*
X136740000Y-82111260D01*
X136740000Y-81818740D01*
X136696210Y-81598592D01*
X136941004Y-81353798D01*
X136970002Y-81330000D01*
X137064975Y-81214275D01*
X137135547Y-81082246D01*
X137179004Y-80938985D01*
X137190001Y-80827332D01*
X137190001Y-80827323D01*
X137193677Y-80790000D01*
X137190001Y-80752677D01*
X137190001Y-76358321D01*
X137193677Y-76320998D01*
X137190001Y-76283675D01*
X137190001Y-76283666D01*
X137179004Y-76172013D01*
X137135547Y-76028752D01*
X137064975Y-75896723D01*
X136970002Y-75780998D01*
X136941005Y-75757201D01*
X136669590Y-75485786D01*
X136694502Y-75439180D01*
X136730812Y-75319482D01*
X136743072Y-75195000D01*
X136740000Y-74630750D01*
X136581250Y-74472000D01*
X135382000Y-74472000D01*
X135382000Y-74492000D01*
X135128000Y-74492000D01*
X135128000Y-74472000D01*
X133928750Y-74472000D01*
X133770000Y-74630750D01*
X133768779Y-74855000D01*
X132397624Y-74855000D01*
X131037624Y-73495000D01*
X133766928Y-73495000D01*
X133770000Y-74059250D01*
X133928750Y-74218000D01*
X135128000Y-74218000D01*
X135128000Y-73018750D01*
X135382000Y-73018750D01*
X135382000Y-74218000D01*
X136581250Y-74218000D01*
X136740000Y-74059250D01*
X136743072Y-73495000D01*
X136730812Y-73370518D01*
X136694502Y-73250820D01*
X136635537Y-73140506D01*
X136556185Y-73043815D01*
X136459494Y-72964463D01*
X136349180Y-72905498D01*
X136229482Y-72869188D01*
X136105000Y-72856928D01*
X135540750Y-72860000D01*
X135382000Y-73018750D01*
X135128000Y-73018750D01*
X134969250Y-72860000D01*
X134405000Y-72856928D01*
X134280518Y-72869188D01*
X134160820Y-72905498D01*
X134050506Y-72964463D01*
X133953815Y-73043815D01*
X133874463Y-73140506D01*
X133815498Y-73250820D01*
X133779188Y-73370518D01*
X133766928Y-73495000D01*
X131037624Y-73495000D01*
X129042624Y-71500000D01*
X129125128Y-71500000D01*
X129556925Y-71414110D01*
X129963669Y-71245631D01*
X130329729Y-71001038D01*
X130641038Y-70689729D01*
X130885631Y-70323669D01*
X131054110Y-69916925D01*
X131140000Y-69485128D01*
X131140000Y-69044872D01*
X131054110Y-68613075D01*
X130885631Y-68206331D01*
X130641038Y-67840271D01*
X130329729Y-67528962D01*
X129963669Y-67284369D01*
X129556925Y-67115890D01*
X129552561Y-67115022D01*
X142825221Y-67115022D01*
X153741200Y-78031002D01*
X153764999Y-78060001D01*
X153880724Y-78154974D01*
X154012753Y-78225546D01*
X154156014Y-78269003D01*
X154267667Y-78280000D01*
X154267676Y-78280000D01*
X154304999Y-78283676D01*
X154342322Y-78280000D01*
X155260199Y-78280000D01*
X156085000Y-79104802D01*
X156085001Y-80657668D01*
X156081324Y-80695000D01*
X156095998Y-80843985D01*
X156139454Y-80987246D01*
X156210026Y-81119276D01*
X156281201Y-81206002D01*
X156305000Y-81235001D01*
X156333998Y-81258799D01*
X156673791Y-81598592D01*
X156630000Y-81818740D01*
X156630000Y-82111260D01*
X156687068Y-82398158D01*
X156799010Y-82668411D01*
X156961525Y-82911632D01*
X157168368Y-83118475D01*
X157342760Y-83235000D01*
X157168368Y-83351525D01*
X156961525Y-83558368D01*
X156799010Y-83801589D01*
X156687068Y-84071842D01*
X156630000Y-84358740D01*
X156630000Y-84651260D01*
X156687068Y-84938158D01*
X156799010Y-85208411D01*
X156961525Y-85451632D01*
X157168368Y-85658475D01*
X157411589Y-85820990D01*
X157681842Y-85932932D01*
X157968740Y-85990000D01*
X158261260Y-85990000D01*
X158548158Y-85932932D01*
X158818411Y-85820990D01*
X159061632Y-85658475D01*
X159268475Y-85451632D01*
X159430990Y-85208411D01*
X159542932Y-84938158D01*
X159600000Y-84651260D01*
X159600000Y-84358740D01*
X159542932Y-84071842D01*
X159430990Y-83801589D01*
X159268475Y-83558368D01*
X159061632Y-83351525D01*
X158887240Y-83235000D01*
X159061632Y-83118475D01*
X159268475Y-82911632D01*
X159430990Y-82668411D01*
X159542932Y-82398158D01*
X159600000Y-82111260D01*
X159600000Y-81818740D01*
X159542932Y-81531842D01*
X159430990Y-81261589D01*
X159268475Y-81018368D01*
X159061632Y-80811525D01*
X158887240Y-80695000D01*
X159061632Y-80578475D01*
X159268475Y-80371632D01*
X159430990Y-80128411D01*
X159542932Y-79858158D01*
X159600000Y-79571260D01*
X159600000Y-79278740D01*
X159556210Y-79058592D01*
X159801005Y-78813797D01*
X159830002Y-78790000D01*
X159924975Y-78674275D01*
X159995547Y-78542246D01*
X160039004Y-78398985D01*
X160050001Y-78287332D01*
X160050001Y-78287323D01*
X160053677Y-78250000D01*
X160050001Y-78212677D01*
X160050001Y-76358321D01*
X160053677Y-76320998D01*
X160050001Y-76283675D01*
X160050001Y-76283666D01*
X160039004Y-76172013D01*
X159995547Y-76028752D01*
X159924975Y-75896723D01*
X159894004Y-75858985D01*
X159853800Y-75809995D01*
X159853796Y-75809991D01*
X159830002Y-75780998D01*
X159801009Y-75757204D01*
X159529590Y-75485786D01*
X159554502Y-75439180D01*
X159590812Y-75319482D01*
X159603072Y-75195000D01*
X159600000Y-74630750D01*
X159441250Y-74472000D01*
X158242000Y-74472000D01*
X158242000Y-74492000D01*
X157988000Y-74492000D01*
X157988000Y-74472000D01*
X156788750Y-74472000D01*
X156630000Y-74630750D01*
X156628262Y-74949999D01*
X154082621Y-74949999D01*
X152627623Y-73495000D01*
X156626928Y-73495000D01*
X156630000Y-74059250D01*
X156788750Y-74218000D01*
X157988000Y-74218000D01*
X157988000Y-73018750D01*
X158242000Y-73018750D01*
X158242000Y-74218000D01*
X159441250Y-74218000D01*
X159600000Y-74059250D01*
X159603072Y-73495000D01*
X159590812Y-73370518D01*
X159554502Y-73250820D01*
X159495537Y-73140506D01*
X159416185Y-73043815D01*
X159319494Y-72964463D01*
X159209180Y-72905498D01*
X159089482Y-72869188D01*
X158965000Y-72856928D01*
X158400750Y-72860000D01*
X158242000Y-73018750D01*
X157988000Y-73018750D01*
X157829250Y-72860000D01*
X157265000Y-72856928D01*
X157140518Y-72869188D01*
X157020820Y-72905498D01*
X156910506Y-72964463D01*
X156813815Y-73043815D01*
X156734463Y-73140506D01*
X156675498Y-73250820D01*
X156639188Y-73370518D01*
X156626928Y-73495000D01*
X152627623Y-73495000D01*
X148177495Y-69044872D01*
X149530000Y-69044872D01*
X149530000Y-69485128D01*
X149615890Y-69916925D01*
X149784369Y-70323669D01*
X150028962Y-70689729D01*
X150340271Y-71001038D01*
X150706331Y-71245631D01*
X151113075Y-71414110D01*
X151544872Y-71500000D01*
X151985128Y-71500000D01*
X152416925Y-71414110D01*
X152823669Y-71245631D01*
X153189729Y-71001038D01*
X153501038Y-70689729D01*
X153745631Y-70323669D01*
X153914110Y-69916925D01*
X154000000Y-69485128D01*
X154000000Y-69044872D01*
X153914110Y-68613075D01*
X153745631Y-68206331D01*
X153501038Y-67840271D01*
X153189729Y-67528962D01*
X152823669Y-67284369D01*
X152416925Y-67115890D01*
X151985128Y-67030000D01*
X151544872Y-67030000D01*
X151113075Y-67115890D01*
X150706331Y-67284369D01*
X150340271Y-67528962D01*
X150028962Y-67840271D01*
X149784369Y-68206331D01*
X149615890Y-68613075D01*
X149530000Y-69044872D01*
X148177495Y-69044872D01*
X144076626Y-64944003D01*
X144052823Y-64914999D01*
X143937098Y-64820026D01*
X143805069Y-64749454D01*
X143661808Y-64705997D01*
X143550155Y-64695000D01*
X143550145Y-64695000D01*
X143512822Y-64691324D01*
X143475500Y-64695000D01*
X125409802Y-64695000D01*
X124777454Y-64062653D01*
X124978475Y-63861632D01*
X125095000Y-63687240D01*
X125211525Y-63861632D01*
X125418368Y-64068475D01*
X125661589Y-64230990D01*
X125931842Y-64342932D01*
X126218740Y-64400000D01*
X126511260Y-64400000D01*
X126798158Y-64342932D01*
X127068411Y-64230990D01*
X127311632Y-64068475D01*
X127518475Y-63861632D01*
X127635000Y-63687240D01*
X127751525Y-63861632D01*
X127958368Y-64068475D01*
X128201589Y-64230990D01*
X128471842Y-64342932D01*
X128758740Y-64400000D01*
X129051260Y-64400000D01*
X129338158Y-64342932D01*
X129608411Y-64230990D01*
X129851632Y-64068475D01*
X130058475Y-63861632D01*
X130175000Y-63687240D01*
X130291525Y-63861632D01*
X130498368Y-64068475D01*
X130741589Y-64230990D01*
X131011842Y-64342932D01*
X131298740Y-64400000D01*
X131591260Y-64400000D01*
X131878158Y-64342932D01*
X132148411Y-64230990D01*
X132391632Y-64068475D01*
X132598475Y-63861632D01*
X132715000Y-63687240D01*
X132831525Y-63861632D01*
X133038368Y-64068475D01*
X133281589Y-64230990D01*
X133551842Y-64342932D01*
X133838740Y-64400000D01*
X134131260Y-64400000D01*
X134418158Y-64342932D01*
X134688411Y-64230990D01*
X134931632Y-64068475D01*
X135138475Y-63861632D01*
X135255000Y-63687240D01*
X135371525Y-63861632D01*
X135578368Y-64068475D01*
X135821589Y-64230990D01*
X136091842Y-64342932D01*
X136378740Y-64400000D01*
X136671260Y-64400000D01*
X136958158Y-64342932D01*
X137228411Y-64230990D01*
X137471632Y-64068475D01*
X137678475Y-63861632D01*
X137800195Y-63679466D01*
X137869822Y-63796355D01*
X138064731Y-64012588D01*
X138298080Y-64186641D01*
X138560901Y-64311825D01*
X138708110Y-64356476D01*
X138938000Y-64235155D01*
X138938000Y-63042000D01*
X139192000Y-63042000D01*
X139192000Y-64235155D01*
X139421890Y-64356476D01*
X139569099Y-64311825D01*
X139831920Y-64186641D01*
X140065269Y-64012588D01*
X140260178Y-63796355D01*
X140409157Y-63546252D01*
X140506481Y-63271891D01*
X140385814Y-63042000D01*
X139192000Y-63042000D01*
X138938000Y-63042000D01*
X138918000Y-63042000D01*
X138918000Y-62788000D01*
X138938000Y-62788000D01*
X138938000Y-60502000D01*
X139192000Y-60502000D01*
X139192000Y-62788000D01*
X140385814Y-62788000D01*
X140506481Y-62558109D01*
X140409157Y-62283748D01*
X140260178Y-62033645D01*
X140083374Y-61837498D01*
X140159180Y-61814502D01*
X140269494Y-61755537D01*
X140366185Y-61676185D01*
X140445537Y-61579494D01*
X140504502Y-61469180D01*
X140522492Y-61409872D01*
X156515000Y-61409872D01*
X156515000Y-61850128D01*
X156600890Y-62281925D01*
X156769369Y-62688669D01*
X157013962Y-63054729D01*
X157325271Y-63366038D01*
X157691331Y-63610631D01*
X158098075Y-63779110D01*
X158529872Y-63865000D01*
X158970128Y-63865000D01*
X159401925Y-63779110D01*
X159808669Y-63610631D01*
X160174729Y-63366038D01*
X160486038Y-63054729D01*
X160730631Y-62688669D01*
X160899110Y-62281925D01*
X160985000Y-61850128D01*
X160985000Y-61409872D01*
X160899110Y-60978075D01*
X160730631Y-60571331D01*
X160486038Y-60205271D01*
X160174729Y-59893962D01*
X159808669Y-59649369D01*
X159401925Y-59480890D01*
X158970128Y-59395000D01*
X158529872Y-59395000D01*
X158098075Y-59480890D01*
X157691331Y-59649369D01*
X157325271Y-59893962D01*
X157013962Y-60205271D01*
X156769369Y-60571331D01*
X156600890Y-60978075D01*
X156515000Y-61409872D01*
X140522492Y-61409872D01*
X140540812Y-61349482D01*
X140553072Y-61225000D01*
X140550000Y-60660750D01*
X140391250Y-60502000D01*
X139192000Y-60502000D01*
X138938000Y-60502000D01*
X138918000Y-60502000D01*
X138918000Y-60248000D01*
X138938000Y-60248000D01*
X138938000Y-59048750D01*
X139192000Y-59048750D01*
X139192000Y-60248000D01*
X140391250Y-60248000D01*
X140550000Y-60089250D01*
X140553072Y-59525000D01*
X140540812Y-59400518D01*
X140504502Y-59280820D01*
X140445537Y-59170506D01*
X140366185Y-59073815D01*
X140269494Y-58994463D01*
X140159180Y-58935498D01*
X140039482Y-58899188D01*
X139915000Y-58886928D01*
X139350750Y-58890000D01*
X139192000Y-59048750D01*
X138938000Y-59048750D01*
X138779250Y-58890000D01*
X138215000Y-58886928D01*
X138090518Y-58899188D01*
X137970820Y-58935498D01*
X137860506Y-58994463D01*
X137763815Y-59073815D01*
X137684463Y-59170506D01*
X137625498Y-59280820D01*
X137603487Y-59353380D01*
X137471632Y-59221525D01*
X137228411Y-59059010D01*
X136958158Y-58947068D01*
X136671260Y-58890000D01*
X136378740Y-58890000D01*
X136091842Y-58947068D01*
X135821589Y-59059010D01*
X135578368Y-59221525D01*
X135371525Y-59428368D01*
X135255000Y-59602760D01*
X135138475Y-59428368D01*
X134931632Y-59221525D01*
X134688411Y-59059010D01*
X134418158Y-58947068D01*
X134131260Y-58890000D01*
X133838740Y-58890000D01*
X133551842Y-58947068D01*
X133281589Y-59059010D01*
X133038368Y-59221525D01*
X132831525Y-59428368D01*
X132715000Y-59602760D01*
X132598475Y-59428368D01*
X132391632Y-59221525D01*
X132148411Y-59059010D01*
X131878158Y-58947068D01*
X131591260Y-58890000D01*
X131298740Y-58890000D01*
X131011842Y-58947068D01*
X130741589Y-59059010D01*
X130498368Y-59221525D01*
X130291525Y-59428368D01*
X130175000Y-59602760D01*
X130058475Y-59428368D01*
X129851632Y-59221525D01*
X129608411Y-59059010D01*
X129338158Y-58947068D01*
X129051260Y-58890000D01*
X128758740Y-58890000D01*
X128471842Y-58947068D01*
X128201589Y-59059010D01*
X127958368Y-59221525D01*
X127751525Y-59428368D01*
X127635000Y-59602760D01*
X127518475Y-59428368D01*
X127311632Y-59221525D01*
X127068411Y-59059010D01*
X126798158Y-58947068D01*
X126511260Y-58890000D01*
X126218740Y-58890000D01*
X125931842Y-58947068D01*
X125661589Y-59059010D01*
X125418368Y-59221525D01*
X125211525Y-59428368D01*
X125095000Y-59602760D01*
X124978475Y-59428368D01*
X124771632Y-59221525D01*
X124528411Y-59059010D01*
X124258158Y-58947068D01*
X123971260Y-58890000D01*
X123678740Y-58890000D01*
X123391842Y-58947068D01*
X123121589Y-59059010D01*
X122878368Y-59221525D01*
X122671525Y-59428368D01*
X122555000Y-59602760D01*
X122438475Y-59428368D01*
X122231632Y-59221525D01*
X121988411Y-59059010D01*
X121718158Y-58947068D01*
X121431260Y-58890000D01*
X121138740Y-58890000D01*
X120851842Y-58947068D01*
X120581589Y-59059010D01*
X120338368Y-59221525D01*
X120131525Y-59428368D01*
X120015000Y-59602760D01*
X119898475Y-59428368D01*
X119691632Y-59221525D01*
X119448411Y-59059010D01*
X119178158Y-58947068D01*
X118891260Y-58890000D01*
X118598740Y-58890000D01*
X118311842Y-58947068D01*
X118041589Y-59059010D01*
X117798368Y-59221525D01*
X117591525Y-59428368D01*
X117475000Y-59602760D01*
X117358475Y-59428368D01*
X117151632Y-59221525D01*
X116908411Y-59059010D01*
X116638158Y-58947068D01*
X116351260Y-58890000D01*
X116058740Y-58890000D01*
X115771842Y-58947068D01*
X115501589Y-59059010D01*
X115258368Y-59221525D01*
X115051525Y-59428368D01*
X114935000Y-59602760D01*
X114818475Y-59428368D01*
X114611632Y-59221525D01*
X114368411Y-59059010D01*
X114098158Y-58947068D01*
X113811260Y-58890000D01*
X113518740Y-58890000D01*
X113231842Y-58947068D01*
X112961589Y-59059010D01*
X112718368Y-59221525D01*
X112511525Y-59428368D01*
X112395000Y-59602760D01*
X112278475Y-59428368D01*
X112071632Y-59221525D01*
X111828411Y-59059010D01*
X111558158Y-58947068D01*
X111271260Y-58890000D01*
X110978740Y-58890000D01*
X110691842Y-58947068D01*
X110421589Y-59059010D01*
X110178368Y-59221525D01*
X109971525Y-59428368D01*
X109855000Y-59602760D01*
X109738475Y-59428368D01*
X109531632Y-59221525D01*
X109288411Y-59059010D01*
X109018158Y-58947068D01*
X108731260Y-58890000D01*
X108438740Y-58890000D01*
X108151842Y-58947068D01*
X107881589Y-59059010D01*
X107638368Y-59221525D01*
X107431525Y-59428368D01*
X107315000Y-59602760D01*
X107198475Y-59428368D01*
X106991632Y-59221525D01*
X106748411Y-59059010D01*
X106478158Y-58947068D01*
X106191260Y-58890000D01*
X105898740Y-58890000D01*
X105611842Y-58947068D01*
X105341589Y-59059010D01*
X105098368Y-59221525D01*
X104891525Y-59428368D01*
X104775000Y-59602760D01*
X104658475Y-59428368D01*
X104451632Y-59221525D01*
X104208411Y-59059010D01*
X103938158Y-58947068D01*
X103651260Y-58890000D01*
X103358740Y-58890000D01*
X103071842Y-58947068D01*
X102801589Y-59059010D01*
X102558368Y-59221525D01*
X102351525Y-59428368D01*
X102235000Y-59602760D01*
X102118475Y-59428368D01*
X101911632Y-59221525D01*
X101668411Y-59059010D01*
X101398158Y-58947068D01*
X101111260Y-58890000D01*
X100818740Y-58890000D01*
X100531842Y-58947068D01*
X100261589Y-59059010D01*
X100018368Y-59221525D01*
X99811525Y-59428368D01*
X99695000Y-59602760D01*
X99578475Y-59428368D01*
X99371632Y-59221525D01*
X99128411Y-59059010D01*
X98858158Y-58947068D01*
X98571260Y-58890000D01*
X98278740Y-58890000D01*
X97991842Y-58947068D01*
X97721589Y-59059010D01*
X97478368Y-59221525D01*
X97271525Y-59428368D01*
X97155000Y-59602760D01*
X97038475Y-59428368D01*
X96831632Y-59221525D01*
X96588411Y-59059010D01*
X96318158Y-58947068D01*
X96031260Y-58890000D01*
X95738740Y-58890000D01*
X95451842Y-58947068D01*
X95181589Y-59059010D01*
X94938368Y-59221525D01*
X94731525Y-59428368D01*
X94569010Y-59671589D01*
X94457068Y-59941842D01*
X94400000Y-60228740D01*
X94400000Y-60521260D01*
X94457068Y-60808158D01*
X94569010Y-61078411D01*
X94731525Y-61321632D01*
X94938368Y-61528475D01*
X95112760Y-61645000D01*
X94938368Y-61761525D01*
X94731525Y-61968368D01*
X94569010Y-62211589D01*
X94457068Y-62481842D01*
X94400000Y-62768740D01*
X94400000Y-63061260D01*
X94457068Y-63348158D01*
X94569010Y-63618411D01*
X94731525Y-63861632D01*
X94938368Y-64068475D01*
X95181589Y-64230990D01*
X95451842Y-64342932D01*
X95738740Y-64400000D01*
X96031260Y-64400000D01*
X96318158Y-64342932D01*
X96588411Y-64230990D01*
X96831632Y-64068475D01*
X97038475Y-63861632D01*
X97155000Y-63687240D01*
X97271525Y-63861632D01*
X97478368Y-64068475D01*
X97665001Y-64193179D01*
X97665000Y-67677376D01*
X91020000Y-74322376D01*
X91020000Y-74217998D01*
X90861252Y-74217998D01*
X91020000Y-74059250D01*
X91023072Y-73495000D01*
X91010812Y-73370518D01*
X90974502Y-73250820D01*
X90915537Y-73140506D01*
X90836185Y-73043815D01*
X90739494Y-72964463D01*
X90629180Y-72905498D01*
X90509482Y-72869188D01*
X90385000Y-72856928D01*
X89820750Y-72860000D01*
X89662000Y-73018750D01*
X89662000Y-74218000D01*
X89682000Y-74218000D01*
X89682000Y-74472000D01*
X89662000Y-74472000D01*
X89662000Y-74492000D01*
X89408000Y-74492000D01*
X89408000Y-74472000D01*
X88208750Y-74472000D01*
X88050000Y-74630750D01*
X88046928Y-75195000D01*
X73100000Y-75195000D01*
X73100000Y-73495000D01*
X88046928Y-73495000D01*
X88050000Y-74059250D01*
X88208750Y-74218000D01*
X89408000Y-74218000D01*
X89408000Y-73018750D01*
X89249250Y-72860000D01*
X88685000Y-72856928D01*
X88560518Y-72869188D01*
X88440820Y-72905498D01*
X88330506Y-72964463D01*
X88233815Y-73043815D01*
X88154463Y-73140506D01*
X88095498Y-73250820D01*
X88059188Y-73370518D01*
X88046928Y-73495000D01*
X73100000Y-73495000D01*
X73100000Y-69044872D01*
X80950000Y-69044872D01*
X80950000Y-69485128D01*
X81035890Y-69916925D01*
X81204369Y-70323669D01*
X81448962Y-70689729D01*
X81760271Y-71001038D01*
X82126331Y-71245631D01*
X82533075Y-71414110D01*
X82964872Y-71500000D01*
X83405128Y-71500000D01*
X83836925Y-71414110D01*
X84243669Y-71245631D01*
X84609729Y-71001038D01*
X84921038Y-70689729D01*
X85165631Y-70323669D01*
X85334110Y-69916925D01*
X85420000Y-69485128D01*
X85420000Y-69044872D01*
X85334110Y-68613075D01*
X85165631Y-68206331D01*
X84921038Y-67840271D01*
X84609729Y-67528962D01*
X84243669Y-67284369D01*
X83836925Y-67115890D01*
X83405128Y-67030000D01*
X82964872Y-67030000D01*
X82533075Y-67115890D01*
X82126331Y-67284369D01*
X81760271Y-67528962D01*
X81448962Y-67840271D01*
X81204369Y-68206331D01*
X81035890Y-68613075D01*
X80950000Y-69044872D01*
X73100000Y-69044872D01*
X73100000Y-61424872D01*
X73965000Y-61424872D01*
X73965000Y-61865128D01*
X74050890Y-62296925D01*
X74219369Y-62703669D01*
X74463962Y-63069729D01*
X74775271Y-63381038D01*
X75141331Y-63625631D01*
X75548075Y-63794110D01*
X75979872Y-63880000D01*
X76420128Y-63880000D01*
X76851925Y-63794110D01*
X77258669Y-63625631D01*
X77624729Y-63381038D01*
X77936038Y-63069729D01*
X78180631Y-62703669D01*
X78349110Y-62296925D01*
X78435000Y-61865128D01*
X78435000Y-61424872D01*
X78349110Y-60993075D01*
X78180631Y-60586331D01*
X78083894Y-60441553D01*
X82279009Y-60441553D01*
X82321603Y-60740907D01*
X82421778Y-61026199D01*
X82501739Y-61175792D01*
X82755918Y-61259474D01*
X82639970Y-61375422D01*
X82686735Y-61422187D01*
X82675820Y-61425498D01*
X82565506Y-61484463D01*
X82468815Y-61563815D01*
X82389463Y-61660506D01*
X82330498Y-61770820D01*
X82294188Y-61890518D01*
X82281928Y-62015000D01*
X82281928Y-63815000D01*
X82294188Y-63939482D01*
X82330498Y-64059180D01*
X82389463Y-64169494D01*
X82468815Y-64266185D01*
X82565506Y-64345537D01*
X82675820Y-64404502D01*
X82795518Y-64440812D01*
X82920000Y-64453072D01*
X84720000Y-64453072D01*
X84844482Y-64440812D01*
X84964180Y-64404502D01*
X85074494Y-64345537D01*
X85171185Y-64266185D01*
X85250537Y-64169494D01*
X85309502Y-64059180D01*
X85345812Y-63939482D01*
X85358072Y-63815000D01*
X85358072Y-63675000D01*
X86535566Y-63675000D01*
X86593038Y-63761013D01*
X86778987Y-63946962D01*
X86997641Y-64093061D01*
X87240595Y-64193696D01*
X87498514Y-64245000D01*
X87761486Y-64245000D01*
X88019405Y-64193696D01*
X88262359Y-64093061D01*
X88481013Y-63946962D01*
X88666962Y-63761013D01*
X88813061Y-63542359D01*
X88913696Y-63299405D01*
X88965000Y-63041486D01*
X88965000Y-62778514D01*
X88913696Y-62520595D01*
X88813061Y-62277641D01*
X88666962Y-62058987D01*
X88567975Y-61960000D01*
X88666962Y-61861013D01*
X88813061Y-61642359D01*
X88913696Y-61399405D01*
X88948387Y-61225000D01*
X89316928Y-61225000D01*
X89329188Y-61349482D01*
X89365498Y-61469180D01*
X89424463Y-61579494D01*
X89503815Y-61676185D01*
X89600506Y-61755537D01*
X89710820Y-61814502D01*
X89783380Y-61836513D01*
X89651525Y-61968368D01*
X89489010Y-62211589D01*
X89377068Y-62481842D01*
X89320000Y-62768740D01*
X89320000Y-63061260D01*
X89377068Y-63348158D01*
X89489010Y-63618411D01*
X89651525Y-63861632D01*
X89858368Y-64068475D01*
X90101589Y-64230990D01*
X90371842Y-64342932D01*
X90658740Y-64400000D01*
X90951260Y-64400000D01*
X91238158Y-64342932D01*
X91508411Y-64230990D01*
X91751632Y-64068475D01*
X91958475Y-63861632D01*
X92120990Y-63618411D01*
X92232932Y-63348158D01*
X92290000Y-63061260D01*
X92290000Y-62768740D01*
X92232932Y-62481842D01*
X92120990Y-62211589D01*
X91958475Y-61968368D01*
X91826620Y-61836513D01*
X91899180Y-61814502D01*
X92009494Y-61755537D01*
X92106185Y-61676185D01*
X92185537Y-61579494D01*
X92244502Y-61469180D01*
X92280812Y-61349482D01*
X92293072Y-61225000D01*
X92290000Y-60660750D01*
X92131250Y-60502000D01*
X90932000Y-60502000D01*
X90932000Y-60522000D01*
X90678000Y-60522000D01*
X90678000Y-60502000D01*
X89478750Y-60502000D01*
X89320000Y-60660750D01*
X89316928Y-61225000D01*
X88948387Y-61225000D01*
X88965000Y-61141486D01*
X88965000Y-60878514D01*
X88913696Y-60620595D01*
X88813061Y-60377641D01*
X88666962Y-60158987D01*
X88481013Y-59973038D01*
X88262359Y-59826939D01*
X88019405Y-59726304D01*
X87761486Y-59675000D01*
X87498514Y-59675000D01*
X87240595Y-59726304D01*
X86997641Y-59826939D01*
X86778987Y-59973038D01*
X86593038Y-60158987D01*
X86446939Y-60377641D01*
X86346304Y-60620595D01*
X86295000Y-60878514D01*
X86295000Y-61141486D01*
X86346304Y-61399405D01*
X86446939Y-61642359D01*
X86593038Y-61861013D01*
X86692025Y-61960000D01*
X86593038Y-62058987D01*
X86528885Y-62155000D01*
X85358072Y-62155000D01*
X85358072Y-62015000D01*
X85345812Y-61890518D01*
X85309502Y-61770820D01*
X85250537Y-61660506D01*
X85171185Y-61563815D01*
X85074494Y-61484463D01*
X84964180Y-61425498D01*
X84953265Y-61422187D01*
X85000030Y-61375422D01*
X84884082Y-61259474D01*
X85138261Y-61175792D01*
X85269158Y-60903225D01*
X85344365Y-60610358D01*
X85360991Y-60308447D01*
X85318397Y-60009093D01*
X85218222Y-59723801D01*
X85138261Y-59574208D01*
X84988796Y-59525000D01*
X89316928Y-59525000D01*
X89320000Y-60089250D01*
X89478750Y-60248000D01*
X90678000Y-60248000D01*
X90678000Y-59048750D01*
X90932000Y-59048750D01*
X90932000Y-60248000D01*
X92131250Y-60248000D01*
X92290000Y-60089250D01*
X92293072Y-59525000D01*
X92280812Y-59400518D01*
X92244502Y-59280820D01*
X92185537Y-59170506D01*
X92106185Y-59073815D01*
X92009494Y-58994463D01*
X91899180Y-58935498D01*
X91779482Y-58899188D01*
X91655000Y-58886928D01*
X91090750Y-58890000D01*
X90932000Y-59048750D01*
X90678000Y-59048750D01*
X90519250Y-58890000D01*
X89955000Y-58886928D01*
X89830518Y-58899188D01*
X89710820Y-58935498D01*
X89600506Y-58994463D01*
X89503815Y-59073815D01*
X89424463Y-59170506D01*
X89365498Y-59280820D01*
X89329188Y-59400518D01*
X89316928Y-59525000D01*
X84988796Y-59525000D01*
X84884080Y-59490525D01*
X83999605Y-60375000D01*
X84013748Y-60389143D01*
X83834143Y-60568748D01*
X83820000Y-60554605D01*
X83805858Y-60568748D01*
X83626253Y-60389143D01*
X83640395Y-60375000D01*
X82755920Y-59490525D01*
X82501739Y-59574208D01*
X82370842Y-59846775D01*
X82295635Y-60139642D01*
X82279009Y-60441553D01*
X78083894Y-60441553D01*
X77936038Y-60220271D01*
X77624729Y-59908962D01*
X77258669Y-59664369D01*
X76851925Y-59495890D01*
X76420128Y-59410000D01*
X75979872Y-59410000D01*
X75548075Y-59495890D01*
X75141331Y-59664369D01*
X74775271Y-59908962D01*
X74463962Y-60220271D01*
X74219369Y-60586331D01*
X74050890Y-60993075D01*
X73965000Y-61424872D01*
X73100000Y-61424872D01*
X73100000Y-59310920D01*
X82935525Y-59310920D01*
X83820000Y-60195395D01*
X84704475Y-59310920D01*
X84620792Y-59056739D01*
X84348225Y-58925842D01*
X84055358Y-58850635D01*
X83753447Y-58834009D01*
X83454093Y-58876603D01*
X83168801Y-58976778D01*
X83019208Y-59056739D01*
X82935525Y-59310920D01*
X73100000Y-59310920D01*
X73100000Y-58530118D01*
X161850001Y-58544881D01*
%TA.AperFunction,Conductor*%
D18*
G36*
X161850001Y-58544881D02*
G01*
X161850000Y-133310119D01*
X73100000Y-133324882D01*
X73100000Y-130004872D01*
X73965000Y-130004872D01*
X73965000Y-130445128D01*
X74050890Y-130876925D01*
X74219369Y-131283669D01*
X74463962Y-131649729D01*
X74775271Y-131961038D01*
X75141331Y-132205631D01*
X75548075Y-132374110D01*
X75979872Y-132460000D01*
X76420128Y-132460000D01*
X76851925Y-132374110D01*
X77258669Y-132205631D01*
X77624729Y-131961038D01*
X77936038Y-131649729D01*
X78180631Y-131283669D01*
X78349110Y-130876925D01*
X78435000Y-130445128D01*
X78435000Y-130004872D01*
X156515000Y-130004872D01*
X156515000Y-130445128D01*
X156600890Y-130876925D01*
X156769369Y-131283669D01*
X157013962Y-131649729D01*
X157325271Y-131961038D01*
X157691331Y-132205631D01*
X158098075Y-132374110D01*
X158529872Y-132460000D01*
X158970128Y-132460000D01*
X159401925Y-132374110D01*
X159808669Y-132205631D01*
X160174729Y-131961038D01*
X160486038Y-131649729D01*
X160730631Y-131283669D01*
X160899110Y-130876925D01*
X160985000Y-130445128D01*
X160985000Y-130004872D01*
X160899110Y-129573075D01*
X160730631Y-129166331D01*
X160486038Y-128800271D01*
X160174729Y-128488962D01*
X159808669Y-128244369D01*
X159401925Y-128075890D01*
X158970128Y-127990000D01*
X158529872Y-127990000D01*
X158098075Y-128075890D01*
X157691331Y-128244369D01*
X157325271Y-128488962D01*
X157013962Y-128800271D01*
X156769369Y-129166331D01*
X156600890Y-129573075D01*
X156515000Y-130004872D01*
X78435000Y-130004872D01*
X78349110Y-129573075D01*
X78180631Y-129166331D01*
X77936038Y-128800271D01*
X77624729Y-128488962D01*
X77258669Y-128244369D01*
X76851925Y-128075890D01*
X76420128Y-127990000D01*
X75979872Y-127990000D01*
X75548075Y-128075890D01*
X75141331Y-128244369D01*
X74775271Y-128488962D01*
X74463962Y-128800271D01*
X74219369Y-129166331D01*
X74050890Y-129573075D01*
X73965000Y-130004872D01*
X73100000Y-130004872D01*
X73100000Y-122384872D01*
X80950000Y-122384872D01*
X80950000Y-122825128D01*
X81035890Y-123256925D01*
X81204369Y-123663669D01*
X81448962Y-124029729D01*
X81760271Y-124341038D01*
X82126331Y-124585631D01*
X82533075Y-124754110D01*
X82964872Y-124840000D01*
X83405128Y-124840000D01*
X83836925Y-124754110D01*
X84243669Y-124585631D01*
X84609729Y-124341038D01*
X84921038Y-124029729D01*
X85165631Y-123663669D01*
X85334110Y-123256925D01*
X85420000Y-122825128D01*
X85420000Y-122384872D01*
X103810000Y-122384872D01*
X103810000Y-122825128D01*
X103895890Y-123256925D01*
X104064369Y-123663669D01*
X104308962Y-124029729D01*
X104620271Y-124341038D01*
X104986331Y-124585631D01*
X105393075Y-124754110D01*
X105824872Y-124840000D01*
X106265128Y-124840000D01*
X106696925Y-124754110D01*
X107103669Y-124585631D01*
X107469729Y-124341038D01*
X107781038Y-124029729D01*
X108025631Y-123663669D01*
X108194110Y-123256925D01*
X108280000Y-122825128D01*
X108280000Y-122384872D01*
X126670000Y-122384872D01*
X126670000Y-122825128D01*
X126755890Y-123256925D01*
X126924369Y-123663669D01*
X127168962Y-124029729D01*
X127480271Y-124341038D01*
X127846331Y-124585631D01*
X128253075Y-124754110D01*
X128684872Y-124840000D01*
X129125128Y-124840000D01*
X129556925Y-124754110D01*
X129963669Y-124585631D01*
X130329729Y-124341038D01*
X130641038Y-124029729D01*
X130885631Y-123663669D01*
X131054110Y-123256925D01*
X131140000Y-122825128D01*
X131140000Y-122384872D01*
X149530000Y-122384872D01*
X149530000Y-122825128D01*
X149615890Y-123256925D01*
X149784369Y-123663669D01*
X150028962Y-124029729D01*
X150340271Y-124341038D01*
X150706331Y-124585631D01*
X151113075Y-124754110D01*
X151544872Y-124840000D01*
X151985128Y-124840000D01*
X152416925Y-124754110D01*
X152823669Y-124585631D01*
X153189729Y-124341038D01*
X153501038Y-124029729D01*
X153745631Y-123663669D01*
X153914110Y-123256925D01*
X154000000Y-122825128D01*
X154000000Y-122384872D01*
X153914110Y-121953075D01*
X153745631Y-121546331D01*
X153501038Y-121180271D01*
X153189729Y-120868962D01*
X152823669Y-120624369D01*
X152416925Y-120455890D01*
X151985128Y-120370000D01*
X151544872Y-120370000D01*
X151113075Y-120455890D01*
X150706331Y-120624369D01*
X150340271Y-120868962D01*
X150028962Y-121180271D01*
X149784369Y-121546331D01*
X149615890Y-121953075D01*
X149530000Y-122384872D01*
X131140000Y-122384872D01*
X131054110Y-121953075D01*
X130885631Y-121546331D01*
X130641038Y-121180271D01*
X130329729Y-120868962D01*
X129963669Y-120624369D01*
X129556925Y-120455890D01*
X129125128Y-120370000D01*
X128684872Y-120370000D01*
X128253075Y-120455890D01*
X127846331Y-120624369D01*
X127480271Y-120868962D01*
X127168962Y-121180271D01*
X126924369Y-121546331D01*
X126755890Y-121953075D01*
X126670000Y-122384872D01*
X108280000Y-122384872D01*
X108194110Y-121953075D01*
X108025631Y-121546331D01*
X107781038Y-121180271D01*
X107469729Y-120868962D01*
X107103669Y-120624369D01*
X106696925Y-120455890D01*
X106265128Y-120370000D01*
X105824872Y-120370000D01*
X105393075Y-120455890D01*
X104986331Y-120624369D01*
X104620271Y-120868962D01*
X104308962Y-121180271D01*
X104064369Y-121546331D01*
X103895890Y-121953075D01*
X103810000Y-122384872D01*
X85420000Y-122384872D01*
X85334110Y-121953075D01*
X85165631Y-121546331D01*
X84921038Y-121180271D01*
X84609729Y-120868962D01*
X84243669Y-120624369D01*
X83836925Y-120455890D01*
X83405128Y-120370000D01*
X82964872Y-120370000D01*
X82533075Y-120455890D01*
X82126331Y-120624369D01*
X81760271Y-120868962D01*
X81448962Y-121180271D01*
X81204369Y-121546331D01*
X81035890Y-121953075D01*
X80950000Y-122384872D01*
X73100000Y-122384872D01*
X73100000Y-108215000D01*
X88046928Y-108215000D01*
X88059188Y-108339482D01*
X88095498Y-108459180D01*
X88154463Y-108569494D01*
X88233815Y-108666185D01*
X88330506Y-108745537D01*
X88440820Y-108804502D01*
X88513380Y-108826513D01*
X88381525Y-108958368D01*
X88219010Y-109201589D01*
X88107068Y-109471842D01*
X88050000Y-109758740D01*
X88050000Y-110051260D01*
X88107068Y-110338158D01*
X88219010Y-110608411D01*
X88381525Y-110851632D01*
X88588368Y-111058475D01*
X88762760Y-111175000D01*
X88588368Y-111291525D01*
X88381525Y-111498368D01*
X88219010Y-111741589D01*
X88107068Y-112011842D01*
X88050000Y-112298740D01*
X88050000Y-112591260D01*
X88107068Y-112878158D01*
X88219010Y-113148411D01*
X88381525Y-113391632D01*
X88588368Y-113598475D01*
X88762760Y-113715000D01*
X88588368Y-113831525D01*
X88381525Y-114038368D01*
X88219010Y-114281589D01*
X88107068Y-114551842D01*
X88050000Y-114838740D01*
X88050000Y-115131260D01*
X88107068Y-115418158D01*
X88219010Y-115688411D01*
X88381525Y-115931632D01*
X88588368Y-116138475D01*
X88762760Y-116255000D01*
X88588368Y-116371525D01*
X88381525Y-116578368D01*
X88219010Y-116821589D01*
X88107068Y-117091842D01*
X88050000Y-117378740D01*
X88050000Y-117671260D01*
X88107068Y-117958158D01*
X88219010Y-118228411D01*
X88381525Y-118471632D01*
X88588368Y-118678475D01*
X88831589Y-118840990D01*
X89101842Y-118952932D01*
X89388740Y-119010000D01*
X89681260Y-119010000D01*
X89968158Y-118952932D01*
X90238411Y-118840990D01*
X90481632Y-118678475D01*
X90688475Y-118471632D01*
X90850990Y-118228411D01*
X90962932Y-117958158D01*
X91020000Y-117671260D01*
X91020000Y-117378740D01*
X90962932Y-117091842D01*
X90850990Y-116821589D01*
X90688475Y-116578368D01*
X90481632Y-116371525D01*
X90307240Y-116255000D01*
X90481632Y-116138475D01*
X90688475Y-115931632D01*
X90850990Y-115688411D01*
X90962932Y-115418158D01*
X91020000Y-115131260D01*
X91020000Y-114838740D01*
X90962932Y-114551842D01*
X90850990Y-114281589D01*
X90688475Y-114038368D01*
X90481632Y-113831525D01*
X90307240Y-113715000D01*
X90481632Y-113598475D01*
X90688475Y-113391632D01*
X90850990Y-113148411D01*
X90962932Y-112878158D01*
X91020000Y-112591260D01*
X91020000Y-112298740D01*
X90962932Y-112011842D01*
X90850990Y-111741589D01*
X90688475Y-111498368D01*
X90481632Y-111291525D01*
X90307240Y-111175000D01*
X90481632Y-111058475D01*
X90688475Y-110851632D01*
X90850990Y-110608411D01*
X90962932Y-110338158D01*
X91020000Y-110051260D01*
X91020000Y-109758740D01*
X90962932Y-109471842D01*
X90850990Y-109201589D01*
X90688475Y-108958368D01*
X90556620Y-108826513D01*
X90629180Y-108804502D01*
X90739494Y-108745537D01*
X90836185Y-108666185D01*
X90915537Y-108569494D01*
X90974502Y-108459180D01*
X91010812Y-108339482D01*
X91023072Y-108215000D01*
X110906928Y-108215000D01*
X110919188Y-108339482D01*
X110955498Y-108459180D01*
X111014463Y-108569494D01*
X111093815Y-108666185D01*
X111190506Y-108745537D01*
X111300820Y-108804502D01*
X111373380Y-108826513D01*
X111241525Y-108958368D01*
X111079010Y-109201589D01*
X110967068Y-109471842D01*
X110910000Y-109758740D01*
X110910000Y-110051260D01*
X110967068Y-110338158D01*
X111079010Y-110608411D01*
X111241525Y-110851632D01*
X111448368Y-111058475D01*
X111622760Y-111175000D01*
X111448368Y-111291525D01*
X111241525Y-111498368D01*
X111079010Y-111741589D01*
X110967068Y-112011842D01*
X110910000Y-112298740D01*
X110910000Y-112591260D01*
X110967068Y-112878158D01*
X111079010Y-113148411D01*
X111241525Y-113391632D01*
X111448368Y-113598475D01*
X111622760Y-113715000D01*
X111448368Y-113831525D01*
X111241525Y-114038368D01*
X111079010Y-114281589D01*
X110967068Y-114551842D01*
X110910000Y-114838740D01*
X110910000Y-115131260D01*
X110967068Y-115418158D01*
X111079010Y-115688411D01*
X111241525Y-115931632D01*
X111448368Y-116138475D01*
X111622760Y-116255000D01*
X111448368Y-116371525D01*
X111241525Y-116578368D01*
X111079010Y-116821589D01*
X110967068Y-117091842D01*
X110910000Y-117378740D01*
X110910000Y-117671260D01*
X110967068Y-117958158D01*
X111079010Y-118228411D01*
X111241525Y-118471632D01*
X111448368Y-118678475D01*
X111691589Y-118840990D01*
X111961842Y-118952932D01*
X112248740Y-119010000D01*
X112541260Y-119010000D01*
X112828158Y-118952932D01*
X113098411Y-118840990D01*
X113341632Y-118678475D01*
X113548475Y-118471632D01*
X113710990Y-118228411D01*
X113822932Y-117958158D01*
X113880000Y-117671260D01*
X113880000Y-117378740D01*
X113822932Y-117091842D01*
X113710990Y-116821589D01*
X113548475Y-116578368D01*
X113341632Y-116371525D01*
X113167240Y-116255000D01*
X113341632Y-116138475D01*
X113548475Y-115931632D01*
X113710990Y-115688411D01*
X113822932Y-115418158D01*
X113880000Y-115131260D01*
X113880000Y-114838740D01*
X113822932Y-114551842D01*
X113710990Y-114281589D01*
X113548475Y-114038368D01*
X113341632Y-113831525D01*
X113167240Y-113715000D01*
X113341632Y-113598475D01*
X113548475Y-113391632D01*
X113710990Y-113148411D01*
X113822932Y-112878158D01*
X113880000Y-112591260D01*
X113880000Y-112298740D01*
X113822932Y-112011842D01*
X113710990Y-111741589D01*
X113548475Y-111498368D01*
X113341632Y-111291525D01*
X113167240Y-111175000D01*
X113341632Y-111058475D01*
X113548475Y-110851632D01*
X113710990Y-110608411D01*
X113822932Y-110338158D01*
X113880000Y-110051260D01*
X113880000Y-109758740D01*
X113822932Y-109471842D01*
X113710990Y-109201589D01*
X113548475Y-108958368D01*
X113416620Y-108826513D01*
X113489180Y-108804502D01*
X113599494Y-108745537D01*
X113696185Y-108666185D01*
X113775537Y-108569494D01*
X113834502Y-108459180D01*
X113870812Y-108339482D01*
X113883072Y-108215000D01*
X133766928Y-108215000D01*
X133779188Y-108339482D01*
X133815498Y-108459180D01*
X133874463Y-108569494D01*
X133953815Y-108666185D01*
X134050506Y-108745537D01*
X134160820Y-108804502D01*
X134233380Y-108826513D01*
X134101525Y-108958368D01*
X133939010Y-109201589D01*
X133827068Y-109471842D01*
X133770000Y-109758740D01*
X133770000Y-110051260D01*
X133827068Y-110338158D01*
X133939010Y-110608411D01*
X134101525Y-110851632D01*
X134308368Y-111058475D01*
X134482760Y-111175000D01*
X134308368Y-111291525D01*
X134101525Y-111498368D01*
X133939010Y-111741589D01*
X133827068Y-112011842D01*
X133770000Y-112298740D01*
X133770000Y-112591260D01*
X133827068Y-112878158D01*
X133939010Y-113148411D01*
X134101525Y-113391632D01*
X134308368Y-113598475D01*
X134482760Y-113715000D01*
X134308368Y-113831525D01*
X134101525Y-114038368D01*
X133939010Y-114281589D01*
X133827068Y-114551842D01*
X133770000Y-114838740D01*
X133770000Y-115131260D01*
X133827068Y-115418158D01*
X133939010Y-115688411D01*
X134101525Y-115931632D01*
X134308368Y-116138475D01*
X134482760Y-116255000D01*
X134308368Y-116371525D01*
X134101525Y-116578368D01*
X133939010Y-116821589D01*
X133827068Y-117091842D01*
X133770000Y-117378740D01*
X133770000Y-117671260D01*
X133827068Y-117958158D01*
X133939010Y-118228411D01*
X134101525Y-118471632D01*
X134308368Y-118678475D01*
X134551589Y-118840990D01*
X134821842Y-118952932D01*
X135108740Y-119010000D01*
X135401260Y-119010000D01*
X135688158Y-118952932D01*
X135958411Y-118840990D01*
X136201632Y-118678475D01*
X136408475Y-118471632D01*
X136570990Y-118228411D01*
X136682932Y-117958158D01*
X136740000Y-117671260D01*
X136740000Y-117378740D01*
X136682932Y-117091842D01*
X136570990Y-116821589D01*
X136408475Y-116578368D01*
X136201632Y-116371525D01*
X136027240Y-116255000D01*
X136201632Y-116138475D01*
X136408475Y-115931632D01*
X136570990Y-115688411D01*
X136682932Y-115418158D01*
X136740000Y-115131260D01*
X136740000Y-114838740D01*
X136682932Y-114551842D01*
X136570990Y-114281589D01*
X136408475Y-114038368D01*
X136201632Y-113831525D01*
X136027240Y-113715000D01*
X136201632Y-113598475D01*
X136408475Y-113391632D01*
X136570990Y-113148411D01*
X136682932Y-112878158D01*
X136740000Y-112591260D01*
X136740000Y-112298740D01*
X136682932Y-112011842D01*
X136570990Y-111741589D01*
X136408475Y-111498368D01*
X136201632Y-111291525D01*
X136027240Y-111175000D01*
X136201632Y-111058475D01*
X136408475Y-110851632D01*
X136570990Y-110608411D01*
X136682932Y-110338158D01*
X136740000Y-110051260D01*
X136740000Y-109758740D01*
X136682932Y-109471842D01*
X136570990Y-109201589D01*
X136408475Y-108958368D01*
X136276620Y-108826513D01*
X136349180Y-108804502D01*
X136459494Y-108745537D01*
X136556185Y-108666185D01*
X136635537Y-108569494D01*
X136694502Y-108459180D01*
X136730812Y-108339482D01*
X136743072Y-108215000D01*
X156626928Y-108215000D01*
X156639188Y-108339482D01*
X156675498Y-108459180D01*
X156734463Y-108569494D01*
X156813815Y-108666185D01*
X156910506Y-108745537D01*
X157020820Y-108804502D01*
X157093380Y-108826513D01*
X156961525Y-108958368D01*
X156799010Y-109201589D01*
X156687068Y-109471842D01*
X156630000Y-109758740D01*
X156630000Y-110051260D01*
X156687068Y-110338158D01*
X156799010Y-110608411D01*
X156961525Y-110851632D01*
X157168368Y-111058475D01*
X157342760Y-111175000D01*
X157168368Y-111291525D01*
X156961525Y-111498368D01*
X156799010Y-111741589D01*
X156687068Y-112011842D01*
X156630000Y-112298740D01*
X156630000Y-112591260D01*
X156687068Y-112878158D01*
X156799010Y-113148411D01*
X156961525Y-113391632D01*
X157168368Y-113598475D01*
X157342760Y-113715000D01*
X157168368Y-113831525D01*
X156961525Y-114038368D01*
X156799010Y-114281589D01*
X156687068Y-114551842D01*
X156630000Y-114838740D01*
X156630000Y-115131260D01*
X156687068Y-115418158D01*
X156799010Y-115688411D01*
X156961525Y-115931632D01*
X157168368Y-116138475D01*
X157342760Y-116255000D01*
X157168368Y-116371525D01*
X156961525Y-116578368D01*
X156799010Y-116821589D01*
X156687068Y-117091842D01*
X156630000Y-117378740D01*
X156630000Y-117671260D01*
X156687068Y-117958158D01*
X156799010Y-118228411D01*
X156961525Y-118471632D01*
X157168368Y-118678475D01*
X157411589Y-118840990D01*
X157681842Y-118952932D01*
X157968740Y-119010000D01*
X158261260Y-119010000D01*
X158548158Y-118952932D01*
X158818411Y-118840990D01*
X159061632Y-118678475D01*
X159268475Y-118471632D01*
X159430990Y-118228411D01*
X159542932Y-117958158D01*
X159600000Y-117671260D01*
X159600000Y-117378740D01*
X159542932Y-117091842D01*
X159430990Y-116821589D01*
X159268475Y-116578368D01*
X159061632Y-116371525D01*
X158887240Y-116255000D01*
X159061632Y-116138475D01*
X159268475Y-115931632D01*
X159430990Y-115688411D01*
X159542932Y-115418158D01*
X159600000Y-115131260D01*
X159600000Y-114838740D01*
X159542932Y-114551842D01*
X159430990Y-114281589D01*
X159268475Y-114038368D01*
X159061632Y-113831525D01*
X158887240Y-113715000D01*
X159061632Y-113598475D01*
X159268475Y-113391632D01*
X159430990Y-113148411D01*
X159542932Y-112878158D01*
X159600000Y-112591260D01*
X159600000Y-112298740D01*
X159542932Y-112011842D01*
X159430990Y-111741589D01*
X159268475Y-111498368D01*
X159061632Y-111291525D01*
X158887240Y-111175000D01*
X159061632Y-111058475D01*
X159268475Y-110851632D01*
X159430990Y-110608411D01*
X159542932Y-110338158D01*
X159600000Y-110051260D01*
X159600000Y-109758740D01*
X159542932Y-109471842D01*
X159430990Y-109201589D01*
X159268475Y-108958368D01*
X159136620Y-108826513D01*
X159209180Y-108804502D01*
X159319494Y-108745537D01*
X159416185Y-108666185D01*
X159495537Y-108569494D01*
X159554502Y-108459180D01*
X159590812Y-108339482D01*
X159603072Y-108215000D01*
X159600000Y-107650750D01*
X159441250Y-107492000D01*
X158242000Y-107492000D01*
X158242000Y-107512000D01*
X157988000Y-107512000D01*
X157988000Y-107492000D01*
X156788750Y-107492000D01*
X156630000Y-107650750D01*
X156626928Y-108215000D01*
X136743072Y-108215000D01*
X136740000Y-107650750D01*
X136581250Y-107492000D01*
X135382000Y-107492000D01*
X135382000Y-107512000D01*
X135128000Y-107512000D01*
X135128000Y-107492000D01*
X133928750Y-107492000D01*
X133770000Y-107650750D01*
X133766928Y-108215000D01*
X113883072Y-108215000D01*
X113880000Y-107650750D01*
X113721250Y-107492000D01*
X112522000Y-107492000D01*
X112522000Y-107512000D01*
X112268000Y-107512000D01*
X112268000Y-107492000D01*
X111068750Y-107492000D01*
X110910000Y-107650750D01*
X110906928Y-108215000D01*
X91023072Y-108215000D01*
X91020000Y-107650750D01*
X90861250Y-107492000D01*
X89662000Y-107492000D01*
X89662000Y-107512000D01*
X89408000Y-107512000D01*
X89408000Y-107492000D01*
X88208750Y-107492000D01*
X88050000Y-107650750D01*
X88046928Y-108215000D01*
X73100000Y-108215000D01*
X73100000Y-106515000D01*
X88046928Y-106515000D01*
X88050000Y-107079250D01*
X88208750Y-107238000D01*
X89408000Y-107238000D01*
X89408000Y-106038750D01*
X89662000Y-106038750D01*
X89662000Y-107238000D01*
X90861250Y-107238000D01*
X91020000Y-107079250D01*
X91023072Y-106515000D01*
X110906928Y-106515000D01*
X110910000Y-107079250D01*
X111068750Y-107238000D01*
X112268000Y-107238000D01*
X112268000Y-106038750D01*
X112522000Y-106038750D01*
X112522000Y-107238000D01*
X113721250Y-107238000D01*
X113880000Y-107079250D01*
X113883072Y-106515000D01*
X133766928Y-106515000D01*
X133770000Y-107079250D01*
X133928750Y-107238000D01*
X135128000Y-107238000D01*
X135128000Y-106038750D01*
X135382000Y-106038750D01*
X135382000Y-107238000D01*
X136581250Y-107238000D01*
X136740000Y-107079250D01*
X136743072Y-106515000D01*
X156626928Y-106515000D01*
X156630000Y-107079250D01*
X156788750Y-107238000D01*
X157988000Y-107238000D01*
X157988000Y-106038750D01*
X158242000Y-106038750D01*
X158242000Y-107238000D01*
X159441250Y-107238000D01*
X159600000Y-107079250D01*
X159603072Y-106515000D01*
X159590812Y-106390518D01*
X159554502Y-106270820D01*
X159495537Y-106160506D01*
X159416185Y-106063815D01*
X159319494Y-105984463D01*
X159209180Y-105925498D01*
X159089482Y-105889188D01*
X158965000Y-105876928D01*
X158400750Y-105880000D01*
X158242000Y-106038750D01*
X157988000Y-106038750D01*
X157829250Y-105880000D01*
X157265000Y-105876928D01*
X157140518Y-105889188D01*
X157020820Y-105925498D01*
X156910506Y-105984463D01*
X156813815Y-106063815D01*
X156734463Y-106160506D01*
X156675498Y-106270820D01*
X156639188Y-106390518D01*
X156626928Y-106515000D01*
X136743072Y-106515000D01*
X136730812Y-106390518D01*
X136694502Y-106270820D01*
X136635537Y-106160506D01*
X136556185Y-106063815D01*
X136459494Y-105984463D01*
X136349180Y-105925498D01*
X136229482Y-105889188D01*
X136105000Y-105876928D01*
X135540750Y-105880000D01*
X135382000Y-106038750D01*
X135128000Y-106038750D01*
X134969250Y-105880000D01*
X134405000Y-105876928D01*
X134280518Y-105889188D01*
X134160820Y-105925498D01*
X134050506Y-105984463D01*
X133953815Y-106063815D01*
X133874463Y-106160506D01*
X133815498Y-106270820D01*
X133779188Y-106390518D01*
X133766928Y-106515000D01*
X113883072Y-106515000D01*
X113870812Y-106390518D01*
X113834502Y-106270820D01*
X113775537Y-106160506D01*
X113696185Y-106063815D01*
X113599494Y-105984463D01*
X113489180Y-105925498D01*
X113369482Y-105889188D01*
X113245000Y-105876928D01*
X112680750Y-105880000D01*
X112522000Y-106038750D01*
X112268000Y-106038750D01*
X112109250Y-105880000D01*
X111545000Y-105876928D01*
X111420518Y-105889188D01*
X111300820Y-105925498D01*
X111190506Y-105984463D01*
X111093815Y-106063815D01*
X111014463Y-106160506D01*
X110955498Y-106270820D01*
X110919188Y-106390518D01*
X110906928Y-106515000D01*
X91023072Y-106515000D01*
X91010812Y-106390518D01*
X90974502Y-106270820D01*
X90915537Y-106160506D01*
X90836185Y-106063815D01*
X90739494Y-105984463D01*
X90629180Y-105925498D01*
X90509482Y-105889188D01*
X90385000Y-105876928D01*
X89820750Y-105880000D01*
X89662000Y-106038750D01*
X89408000Y-106038750D01*
X89249250Y-105880000D01*
X88685000Y-105876928D01*
X88560518Y-105889188D01*
X88440820Y-105925498D01*
X88330506Y-105984463D01*
X88233815Y-106063815D01*
X88154463Y-106160506D01*
X88095498Y-106270820D01*
X88059188Y-106390518D01*
X88046928Y-106515000D01*
X73100000Y-106515000D01*
X73100000Y-102064872D01*
X80950000Y-102064872D01*
X80950000Y-102505128D01*
X81035890Y-102936925D01*
X81204369Y-103343669D01*
X81448962Y-103709729D01*
X81760271Y-104021038D01*
X82126331Y-104265631D01*
X82533075Y-104434110D01*
X82964872Y-104520000D01*
X83405128Y-104520000D01*
X83836925Y-104434110D01*
X84243669Y-104265631D01*
X84609729Y-104021038D01*
X84921038Y-103709729D01*
X85165631Y-103343669D01*
X85334110Y-102936925D01*
X85420000Y-102505128D01*
X85420000Y-102064872D01*
X103810000Y-102064872D01*
X103810000Y-102505128D01*
X103895890Y-102936925D01*
X104064369Y-103343669D01*
X104308962Y-103709729D01*
X104620271Y-104021038D01*
X104986331Y-104265631D01*
X105393075Y-104434110D01*
X105824872Y-104520000D01*
X106265128Y-104520000D01*
X106696925Y-104434110D01*
X107103669Y-104265631D01*
X107469729Y-104021038D01*
X107781038Y-103709729D01*
X108025631Y-103343669D01*
X108194110Y-102936925D01*
X108280000Y-102505128D01*
X108280000Y-102064872D01*
X126670000Y-102064872D01*
X126670000Y-102505128D01*
X126755890Y-102936925D01*
X126924369Y-103343669D01*
X127168962Y-103709729D01*
X127480271Y-104021038D01*
X127846331Y-104265631D01*
X128253075Y-104434110D01*
X128684872Y-104520000D01*
X129125128Y-104520000D01*
X129556925Y-104434110D01*
X129963669Y-104265631D01*
X130329729Y-104021038D01*
X130641038Y-103709729D01*
X130885631Y-103343669D01*
X131054110Y-102936925D01*
X131140000Y-102505128D01*
X131140000Y-102064872D01*
X149530000Y-102064872D01*
X149530000Y-102505128D01*
X149615890Y-102936925D01*
X149784369Y-103343669D01*
X150028962Y-103709729D01*
X150340271Y-104021038D01*
X150706331Y-104265631D01*
X151113075Y-104434110D01*
X151544872Y-104520000D01*
X151985128Y-104520000D01*
X152416925Y-104434110D01*
X152823669Y-104265631D01*
X153189729Y-104021038D01*
X153501038Y-103709729D01*
X153745631Y-103343669D01*
X153914110Y-102936925D01*
X154000000Y-102505128D01*
X154000000Y-102064872D01*
X153914110Y-101633075D01*
X153745631Y-101226331D01*
X153501038Y-100860271D01*
X153189729Y-100548962D01*
X152823669Y-100304369D01*
X152416925Y-100135890D01*
X151985128Y-100050000D01*
X151544872Y-100050000D01*
X151113075Y-100135890D01*
X150706331Y-100304369D01*
X150340271Y-100548962D01*
X150028962Y-100860271D01*
X149784369Y-101226331D01*
X149615890Y-101633075D01*
X149530000Y-102064872D01*
X131140000Y-102064872D01*
X131054110Y-101633075D01*
X130885631Y-101226331D01*
X130641038Y-100860271D01*
X130329729Y-100548962D01*
X129963669Y-100304369D01*
X129556925Y-100135890D01*
X129125128Y-100050000D01*
X128684872Y-100050000D01*
X128253075Y-100135890D01*
X127846331Y-100304369D01*
X127480271Y-100548962D01*
X127168962Y-100860271D01*
X126924369Y-101226331D01*
X126755890Y-101633075D01*
X126670000Y-102064872D01*
X108280000Y-102064872D01*
X108194110Y-101633075D01*
X108025631Y-101226331D01*
X107781038Y-100860271D01*
X107469729Y-100548962D01*
X107103669Y-100304369D01*
X106696925Y-100135890D01*
X106265128Y-100050000D01*
X105824872Y-100050000D01*
X105393075Y-100135890D01*
X104986331Y-100304369D01*
X104620271Y-100548962D01*
X104308962Y-100860271D01*
X104064369Y-101226331D01*
X103895890Y-101633075D01*
X103810000Y-102064872D01*
X85420000Y-102064872D01*
X85334110Y-101633075D01*
X85165631Y-101226331D01*
X84921038Y-100860271D01*
X84609729Y-100548962D01*
X84243669Y-100304369D01*
X83836925Y-100135890D01*
X83405128Y-100050000D01*
X82964872Y-100050000D01*
X82533075Y-100135890D01*
X82126331Y-100304369D01*
X81760271Y-100548962D01*
X81448962Y-100860271D01*
X81204369Y-101226331D01*
X81035890Y-101633075D01*
X80950000Y-102064872D01*
X73100000Y-102064872D01*
X73100000Y-89364872D01*
X80950000Y-89364872D01*
X80950000Y-89805128D01*
X81035890Y-90236925D01*
X81204369Y-90643669D01*
X81448962Y-91009729D01*
X81760271Y-91321038D01*
X82126331Y-91565631D01*
X82533075Y-91734110D01*
X82964872Y-91820000D01*
X83405128Y-91820000D01*
X83836925Y-91734110D01*
X84243669Y-91565631D01*
X84609729Y-91321038D01*
X84921038Y-91009729D01*
X85165631Y-90643669D01*
X85334110Y-90236925D01*
X85420000Y-89805128D01*
X85420000Y-89364872D01*
X103810000Y-89364872D01*
X103810000Y-89805128D01*
X103895890Y-90236925D01*
X104064369Y-90643669D01*
X104308962Y-91009729D01*
X104620271Y-91321038D01*
X104986331Y-91565631D01*
X105393075Y-91734110D01*
X105824872Y-91820000D01*
X106265128Y-91820000D01*
X106696925Y-91734110D01*
X107103669Y-91565631D01*
X107469729Y-91321038D01*
X107781038Y-91009729D01*
X108025631Y-90643669D01*
X108194110Y-90236925D01*
X108280000Y-89805128D01*
X108280000Y-89364872D01*
X126670000Y-89364872D01*
X126670000Y-89805128D01*
X126755890Y-90236925D01*
X126924369Y-90643669D01*
X127168962Y-91009729D01*
X127480271Y-91321038D01*
X127846331Y-91565631D01*
X128253075Y-91734110D01*
X128684872Y-91820000D01*
X129125128Y-91820000D01*
X129556925Y-91734110D01*
X129963669Y-91565631D01*
X130329729Y-91321038D01*
X130641038Y-91009729D01*
X130885631Y-90643669D01*
X131054110Y-90236925D01*
X131140000Y-89805128D01*
X131140000Y-89364872D01*
X149530000Y-89364872D01*
X149530000Y-89805128D01*
X149615890Y-90236925D01*
X149784369Y-90643669D01*
X150028962Y-91009729D01*
X150340271Y-91321038D01*
X150706331Y-91565631D01*
X151113075Y-91734110D01*
X151544872Y-91820000D01*
X151985128Y-91820000D01*
X152416925Y-91734110D01*
X152823669Y-91565631D01*
X153189729Y-91321038D01*
X153501038Y-91009729D01*
X153745631Y-90643669D01*
X153914110Y-90236925D01*
X154000000Y-89805128D01*
X154000000Y-89364872D01*
X153914110Y-88933075D01*
X153745631Y-88526331D01*
X153501038Y-88160271D01*
X153189729Y-87848962D01*
X152823669Y-87604369D01*
X152416925Y-87435890D01*
X151985128Y-87350000D01*
X151544872Y-87350000D01*
X151113075Y-87435890D01*
X150706331Y-87604369D01*
X150340271Y-87848962D01*
X150028962Y-88160271D01*
X149784369Y-88526331D01*
X149615890Y-88933075D01*
X149530000Y-89364872D01*
X131140000Y-89364872D01*
X131054110Y-88933075D01*
X130885631Y-88526331D01*
X130641038Y-88160271D01*
X130329729Y-87848962D01*
X129963669Y-87604369D01*
X129556925Y-87435890D01*
X129125128Y-87350000D01*
X128684872Y-87350000D01*
X128253075Y-87435890D01*
X127846331Y-87604369D01*
X127480271Y-87848962D01*
X127168962Y-88160271D01*
X126924369Y-88526331D01*
X126755890Y-88933075D01*
X126670000Y-89364872D01*
X108280000Y-89364872D01*
X108194110Y-88933075D01*
X108025631Y-88526331D01*
X107781038Y-88160271D01*
X107469729Y-87848962D01*
X107103669Y-87604369D01*
X106696925Y-87435890D01*
X106265128Y-87350000D01*
X105824872Y-87350000D01*
X105393075Y-87435890D01*
X104986331Y-87604369D01*
X104620271Y-87848962D01*
X104308962Y-88160271D01*
X104064369Y-88526331D01*
X103895890Y-88933075D01*
X103810000Y-89364872D01*
X85420000Y-89364872D01*
X85334110Y-88933075D01*
X85165631Y-88526331D01*
X84921038Y-88160271D01*
X84609729Y-87848962D01*
X84243669Y-87604369D01*
X83836925Y-87435890D01*
X83405128Y-87350000D01*
X82964872Y-87350000D01*
X82533075Y-87435890D01*
X82126331Y-87604369D01*
X81760271Y-87848962D01*
X81448962Y-88160271D01*
X81204369Y-88526331D01*
X81035890Y-88933075D01*
X80950000Y-89364872D01*
X73100000Y-89364872D01*
X73100000Y-75195000D01*
X88046928Y-75195000D01*
X88059188Y-75319482D01*
X88095498Y-75439180D01*
X88154463Y-75549494D01*
X88233815Y-75646185D01*
X88330506Y-75725537D01*
X88440820Y-75784502D01*
X88513380Y-75806513D01*
X88381525Y-75938368D01*
X88219010Y-76181589D01*
X88107068Y-76451842D01*
X88050000Y-76738740D01*
X88050000Y-77031260D01*
X88107068Y-77318158D01*
X88219010Y-77588411D01*
X88381525Y-77831632D01*
X88588368Y-78038475D01*
X88762760Y-78155000D01*
X88588368Y-78271525D01*
X88381525Y-78478368D01*
X88219010Y-78721589D01*
X88107068Y-78991842D01*
X88050000Y-79278740D01*
X88050000Y-79571260D01*
X88107068Y-79858158D01*
X88219010Y-80128411D01*
X88381525Y-80371632D01*
X88588368Y-80578475D01*
X88762760Y-80695000D01*
X88588368Y-80811525D01*
X88381525Y-81018368D01*
X88219010Y-81261589D01*
X88107068Y-81531842D01*
X88050000Y-81818740D01*
X88050000Y-82111260D01*
X88107068Y-82398158D01*
X88219010Y-82668411D01*
X88381525Y-82911632D01*
X88588368Y-83118475D01*
X88762760Y-83235000D01*
X88588368Y-83351525D01*
X88381525Y-83558368D01*
X88219010Y-83801589D01*
X88107068Y-84071842D01*
X88050000Y-84358740D01*
X88050000Y-84651260D01*
X88107068Y-84938158D01*
X88219010Y-85208411D01*
X88381525Y-85451632D01*
X88588368Y-85658475D01*
X88831589Y-85820990D01*
X89101842Y-85932932D01*
X89388740Y-85990000D01*
X89681260Y-85990000D01*
X89968158Y-85932932D01*
X90238411Y-85820990D01*
X90481632Y-85658475D01*
X90688475Y-85451632D01*
X90850990Y-85208411D01*
X90962932Y-84938158D01*
X91020000Y-84651260D01*
X91020000Y-84358740D01*
X90962932Y-84071842D01*
X90850990Y-83801589D01*
X90688475Y-83558368D01*
X90481632Y-83351525D01*
X90307240Y-83235000D01*
X90481632Y-83118475D01*
X90688475Y-82911632D01*
X90850990Y-82668411D01*
X90962932Y-82398158D01*
X91020000Y-82111260D01*
X91020000Y-81818740D01*
X90976209Y-81598592D01*
X93221004Y-79353798D01*
X93250001Y-79330001D01*
X93294308Y-79276013D01*
X93344974Y-79214277D01*
X93415546Y-79082247D01*
X93440275Y-79000724D01*
X93459003Y-78938986D01*
X93470000Y-78827333D01*
X93470000Y-78827324D01*
X93473676Y-78790001D01*
X93470000Y-78752678D01*
X93470000Y-75294801D01*
X104016009Y-64748793D01*
X104045001Y-64725001D01*
X104068795Y-64696008D01*
X104068799Y-64696004D01*
X104139973Y-64609277D01*
X104139974Y-64609276D01*
X104210546Y-64477247D01*
X104254003Y-64333986D01*
X104265000Y-64222333D01*
X104265000Y-64222324D01*
X104268073Y-64191125D01*
X104311314Y-64162233D01*
X104329998Y-64185000D01*
X104359002Y-64208803D01*
X106116200Y-65966002D01*
X106139999Y-65995001D01*
X106168997Y-66018799D01*
X106255723Y-66089974D01*
X106322975Y-66125921D01*
X106387753Y-66160546D01*
X106531014Y-66204003D01*
X106642667Y-66215000D01*
X106642677Y-66215000D01*
X106680000Y-66218676D01*
X106717323Y-66215000D01*
X107000199Y-66215000D01*
X108194981Y-67409783D01*
X108194981Y-68617453D01*
X108194110Y-68613075D01*
X108025631Y-68206331D01*
X107781038Y-67840271D01*
X107469729Y-67528962D01*
X107103669Y-67284369D01*
X106696925Y-67115890D01*
X106265128Y-67030000D01*
X105824872Y-67030000D01*
X105393075Y-67115890D01*
X104986331Y-67284369D01*
X104620271Y-67528962D01*
X104308962Y-67840271D01*
X104064369Y-68206331D01*
X103895890Y-68613075D01*
X103810000Y-69044872D01*
X103810000Y-69485128D01*
X103895890Y-69916925D01*
X104064369Y-70323669D01*
X104308962Y-70689729D01*
X104620271Y-71001038D01*
X104986331Y-71245631D01*
X105393075Y-71414110D01*
X105824872Y-71500000D01*
X106265128Y-71500000D01*
X106696925Y-71414110D01*
X107103669Y-71245631D01*
X107469729Y-71001038D01*
X107781038Y-70689729D01*
X108025631Y-70323669D01*
X108194110Y-69916925D01*
X108194981Y-69912548D01*
X108194980Y-75947658D01*
X108191304Y-75984980D01*
X108194980Y-76022302D01*
X108194980Y-76022312D01*
X108205977Y-76133965D01*
X108241175Y-76250000D01*
X108249434Y-76277226D01*
X108320006Y-76409256D01*
X108354956Y-76451842D01*
X108414979Y-76524981D01*
X108443983Y-76548784D01*
X110953790Y-79058592D01*
X110910000Y-79278740D01*
X110910000Y-79571260D01*
X110967068Y-79858158D01*
X111079010Y-80128411D01*
X111241525Y-80371632D01*
X111448368Y-80578475D01*
X111622760Y-80695000D01*
X111448368Y-80811525D01*
X111241525Y-81018368D01*
X111079010Y-81261589D01*
X110967068Y-81531842D01*
X110910000Y-81818740D01*
X110910000Y-82111260D01*
X110967068Y-82398158D01*
X111079010Y-82668411D01*
X111241525Y-82911632D01*
X111448368Y-83118475D01*
X111622760Y-83235000D01*
X111448368Y-83351525D01*
X111241525Y-83558368D01*
X111079010Y-83801589D01*
X110967068Y-84071842D01*
X110910000Y-84358740D01*
X110910000Y-84651260D01*
X110967068Y-84938158D01*
X111079010Y-85208411D01*
X111241525Y-85451632D01*
X111448368Y-85658475D01*
X111691589Y-85820990D01*
X111961842Y-85932932D01*
X112248740Y-85990000D01*
X112541260Y-85990000D01*
X112828158Y-85932932D01*
X113098411Y-85820990D01*
X113341632Y-85658475D01*
X113548475Y-85451632D01*
X113710990Y-85208411D01*
X113822932Y-84938158D01*
X113880000Y-84651260D01*
X113880000Y-84358740D01*
X113822932Y-84071842D01*
X113710990Y-83801589D01*
X113548475Y-83558368D01*
X113341632Y-83351525D01*
X113167240Y-83235000D01*
X113341632Y-83118475D01*
X113548475Y-82911632D01*
X113710990Y-82668411D01*
X113822932Y-82398158D01*
X113880000Y-82111260D01*
X113880000Y-81818740D01*
X113836210Y-81598592D01*
X114081005Y-81353797D01*
X114110002Y-81330000D01*
X114204975Y-81214275D01*
X114275547Y-81082246D01*
X114319004Y-80938985D01*
X114330001Y-80827332D01*
X114330001Y-80827323D01*
X114333677Y-80790000D01*
X114330001Y-80752677D01*
X114330001Y-76358321D01*
X114333677Y-76320998D01*
X114330001Y-76283675D01*
X114330001Y-76283666D01*
X114319004Y-76172013D01*
X114275547Y-76028752D01*
X114204975Y-75896723D01*
X114110002Y-75780998D01*
X114081003Y-75757200D01*
X113809590Y-75485786D01*
X113834502Y-75439180D01*
X113870812Y-75319482D01*
X113883072Y-75195000D01*
X113880000Y-74630750D01*
X113721250Y-74472000D01*
X112522000Y-74472000D01*
X112522000Y-74492000D01*
X112268000Y-74492000D01*
X112268000Y-74472000D01*
X112248000Y-74472000D01*
X112248000Y-74218000D01*
X112268000Y-74218000D01*
X112268000Y-73018750D01*
X112522000Y-73018750D01*
X112522000Y-74218000D01*
X113721250Y-74218000D01*
X113880000Y-74059250D01*
X113883072Y-73495000D01*
X113870812Y-73370518D01*
X113834502Y-73250820D01*
X113775537Y-73140506D01*
X113696185Y-73043815D01*
X113599494Y-72964463D01*
X113489180Y-72905498D01*
X113369482Y-72869188D01*
X113245000Y-72856928D01*
X112680750Y-72860000D01*
X112522000Y-73018750D01*
X112268000Y-73018750D01*
X112109250Y-72860000D01*
X111545000Y-72856928D01*
X111420518Y-72869188D01*
X111300820Y-72905498D01*
X111190506Y-72964463D01*
X111093815Y-73043815D01*
X111014463Y-73140506D01*
X110955498Y-73250820D01*
X110919188Y-73370518D01*
X110906928Y-73495000D01*
X110910000Y-74059250D01*
X111068748Y-74217998D01*
X110910000Y-74217998D01*
X110910000Y-74325198D01*
X110615000Y-74030199D01*
X110615000Y-64499801D01*
X110758592Y-64356209D01*
X110978740Y-64400000D01*
X111271260Y-64400000D01*
X111558158Y-64342932D01*
X111727013Y-64272990D01*
X111726323Y-64279999D01*
X111729999Y-64317321D01*
X111729999Y-64317331D01*
X111740996Y-64428984D01*
X111784453Y-64572245D01*
X111855025Y-64704275D01*
X111872035Y-64725001D01*
X111949998Y-64820000D01*
X111979002Y-64843803D01*
X113999811Y-66864613D01*
X114023610Y-66893612D01*
X114139335Y-66988585D01*
X114271364Y-67059157D01*
X114414625Y-67102614D01*
X114526278Y-67113611D01*
X114526287Y-67113611D01*
X114563610Y-67117287D01*
X114600933Y-67113611D01*
X121155965Y-67113611D01*
X133128355Y-79086003D01*
X133152154Y-79115002D01*
X133267879Y-79209975D01*
X133399908Y-79280547D01*
X133543169Y-79324004D01*
X133654822Y-79335001D01*
X133654830Y-79335001D01*
X133692155Y-79338677D01*
X133729480Y-79335001D01*
X133770000Y-79335001D01*
X133770000Y-79571260D01*
X133827068Y-79858158D01*
X133939010Y-80128411D01*
X134101525Y-80371632D01*
X134308368Y-80578475D01*
X134482760Y-80695000D01*
X134308368Y-80811525D01*
X134101525Y-81018368D01*
X133939010Y-81261589D01*
X133827068Y-81531842D01*
X133770000Y-81818740D01*
X133770000Y-82111260D01*
X133827068Y-82398158D01*
X133939010Y-82668411D01*
X134101525Y-82911632D01*
X134308368Y-83118475D01*
X134482760Y-83235000D01*
X134308368Y-83351525D01*
X134101525Y-83558368D01*
X133939010Y-83801589D01*
X133827068Y-84071842D01*
X133770000Y-84358740D01*
X133770000Y-84651260D01*
X133827068Y-84938158D01*
X133939010Y-85208411D01*
X134101525Y-85451632D01*
X134308368Y-85658475D01*
X134551589Y-85820990D01*
X134821842Y-85932932D01*
X135108740Y-85990000D01*
X135401260Y-85990000D01*
X135688158Y-85932932D01*
X135958411Y-85820990D01*
X136201632Y-85658475D01*
X136408475Y-85451632D01*
X136570990Y-85208411D01*
X136682932Y-84938158D01*
X136740000Y-84651260D01*
X136740000Y-84358740D01*
X136682932Y-84071842D01*
X136570990Y-83801589D01*
X136408475Y-83558368D01*
X136201632Y-83351525D01*
X136027240Y-83235000D01*
X136201632Y-83118475D01*
X136408475Y-82911632D01*
X136570990Y-82668411D01*
X136682932Y-82398158D01*
X136740000Y-82111260D01*
X136740000Y-81818740D01*
X136696210Y-81598592D01*
X136941004Y-81353798D01*
X136970002Y-81330000D01*
X137064975Y-81214275D01*
X137135547Y-81082246D01*
X137179004Y-80938985D01*
X137190001Y-80827332D01*
X137190001Y-80827323D01*
X137193677Y-80790000D01*
X137190001Y-80752677D01*
X137190001Y-76358321D01*
X137193677Y-76320998D01*
X137190001Y-76283675D01*
X137190001Y-76283666D01*
X137179004Y-76172013D01*
X137135547Y-76028752D01*
X137064975Y-75896723D01*
X136970002Y-75780998D01*
X136941005Y-75757201D01*
X136669590Y-75485786D01*
X136694502Y-75439180D01*
X136730812Y-75319482D01*
X136743072Y-75195000D01*
X136740000Y-74630750D01*
X136581250Y-74472000D01*
X135382000Y-74472000D01*
X135382000Y-74492000D01*
X135128000Y-74492000D01*
X135128000Y-74472000D01*
X133928750Y-74472000D01*
X133770000Y-74630750D01*
X133768779Y-74855000D01*
X132397624Y-74855000D01*
X131037624Y-73495000D01*
X133766928Y-73495000D01*
X133770000Y-74059250D01*
X133928750Y-74218000D01*
X135128000Y-74218000D01*
X135128000Y-73018750D01*
X135382000Y-73018750D01*
X135382000Y-74218000D01*
X136581250Y-74218000D01*
X136740000Y-74059250D01*
X136743072Y-73495000D01*
X136730812Y-73370518D01*
X136694502Y-73250820D01*
X136635537Y-73140506D01*
X136556185Y-73043815D01*
X136459494Y-72964463D01*
X136349180Y-72905498D01*
X136229482Y-72869188D01*
X136105000Y-72856928D01*
X135540750Y-72860000D01*
X135382000Y-73018750D01*
X135128000Y-73018750D01*
X134969250Y-72860000D01*
X134405000Y-72856928D01*
X134280518Y-72869188D01*
X134160820Y-72905498D01*
X134050506Y-72964463D01*
X133953815Y-73043815D01*
X133874463Y-73140506D01*
X133815498Y-73250820D01*
X133779188Y-73370518D01*
X133766928Y-73495000D01*
X131037624Y-73495000D01*
X129042624Y-71500000D01*
X129125128Y-71500000D01*
X129556925Y-71414110D01*
X129963669Y-71245631D01*
X130329729Y-71001038D01*
X130641038Y-70689729D01*
X130885631Y-70323669D01*
X131054110Y-69916925D01*
X131140000Y-69485128D01*
X131140000Y-69044872D01*
X131054110Y-68613075D01*
X130885631Y-68206331D01*
X130641038Y-67840271D01*
X130329729Y-67528962D01*
X129963669Y-67284369D01*
X129556925Y-67115890D01*
X129552561Y-67115022D01*
X142825221Y-67115022D01*
X153741200Y-78031002D01*
X153764999Y-78060001D01*
X153880724Y-78154974D01*
X154012753Y-78225546D01*
X154156014Y-78269003D01*
X154267667Y-78280000D01*
X154267676Y-78280000D01*
X154304999Y-78283676D01*
X154342322Y-78280000D01*
X155260199Y-78280000D01*
X156085000Y-79104802D01*
X156085001Y-80657668D01*
X156081324Y-80695000D01*
X156095998Y-80843985D01*
X156139454Y-80987246D01*
X156210026Y-81119276D01*
X156281201Y-81206002D01*
X156305000Y-81235001D01*
X156333998Y-81258799D01*
X156673791Y-81598592D01*
X156630000Y-81818740D01*
X156630000Y-82111260D01*
X156687068Y-82398158D01*
X156799010Y-82668411D01*
X156961525Y-82911632D01*
X157168368Y-83118475D01*
X157342760Y-83235000D01*
X157168368Y-83351525D01*
X156961525Y-83558368D01*
X156799010Y-83801589D01*
X156687068Y-84071842D01*
X156630000Y-84358740D01*
X156630000Y-84651260D01*
X156687068Y-84938158D01*
X156799010Y-85208411D01*
X156961525Y-85451632D01*
X157168368Y-85658475D01*
X157411589Y-85820990D01*
X157681842Y-85932932D01*
X157968740Y-85990000D01*
X158261260Y-85990000D01*
X158548158Y-85932932D01*
X158818411Y-85820990D01*
X159061632Y-85658475D01*
X159268475Y-85451632D01*
X159430990Y-85208411D01*
X159542932Y-84938158D01*
X159600000Y-84651260D01*
X159600000Y-84358740D01*
X159542932Y-84071842D01*
X159430990Y-83801589D01*
X159268475Y-83558368D01*
X159061632Y-83351525D01*
X158887240Y-83235000D01*
X159061632Y-83118475D01*
X159268475Y-82911632D01*
X159430990Y-82668411D01*
X159542932Y-82398158D01*
X159600000Y-82111260D01*
X159600000Y-81818740D01*
X159542932Y-81531842D01*
X159430990Y-81261589D01*
X159268475Y-81018368D01*
X159061632Y-80811525D01*
X158887240Y-80695000D01*
X159061632Y-80578475D01*
X159268475Y-80371632D01*
X159430990Y-80128411D01*
X159542932Y-79858158D01*
X159600000Y-79571260D01*
X159600000Y-79278740D01*
X159556210Y-79058592D01*
X159801005Y-78813797D01*
X159830002Y-78790000D01*
X159924975Y-78674275D01*
X159995547Y-78542246D01*
X160039004Y-78398985D01*
X160050001Y-78287332D01*
X160050001Y-78287323D01*
X160053677Y-78250000D01*
X160050001Y-78212677D01*
X160050001Y-76358321D01*
X160053677Y-76320998D01*
X160050001Y-76283675D01*
X160050001Y-76283666D01*
X160039004Y-76172013D01*
X159995547Y-76028752D01*
X159924975Y-75896723D01*
X159894004Y-75858985D01*
X159853800Y-75809995D01*
X159853796Y-75809991D01*
X159830002Y-75780998D01*
X159801009Y-75757204D01*
X159529590Y-75485786D01*
X159554502Y-75439180D01*
X159590812Y-75319482D01*
X159603072Y-75195000D01*
X159600000Y-74630750D01*
X159441250Y-74472000D01*
X158242000Y-74472000D01*
X158242000Y-74492000D01*
X157988000Y-74492000D01*
X157988000Y-74472000D01*
X156788750Y-74472000D01*
X156630000Y-74630750D01*
X156628262Y-74949999D01*
X154082621Y-74949999D01*
X152627623Y-73495000D01*
X156626928Y-73495000D01*
X156630000Y-74059250D01*
X156788750Y-74218000D01*
X157988000Y-74218000D01*
X157988000Y-73018750D01*
X158242000Y-73018750D01*
X158242000Y-74218000D01*
X159441250Y-74218000D01*
X159600000Y-74059250D01*
X159603072Y-73495000D01*
X159590812Y-73370518D01*
X159554502Y-73250820D01*
X159495537Y-73140506D01*
X159416185Y-73043815D01*
X159319494Y-72964463D01*
X159209180Y-72905498D01*
X159089482Y-72869188D01*
X158965000Y-72856928D01*
X158400750Y-72860000D01*
X158242000Y-73018750D01*
X157988000Y-73018750D01*
X157829250Y-72860000D01*
X157265000Y-72856928D01*
X157140518Y-72869188D01*
X157020820Y-72905498D01*
X156910506Y-72964463D01*
X156813815Y-73043815D01*
X156734463Y-73140506D01*
X156675498Y-73250820D01*
X156639188Y-73370518D01*
X156626928Y-73495000D01*
X152627623Y-73495000D01*
X148177495Y-69044872D01*
X149530000Y-69044872D01*
X149530000Y-69485128D01*
X149615890Y-69916925D01*
X149784369Y-70323669D01*
X150028962Y-70689729D01*
X150340271Y-71001038D01*
X150706331Y-71245631D01*
X151113075Y-71414110D01*
X151544872Y-71500000D01*
X151985128Y-71500000D01*
X152416925Y-71414110D01*
X152823669Y-71245631D01*
X153189729Y-71001038D01*
X153501038Y-70689729D01*
X153745631Y-70323669D01*
X153914110Y-69916925D01*
X154000000Y-69485128D01*
X154000000Y-69044872D01*
X153914110Y-68613075D01*
X153745631Y-68206331D01*
X153501038Y-67840271D01*
X153189729Y-67528962D01*
X152823669Y-67284369D01*
X152416925Y-67115890D01*
X151985128Y-67030000D01*
X151544872Y-67030000D01*
X151113075Y-67115890D01*
X150706331Y-67284369D01*
X150340271Y-67528962D01*
X150028962Y-67840271D01*
X149784369Y-68206331D01*
X149615890Y-68613075D01*
X149530000Y-69044872D01*
X148177495Y-69044872D01*
X144076626Y-64944003D01*
X144052823Y-64914999D01*
X143937098Y-64820026D01*
X143805069Y-64749454D01*
X143661808Y-64705997D01*
X143550155Y-64695000D01*
X143550145Y-64695000D01*
X143512822Y-64691324D01*
X143475500Y-64695000D01*
X125409802Y-64695000D01*
X124777454Y-64062653D01*
X124978475Y-63861632D01*
X125095000Y-63687240D01*
X125211525Y-63861632D01*
X125418368Y-64068475D01*
X125661589Y-64230990D01*
X125931842Y-64342932D01*
X126218740Y-64400000D01*
X126511260Y-64400000D01*
X126798158Y-64342932D01*
X127068411Y-64230990D01*
X127311632Y-64068475D01*
X127518475Y-63861632D01*
X127635000Y-63687240D01*
X127751525Y-63861632D01*
X127958368Y-64068475D01*
X128201589Y-64230990D01*
X128471842Y-64342932D01*
X128758740Y-64400000D01*
X129051260Y-64400000D01*
X129338158Y-64342932D01*
X129608411Y-64230990D01*
X129851632Y-64068475D01*
X130058475Y-63861632D01*
X130175000Y-63687240D01*
X130291525Y-63861632D01*
X130498368Y-64068475D01*
X130741589Y-64230990D01*
X131011842Y-64342932D01*
X131298740Y-64400000D01*
X131591260Y-64400000D01*
X131878158Y-64342932D01*
X132148411Y-64230990D01*
X132391632Y-64068475D01*
X132598475Y-63861632D01*
X132715000Y-63687240D01*
X132831525Y-63861632D01*
X133038368Y-64068475D01*
X133281589Y-64230990D01*
X133551842Y-64342932D01*
X133838740Y-64400000D01*
X134131260Y-64400000D01*
X134418158Y-64342932D01*
X134688411Y-64230990D01*
X134931632Y-64068475D01*
X135138475Y-63861632D01*
X135255000Y-63687240D01*
X135371525Y-63861632D01*
X135578368Y-64068475D01*
X135821589Y-64230990D01*
X136091842Y-64342932D01*
X136378740Y-64400000D01*
X136671260Y-64400000D01*
X136958158Y-64342932D01*
X137228411Y-64230990D01*
X137471632Y-64068475D01*
X137678475Y-63861632D01*
X137800195Y-63679466D01*
X137869822Y-63796355D01*
X138064731Y-64012588D01*
X138298080Y-64186641D01*
X138560901Y-64311825D01*
X138708110Y-64356476D01*
X138938000Y-64235155D01*
X138938000Y-63042000D01*
X139192000Y-63042000D01*
X139192000Y-64235155D01*
X139421890Y-64356476D01*
X139569099Y-64311825D01*
X139831920Y-64186641D01*
X140065269Y-64012588D01*
X140260178Y-63796355D01*
X140409157Y-63546252D01*
X140506481Y-63271891D01*
X140385814Y-63042000D01*
X139192000Y-63042000D01*
X138938000Y-63042000D01*
X138918000Y-63042000D01*
X138918000Y-62788000D01*
X138938000Y-62788000D01*
X138938000Y-60502000D01*
X139192000Y-60502000D01*
X139192000Y-62788000D01*
X140385814Y-62788000D01*
X140506481Y-62558109D01*
X140409157Y-62283748D01*
X140260178Y-62033645D01*
X140083374Y-61837498D01*
X140159180Y-61814502D01*
X140269494Y-61755537D01*
X140366185Y-61676185D01*
X140445537Y-61579494D01*
X140504502Y-61469180D01*
X140522492Y-61409872D01*
X156515000Y-61409872D01*
X156515000Y-61850128D01*
X156600890Y-62281925D01*
X156769369Y-62688669D01*
X157013962Y-63054729D01*
X157325271Y-63366038D01*
X157691331Y-63610631D01*
X158098075Y-63779110D01*
X158529872Y-63865000D01*
X158970128Y-63865000D01*
X159401925Y-63779110D01*
X159808669Y-63610631D01*
X160174729Y-63366038D01*
X160486038Y-63054729D01*
X160730631Y-62688669D01*
X160899110Y-62281925D01*
X160985000Y-61850128D01*
X160985000Y-61409872D01*
X160899110Y-60978075D01*
X160730631Y-60571331D01*
X160486038Y-60205271D01*
X160174729Y-59893962D01*
X159808669Y-59649369D01*
X159401925Y-59480890D01*
X158970128Y-59395000D01*
X158529872Y-59395000D01*
X158098075Y-59480890D01*
X157691331Y-59649369D01*
X157325271Y-59893962D01*
X157013962Y-60205271D01*
X156769369Y-60571331D01*
X156600890Y-60978075D01*
X156515000Y-61409872D01*
X140522492Y-61409872D01*
X140540812Y-61349482D01*
X140553072Y-61225000D01*
X140550000Y-60660750D01*
X140391250Y-60502000D01*
X139192000Y-60502000D01*
X138938000Y-60502000D01*
X138918000Y-60502000D01*
X138918000Y-60248000D01*
X138938000Y-60248000D01*
X138938000Y-59048750D01*
X139192000Y-59048750D01*
X139192000Y-60248000D01*
X140391250Y-60248000D01*
X140550000Y-60089250D01*
X140553072Y-59525000D01*
X140540812Y-59400518D01*
X140504502Y-59280820D01*
X140445537Y-59170506D01*
X140366185Y-59073815D01*
X140269494Y-58994463D01*
X140159180Y-58935498D01*
X140039482Y-58899188D01*
X139915000Y-58886928D01*
X139350750Y-58890000D01*
X139192000Y-59048750D01*
X138938000Y-59048750D01*
X138779250Y-58890000D01*
X138215000Y-58886928D01*
X138090518Y-58899188D01*
X137970820Y-58935498D01*
X137860506Y-58994463D01*
X137763815Y-59073815D01*
X137684463Y-59170506D01*
X137625498Y-59280820D01*
X137603487Y-59353380D01*
X137471632Y-59221525D01*
X137228411Y-59059010D01*
X136958158Y-58947068D01*
X136671260Y-58890000D01*
X136378740Y-58890000D01*
X136091842Y-58947068D01*
X135821589Y-59059010D01*
X135578368Y-59221525D01*
X135371525Y-59428368D01*
X135255000Y-59602760D01*
X135138475Y-59428368D01*
X134931632Y-59221525D01*
X134688411Y-59059010D01*
X134418158Y-58947068D01*
X134131260Y-58890000D01*
X133838740Y-58890000D01*
X133551842Y-58947068D01*
X133281589Y-59059010D01*
X133038368Y-59221525D01*
X132831525Y-59428368D01*
X132715000Y-59602760D01*
X132598475Y-59428368D01*
X132391632Y-59221525D01*
X132148411Y-59059010D01*
X131878158Y-58947068D01*
X131591260Y-58890000D01*
X131298740Y-58890000D01*
X131011842Y-58947068D01*
X130741589Y-59059010D01*
X130498368Y-59221525D01*
X130291525Y-59428368D01*
X130175000Y-59602760D01*
X130058475Y-59428368D01*
X129851632Y-59221525D01*
X129608411Y-59059010D01*
X129338158Y-58947068D01*
X129051260Y-58890000D01*
X128758740Y-58890000D01*
X128471842Y-58947068D01*
X128201589Y-59059010D01*
X127958368Y-59221525D01*
X127751525Y-59428368D01*
X127635000Y-59602760D01*
X127518475Y-59428368D01*
X127311632Y-59221525D01*
X127068411Y-59059010D01*
X126798158Y-58947068D01*
X126511260Y-58890000D01*
X126218740Y-58890000D01*
X125931842Y-58947068D01*
X125661589Y-59059010D01*
X125418368Y-59221525D01*
X125211525Y-59428368D01*
X125095000Y-59602760D01*
X124978475Y-59428368D01*
X124771632Y-59221525D01*
X124528411Y-59059010D01*
X124258158Y-58947068D01*
X123971260Y-58890000D01*
X123678740Y-58890000D01*
X123391842Y-58947068D01*
X123121589Y-59059010D01*
X122878368Y-59221525D01*
X122671525Y-59428368D01*
X122555000Y-59602760D01*
X122438475Y-59428368D01*
X122231632Y-59221525D01*
X121988411Y-59059010D01*
X121718158Y-58947068D01*
X121431260Y-58890000D01*
X121138740Y-58890000D01*
X120851842Y-58947068D01*
X120581589Y-59059010D01*
X120338368Y-59221525D01*
X120131525Y-59428368D01*
X120015000Y-59602760D01*
X119898475Y-59428368D01*
X119691632Y-59221525D01*
X119448411Y-59059010D01*
X119178158Y-58947068D01*
X118891260Y-58890000D01*
X118598740Y-58890000D01*
X118311842Y-58947068D01*
X118041589Y-59059010D01*
X117798368Y-59221525D01*
X117591525Y-59428368D01*
X117475000Y-59602760D01*
X117358475Y-59428368D01*
X117151632Y-59221525D01*
X116908411Y-59059010D01*
X116638158Y-58947068D01*
X116351260Y-58890000D01*
X116058740Y-58890000D01*
X115771842Y-58947068D01*
X115501589Y-59059010D01*
X115258368Y-59221525D01*
X115051525Y-59428368D01*
X114935000Y-59602760D01*
X114818475Y-59428368D01*
X114611632Y-59221525D01*
X114368411Y-59059010D01*
X114098158Y-58947068D01*
X113811260Y-58890000D01*
X113518740Y-58890000D01*
X113231842Y-58947068D01*
X112961589Y-59059010D01*
X112718368Y-59221525D01*
X112511525Y-59428368D01*
X112395000Y-59602760D01*
X112278475Y-59428368D01*
X112071632Y-59221525D01*
X111828411Y-59059010D01*
X111558158Y-58947068D01*
X111271260Y-58890000D01*
X110978740Y-58890000D01*
X110691842Y-58947068D01*
X110421589Y-59059010D01*
X110178368Y-59221525D01*
X109971525Y-59428368D01*
X109855000Y-59602760D01*
X109738475Y-59428368D01*
X109531632Y-59221525D01*
X109288411Y-59059010D01*
X109018158Y-58947068D01*
X108731260Y-58890000D01*
X108438740Y-58890000D01*
X108151842Y-58947068D01*
X107881589Y-59059010D01*
X107638368Y-59221525D01*
X107431525Y-59428368D01*
X107315000Y-59602760D01*
X107198475Y-59428368D01*
X106991632Y-59221525D01*
X106748411Y-59059010D01*
X106478158Y-58947068D01*
X106191260Y-58890000D01*
X105898740Y-58890000D01*
X105611842Y-58947068D01*
X105341589Y-59059010D01*
X105098368Y-59221525D01*
X104891525Y-59428368D01*
X104775000Y-59602760D01*
X104658475Y-59428368D01*
X104451632Y-59221525D01*
X104208411Y-59059010D01*
X103938158Y-58947068D01*
X103651260Y-58890000D01*
X103358740Y-58890000D01*
X103071842Y-58947068D01*
X102801589Y-59059010D01*
X102558368Y-59221525D01*
X102351525Y-59428368D01*
X102235000Y-59602760D01*
X102118475Y-59428368D01*
X101911632Y-59221525D01*
X101668411Y-59059010D01*
X101398158Y-58947068D01*
X101111260Y-58890000D01*
X100818740Y-58890000D01*
X100531842Y-58947068D01*
X100261589Y-59059010D01*
X100018368Y-59221525D01*
X99811525Y-59428368D01*
X99695000Y-59602760D01*
X99578475Y-59428368D01*
X99371632Y-59221525D01*
X99128411Y-59059010D01*
X98858158Y-58947068D01*
X98571260Y-58890000D01*
X98278740Y-58890000D01*
X97991842Y-58947068D01*
X97721589Y-59059010D01*
X97478368Y-59221525D01*
X97271525Y-59428368D01*
X97155000Y-59602760D01*
X97038475Y-59428368D01*
X96831632Y-59221525D01*
X96588411Y-59059010D01*
X96318158Y-58947068D01*
X96031260Y-58890000D01*
X95738740Y-58890000D01*
X95451842Y-58947068D01*
X95181589Y-59059010D01*
X94938368Y-59221525D01*
X94731525Y-59428368D01*
X94569010Y-59671589D01*
X94457068Y-59941842D01*
X94400000Y-60228740D01*
X94400000Y-60521260D01*
X94457068Y-60808158D01*
X94569010Y-61078411D01*
X94731525Y-61321632D01*
X94938368Y-61528475D01*
X95112760Y-61645000D01*
X94938368Y-61761525D01*
X94731525Y-61968368D01*
X94569010Y-62211589D01*
X94457068Y-62481842D01*
X94400000Y-62768740D01*
X94400000Y-63061260D01*
X94457068Y-63348158D01*
X94569010Y-63618411D01*
X94731525Y-63861632D01*
X94938368Y-64068475D01*
X95181589Y-64230990D01*
X95451842Y-64342932D01*
X95738740Y-64400000D01*
X96031260Y-64400000D01*
X96318158Y-64342932D01*
X96588411Y-64230990D01*
X96831632Y-64068475D01*
X97038475Y-63861632D01*
X97155000Y-63687240D01*
X97271525Y-63861632D01*
X97478368Y-64068475D01*
X97665001Y-64193179D01*
X97665000Y-67677376D01*
X91020000Y-74322376D01*
X91020000Y-74217998D01*
X90861252Y-74217998D01*
X91020000Y-74059250D01*
X91023072Y-73495000D01*
X91010812Y-73370518D01*
X90974502Y-73250820D01*
X90915537Y-73140506D01*
X90836185Y-73043815D01*
X90739494Y-72964463D01*
X90629180Y-72905498D01*
X90509482Y-72869188D01*
X90385000Y-72856928D01*
X89820750Y-72860000D01*
X89662000Y-73018750D01*
X89662000Y-74218000D01*
X89682000Y-74218000D01*
X89682000Y-74472000D01*
X89662000Y-74472000D01*
X89662000Y-74492000D01*
X89408000Y-74492000D01*
X89408000Y-74472000D01*
X88208750Y-74472000D01*
X88050000Y-74630750D01*
X88046928Y-75195000D01*
X73100000Y-75195000D01*
X73100000Y-73495000D01*
X88046928Y-73495000D01*
X88050000Y-74059250D01*
X88208750Y-74218000D01*
X89408000Y-74218000D01*
X89408000Y-73018750D01*
X89249250Y-72860000D01*
X88685000Y-72856928D01*
X88560518Y-72869188D01*
X88440820Y-72905498D01*
X88330506Y-72964463D01*
X88233815Y-73043815D01*
X88154463Y-73140506D01*
X88095498Y-73250820D01*
X88059188Y-73370518D01*
X88046928Y-73495000D01*
X73100000Y-73495000D01*
X73100000Y-69044872D01*
X80950000Y-69044872D01*
X80950000Y-69485128D01*
X81035890Y-69916925D01*
X81204369Y-70323669D01*
X81448962Y-70689729D01*
X81760271Y-71001038D01*
X82126331Y-71245631D01*
X82533075Y-71414110D01*
X82964872Y-71500000D01*
X83405128Y-71500000D01*
X83836925Y-71414110D01*
X84243669Y-71245631D01*
X84609729Y-71001038D01*
X84921038Y-70689729D01*
X85165631Y-70323669D01*
X85334110Y-69916925D01*
X85420000Y-69485128D01*
X85420000Y-69044872D01*
X85334110Y-68613075D01*
X85165631Y-68206331D01*
X84921038Y-67840271D01*
X84609729Y-67528962D01*
X84243669Y-67284369D01*
X83836925Y-67115890D01*
X83405128Y-67030000D01*
X82964872Y-67030000D01*
X82533075Y-67115890D01*
X82126331Y-67284369D01*
X81760271Y-67528962D01*
X81448962Y-67840271D01*
X81204369Y-68206331D01*
X81035890Y-68613075D01*
X80950000Y-69044872D01*
X73100000Y-69044872D01*
X73100000Y-61424872D01*
X73965000Y-61424872D01*
X73965000Y-61865128D01*
X74050890Y-62296925D01*
X74219369Y-62703669D01*
X74463962Y-63069729D01*
X74775271Y-63381038D01*
X75141331Y-63625631D01*
X75548075Y-63794110D01*
X75979872Y-63880000D01*
X76420128Y-63880000D01*
X76851925Y-63794110D01*
X77258669Y-63625631D01*
X77624729Y-63381038D01*
X77936038Y-63069729D01*
X78180631Y-62703669D01*
X78349110Y-62296925D01*
X78435000Y-61865128D01*
X78435000Y-61424872D01*
X78349110Y-60993075D01*
X78180631Y-60586331D01*
X78083894Y-60441553D01*
X82279009Y-60441553D01*
X82321603Y-60740907D01*
X82421778Y-61026199D01*
X82501739Y-61175792D01*
X82755918Y-61259474D01*
X82639970Y-61375422D01*
X82686735Y-61422187D01*
X82675820Y-61425498D01*
X82565506Y-61484463D01*
X82468815Y-61563815D01*
X82389463Y-61660506D01*
X82330498Y-61770820D01*
X82294188Y-61890518D01*
X82281928Y-62015000D01*
X82281928Y-63815000D01*
X82294188Y-63939482D01*
X82330498Y-64059180D01*
X82389463Y-64169494D01*
X82468815Y-64266185D01*
X82565506Y-64345537D01*
X82675820Y-64404502D01*
X82795518Y-64440812D01*
X82920000Y-64453072D01*
X84720000Y-64453072D01*
X84844482Y-64440812D01*
X84964180Y-64404502D01*
X85074494Y-64345537D01*
X85171185Y-64266185D01*
X85250537Y-64169494D01*
X85309502Y-64059180D01*
X85345812Y-63939482D01*
X85358072Y-63815000D01*
X85358072Y-63675000D01*
X86535566Y-63675000D01*
X86593038Y-63761013D01*
X86778987Y-63946962D01*
X86997641Y-64093061D01*
X87240595Y-64193696D01*
X87498514Y-64245000D01*
X87761486Y-64245000D01*
X88019405Y-64193696D01*
X88262359Y-64093061D01*
X88481013Y-63946962D01*
X88666962Y-63761013D01*
X88813061Y-63542359D01*
X88913696Y-63299405D01*
X88965000Y-63041486D01*
X88965000Y-62778514D01*
X88913696Y-62520595D01*
X88813061Y-62277641D01*
X88666962Y-62058987D01*
X88567975Y-61960000D01*
X88666962Y-61861013D01*
X88813061Y-61642359D01*
X88913696Y-61399405D01*
X88948387Y-61225000D01*
X89316928Y-61225000D01*
X89329188Y-61349482D01*
X89365498Y-61469180D01*
X89424463Y-61579494D01*
X89503815Y-61676185D01*
X89600506Y-61755537D01*
X89710820Y-61814502D01*
X89783380Y-61836513D01*
X89651525Y-61968368D01*
X89489010Y-62211589D01*
X89377068Y-62481842D01*
X89320000Y-62768740D01*
X89320000Y-63061260D01*
X89377068Y-63348158D01*
X89489010Y-63618411D01*
X89651525Y-63861632D01*
X89858368Y-64068475D01*
X90101589Y-64230990D01*
X90371842Y-64342932D01*
X90658740Y-64400000D01*
X90951260Y-64400000D01*
X91238158Y-64342932D01*
X91508411Y-64230990D01*
X91751632Y-64068475D01*
X91958475Y-63861632D01*
X92120990Y-63618411D01*
X92232932Y-63348158D01*
X92290000Y-63061260D01*
X92290000Y-62768740D01*
X92232932Y-62481842D01*
X92120990Y-62211589D01*
X91958475Y-61968368D01*
X91826620Y-61836513D01*
X91899180Y-61814502D01*
X92009494Y-61755537D01*
X92106185Y-61676185D01*
X92185537Y-61579494D01*
X92244502Y-61469180D01*
X92280812Y-61349482D01*
X92293072Y-61225000D01*
X92290000Y-60660750D01*
X92131250Y-60502000D01*
X90932000Y-60502000D01*
X90932000Y-60522000D01*
X90678000Y-60522000D01*
X90678000Y-60502000D01*
X89478750Y-60502000D01*
X89320000Y-60660750D01*
X89316928Y-61225000D01*
X88948387Y-61225000D01*
X88965000Y-61141486D01*
X88965000Y-60878514D01*
X88913696Y-60620595D01*
X88813061Y-60377641D01*
X88666962Y-60158987D01*
X88481013Y-59973038D01*
X88262359Y-59826939D01*
X88019405Y-59726304D01*
X87761486Y-59675000D01*
X87498514Y-59675000D01*
X87240595Y-59726304D01*
X86997641Y-59826939D01*
X86778987Y-59973038D01*
X86593038Y-60158987D01*
X86446939Y-60377641D01*
X86346304Y-60620595D01*
X86295000Y-60878514D01*
X86295000Y-61141486D01*
X86346304Y-61399405D01*
X86446939Y-61642359D01*
X86593038Y-61861013D01*
X86692025Y-61960000D01*
X86593038Y-62058987D01*
X86528885Y-62155000D01*
X85358072Y-62155000D01*
X85358072Y-62015000D01*
X85345812Y-61890518D01*
X85309502Y-61770820D01*
X85250537Y-61660506D01*
X85171185Y-61563815D01*
X85074494Y-61484463D01*
X84964180Y-61425498D01*
X84953265Y-61422187D01*
X85000030Y-61375422D01*
X84884082Y-61259474D01*
X85138261Y-61175792D01*
X85269158Y-60903225D01*
X85344365Y-60610358D01*
X85360991Y-60308447D01*
X85318397Y-60009093D01*
X85218222Y-59723801D01*
X85138261Y-59574208D01*
X84988796Y-59525000D01*
X89316928Y-59525000D01*
X89320000Y-60089250D01*
X89478750Y-60248000D01*
X90678000Y-60248000D01*
X90678000Y-59048750D01*
X90932000Y-59048750D01*
X90932000Y-60248000D01*
X92131250Y-60248000D01*
X92290000Y-60089250D01*
X92293072Y-59525000D01*
X92280812Y-59400518D01*
X92244502Y-59280820D01*
X92185537Y-59170506D01*
X92106185Y-59073815D01*
X92009494Y-58994463D01*
X91899180Y-58935498D01*
X91779482Y-58899188D01*
X91655000Y-58886928D01*
X91090750Y-58890000D01*
X90932000Y-59048750D01*
X90678000Y-59048750D01*
X90519250Y-58890000D01*
X89955000Y-58886928D01*
X89830518Y-58899188D01*
X89710820Y-58935498D01*
X89600506Y-58994463D01*
X89503815Y-59073815D01*
X89424463Y-59170506D01*
X89365498Y-59280820D01*
X89329188Y-59400518D01*
X89316928Y-59525000D01*
X84988796Y-59525000D01*
X84884080Y-59490525D01*
X83999605Y-60375000D01*
X84013748Y-60389143D01*
X83834143Y-60568748D01*
X83820000Y-60554605D01*
X83805858Y-60568748D01*
X83626253Y-60389143D01*
X83640395Y-60375000D01*
X82755920Y-59490525D01*
X82501739Y-59574208D01*
X82370842Y-59846775D01*
X82295635Y-60139642D01*
X82279009Y-60441553D01*
X78083894Y-60441553D01*
X77936038Y-60220271D01*
X77624729Y-59908962D01*
X77258669Y-59664369D01*
X76851925Y-59495890D01*
X76420128Y-59410000D01*
X75979872Y-59410000D01*
X75548075Y-59495890D01*
X75141331Y-59664369D01*
X74775271Y-59908962D01*
X74463962Y-60220271D01*
X74219369Y-60586331D01*
X74050890Y-60993075D01*
X73965000Y-61424872D01*
X73100000Y-61424872D01*
X73100000Y-59310920D01*
X82935525Y-59310920D01*
X83820000Y-60195395D01*
X84704475Y-59310920D01*
X84620792Y-59056739D01*
X84348225Y-58925842D01*
X84055358Y-58850635D01*
X83753447Y-58834009D01*
X83454093Y-58876603D01*
X83168801Y-58976778D01*
X83019208Y-59056739D01*
X82935525Y-59310920D01*
X73100000Y-59310920D01*
X73100000Y-58530118D01*
X161850001Y-58544881D01*
G37*
%TD.AperFunction*%
%TD*%
M02*
