%TF.GenerationSoftware,KiCad,Pcbnew,(5.1.10)-1*%
%TF.CreationDate,2021-11-06T23:29:58+11:00*%
%TF.ProjectId,pannel_subboard,70616e6e-656c-45f7-9375-62626f617264,rev?*%
%TF.SameCoordinates,Original*%
%TF.FileFunction,Legend,Top*%
%TF.FilePolarity,Positive*%
%FSLAX46Y46*%
G04 Gerber Fmt 4.6, Leading zero omitted, Abs format (unit mm)*
G04 Created by KiCad (PCBNEW (5.1.10)-1) date 2021-11-06 23:29:58*
%MOMM*%
%LPD*%
G01*
G04 APERTURE LIST*
%ADD10C,0.150000*%
%ADD11C,0.120000*%
G04 APERTURE END LIST*
D10*
X142748000Y-59045000D02*
X137795000Y-59045000D01*
X142748000Y-64185000D02*
X142748000Y-59105000D01*
X137795000Y-64185000D02*
X142748000Y-64185000D01*
X137795000Y-61645000D02*
X137795000Y-64185000D01*
X92710000Y-59105000D02*
X97155000Y-59105000D01*
X92710000Y-64185000D02*
X92710000Y-59105000D01*
X97155000Y-64185000D02*
X92710000Y-64185000D01*
X97155000Y-59105000D02*
X97155000Y-64185000D01*
X93480000Y-62406904D02*
X93432380Y-62502142D01*
X93432380Y-62645000D01*
X93480000Y-62787857D01*
X93575238Y-62883095D01*
X93670476Y-62930714D01*
X93860952Y-62978333D01*
X94003809Y-62978333D01*
X94194285Y-62930714D01*
X94289523Y-62883095D01*
X94384761Y-62787857D01*
X94432380Y-62645000D01*
X94432380Y-62549761D01*
X94384761Y-62406904D01*
X94337142Y-62359285D01*
X94003809Y-62359285D01*
X94003809Y-62549761D01*
X94432380Y-61930714D02*
X93432380Y-61930714D01*
X94432380Y-61359285D01*
X93432380Y-61359285D01*
X94432380Y-60883095D02*
X93432380Y-60883095D01*
X93432380Y-60645000D01*
X93480000Y-60502142D01*
X93575238Y-60406904D01*
X93670476Y-60359285D01*
X93860952Y-60311666D01*
X94003809Y-60311666D01*
X94194285Y-60359285D01*
X94289523Y-60406904D01*
X94384761Y-60502142D01*
X94432380Y-60645000D01*
X94432380Y-60883095D01*
X141184380Y-62978333D02*
X142184380Y-62645000D01*
X141184380Y-62311666D01*
X142089142Y-61406904D02*
X142136761Y-61454523D01*
X142184380Y-61597380D01*
X142184380Y-61692619D01*
X142136761Y-61835476D01*
X142041523Y-61930714D01*
X141946285Y-61978333D01*
X141755809Y-62025952D01*
X141612952Y-62025952D01*
X141422476Y-61978333D01*
X141327238Y-61930714D01*
X141232000Y-61835476D01*
X141184380Y-61692619D01*
X141184380Y-61597380D01*
X141232000Y-61454523D01*
X141279619Y-61406904D01*
X142089142Y-60406904D02*
X142136761Y-60454523D01*
X142184380Y-60597380D01*
X142184380Y-60692619D01*
X142136761Y-60835476D01*
X142041523Y-60930714D01*
X141946285Y-60978333D01*
X141755809Y-61025952D01*
X141612952Y-61025952D01*
X141422476Y-60978333D01*
X141327238Y-60930714D01*
X141232000Y-60835476D01*
X141184380Y-60692619D01*
X141184380Y-60597380D01*
X141232000Y-60454523D01*
X141279619Y-60406904D01*
X120015000Y-98475000D02*
X137795000Y-98475000D01*
X137795000Y-98475000D02*
X137795000Y-126415000D01*
X120015000Y-126415000D02*
X120015000Y-98475000D01*
X130810000Y-122605000D02*
G75*
G03*
X130810000Y-122605000I-1905000J0D01*
G01*
X130810000Y-102285000D02*
G75*
G03*
X130810000Y-102285000I-1905000J0D01*
G01*
X137795000Y-126415000D02*
X120015000Y-126415000D01*
X97155000Y-98475000D02*
X114935000Y-98475000D01*
X114935000Y-98475000D02*
X114935000Y-126415000D01*
X97155000Y-126415000D02*
X97155000Y-98475000D01*
X107950000Y-122605000D02*
G75*
G03*
X107950000Y-122605000I-1905000J0D01*
G01*
X107950000Y-102285000D02*
G75*
G03*
X107950000Y-102285000I-1905000J0D01*
G01*
X114935000Y-126415000D02*
X97155000Y-126415000D01*
X120015000Y-65455000D02*
X137795000Y-65455000D01*
X137795000Y-65455000D02*
X137795000Y-93395000D01*
X120015000Y-93395000D02*
X120015000Y-65455000D01*
X130810000Y-89585000D02*
G75*
G03*
X130810000Y-89585000I-1905000J0D01*
G01*
X130810000Y-69265000D02*
G75*
G03*
X130810000Y-69265000I-1905000J0D01*
G01*
X137795000Y-93395000D02*
X120015000Y-93395000D01*
X97155000Y-65455000D02*
X114935000Y-65455000D01*
X114935000Y-65455000D02*
X114935000Y-93395000D01*
X97155000Y-93395000D02*
X97155000Y-65455000D01*
X107950000Y-89585000D02*
G75*
G03*
X107950000Y-89585000I-1905000J0D01*
G01*
X107950000Y-69265000D02*
G75*
G03*
X107950000Y-69265000I-1905000J0D01*
G01*
X114935000Y-93395000D02*
X97155000Y-93395000D01*
X142875000Y-65455000D02*
X160655000Y-65455000D01*
X160655000Y-65455000D02*
X160655000Y-93395000D01*
X142875000Y-93395000D02*
X142875000Y-65455000D01*
X153670000Y-89585000D02*
G75*
G03*
X153670000Y-89585000I-1905000J0D01*
G01*
X153670000Y-69265000D02*
G75*
G03*
X153670000Y-69265000I-1905000J0D01*
G01*
X160655000Y-93395000D02*
X142875000Y-93395000D01*
X142875000Y-98475000D02*
X160655000Y-98475000D01*
X160655000Y-98475000D02*
X160655000Y-126415000D01*
X142875000Y-126415000D02*
X142875000Y-98475000D01*
X153670000Y-122605000D02*
G75*
G03*
X153670000Y-122605000I-1905000J0D01*
G01*
X153670000Y-102285000D02*
G75*
G03*
X153670000Y-102285000I-1905000J0D01*
G01*
X160655000Y-126415000D02*
X142875000Y-126415000D01*
X74295000Y-98475000D02*
X92075000Y-98475000D01*
X92075000Y-98475000D02*
X92075000Y-126415000D01*
X74295000Y-126415000D02*
X74295000Y-98475000D01*
X85090000Y-122605000D02*
G75*
G03*
X85090000Y-122605000I-1905000J0D01*
G01*
X85090000Y-102285000D02*
G75*
G03*
X85090000Y-102285000I-1905000J0D01*
G01*
X92075000Y-126415000D02*
X74295000Y-126415000D01*
X74295000Y-65455000D02*
X92075000Y-65455000D01*
X92075000Y-65455000D02*
X92075000Y-93395000D01*
X74295000Y-93395000D02*
X74295000Y-65455000D01*
X85090000Y-89585000D02*
G75*
G03*
X85090000Y-89585000I-1905000J0D01*
G01*
X85090000Y-69265000D02*
G75*
G03*
X85090000Y-69265000I-1905000J0D01*
G01*
X92075000Y-93395000D02*
X74295000Y-93395000D01*
D11*
%TO.C,J18*%
X144085000Y-118855000D02*
X146745000Y-118855000D01*
X144085000Y-108635000D02*
X144085000Y-118855000D01*
X146745000Y-108635000D02*
X146745000Y-118855000D01*
X144085000Y-108635000D02*
X146745000Y-108635000D01*
X144085000Y-107365000D02*
X144085000Y-106035000D01*
X144085000Y-106035000D02*
X145415000Y-106035000D01*
%TO.C,J17*%
X98365000Y-118855000D02*
X101025000Y-118855000D01*
X98365000Y-108635000D02*
X98365000Y-118855000D01*
X101025000Y-108635000D02*
X101025000Y-118855000D01*
X98365000Y-108635000D02*
X101025000Y-108635000D01*
X98365000Y-107365000D02*
X98365000Y-106035000D01*
X98365000Y-106035000D02*
X99695000Y-106035000D01*
%TO.C,J16*%
X144085000Y-85835000D02*
X146745000Y-85835000D01*
X144085000Y-75615000D02*
X144085000Y-85835000D01*
X146745000Y-75615000D02*
X146745000Y-85835000D01*
X144085000Y-75615000D02*
X146745000Y-75615000D01*
X144085000Y-74345000D02*
X144085000Y-73015000D01*
X144085000Y-73015000D02*
X145415000Y-73015000D01*
%TO.C,J15*%
X98365000Y-85835000D02*
X101025000Y-85835000D01*
X98365000Y-75615000D02*
X98365000Y-85835000D01*
X101025000Y-75615000D02*
X101025000Y-85835000D01*
X98365000Y-75615000D02*
X101025000Y-75615000D01*
X98365000Y-74345000D02*
X98365000Y-73015000D01*
X98365000Y-73015000D02*
X99695000Y-73015000D01*
%TO.C,J14*%
X121225000Y-118855000D02*
X123885000Y-118855000D01*
X121225000Y-108635000D02*
X121225000Y-118855000D01*
X123885000Y-108635000D02*
X123885000Y-118855000D01*
X121225000Y-108635000D02*
X123885000Y-108635000D01*
X121225000Y-107365000D02*
X121225000Y-106035000D01*
X121225000Y-106035000D02*
X122555000Y-106035000D01*
%TO.C,J13*%
X75505000Y-118855000D02*
X78165000Y-118855000D01*
X75505000Y-108635000D02*
X75505000Y-118855000D01*
X78165000Y-108635000D02*
X78165000Y-118855000D01*
X75505000Y-108635000D02*
X78165000Y-108635000D01*
X75505000Y-107365000D02*
X75505000Y-106035000D01*
X75505000Y-106035000D02*
X76835000Y-106035000D01*
%TO.C,J12*%
X121225000Y-85835000D02*
X123885000Y-85835000D01*
X121225000Y-75615000D02*
X121225000Y-85835000D01*
X123885000Y-75615000D02*
X123885000Y-85835000D01*
X121225000Y-75615000D02*
X123885000Y-75615000D01*
X121225000Y-74345000D02*
X121225000Y-73015000D01*
X121225000Y-73015000D02*
X122555000Y-73015000D01*
%TO.C,J11*%
X75505000Y-85835000D02*
X78165000Y-85835000D01*
X75505000Y-75615000D02*
X75505000Y-85835000D01*
X78165000Y-75615000D02*
X78165000Y-85835000D01*
X75505000Y-75615000D02*
X78165000Y-75615000D01*
X75505000Y-74345000D02*
X75505000Y-73015000D01*
X75505000Y-73015000D02*
X76835000Y-73015000D01*
%TO.C,J10*%
X140395000Y-59045000D02*
X140395000Y-60375000D01*
X139065000Y-59045000D02*
X140395000Y-59045000D01*
X140395000Y-61645000D02*
X140395000Y-64245000D01*
X137795000Y-61645000D02*
X140395000Y-61645000D01*
X137795000Y-59045000D02*
X137795000Y-61645000D01*
X140395000Y-64245000D02*
X94555000Y-64245000D01*
X137795000Y-59045000D02*
X94555000Y-59045000D01*
X94555000Y-59045000D02*
X94555000Y-64245000D01*
%TO.C,R1*%
X86995000Y-61870000D02*
X86995000Y-61910000D01*
X87855000Y-61010000D02*
G75*
G03*
X87855000Y-61010000I-860000J0D01*
G01*
%TO.C,J9*%
X156785000Y-106035000D02*
X158115000Y-106035000D01*
X156785000Y-107365000D02*
X156785000Y-106035000D01*
X156785000Y-108635000D02*
X159445000Y-108635000D01*
X159445000Y-108635000D02*
X159445000Y-118855000D01*
X156785000Y-108635000D02*
X156785000Y-118855000D01*
X156785000Y-118855000D02*
X159445000Y-118855000D01*
%TO.C,J8*%
X111065000Y-106035000D02*
X112395000Y-106035000D01*
X111065000Y-107365000D02*
X111065000Y-106035000D01*
X111065000Y-108635000D02*
X113725000Y-108635000D01*
X113725000Y-108635000D02*
X113725000Y-118855000D01*
X111065000Y-108635000D02*
X111065000Y-118855000D01*
X111065000Y-118855000D02*
X113725000Y-118855000D01*
%TO.C,J7*%
X156785000Y-73015000D02*
X158115000Y-73015000D01*
X156785000Y-74345000D02*
X156785000Y-73015000D01*
X156785000Y-75615000D02*
X159445000Y-75615000D01*
X159445000Y-75615000D02*
X159445000Y-85835000D01*
X156785000Y-75615000D02*
X156785000Y-85835000D01*
X156785000Y-85835000D02*
X159445000Y-85835000D01*
%TO.C,J6*%
X111065000Y-73015000D02*
X112395000Y-73015000D01*
X111065000Y-74345000D02*
X111065000Y-73015000D01*
X111065000Y-75615000D02*
X113725000Y-75615000D01*
X113725000Y-75615000D02*
X113725000Y-85835000D01*
X111065000Y-75615000D02*
X111065000Y-85835000D01*
X111065000Y-85835000D02*
X113725000Y-85835000D01*
%TO.C,J5*%
X133925000Y-106035000D02*
X135255000Y-106035000D01*
X133925000Y-107365000D02*
X133925000Y-106035000D01*
X133925000Y-108635000D02*
X136585000Y-108635000D01*
X136585000Y-108635000D02*
X136585000Y-118855000D01*
X133925000Y-108635000D02*
X133925000Y-118855000D01*
X133925000Y-118855000D02*
X136585000Y-118855000D01*
%TO.C,J4*%
X88205000Y-106035000D02*
X89535000Y-106035000D01*
X88205000Y-107365000D02*
X88205000Y-106035000D01*
X88205000Y-108635000D02*
X90865000Y-108635000D01*
X90865000Y-108635000D02*
X90865000Y-118855000D01*
X88205000Y-108635000D02*
X88205000Y-118855000D01*
X88205000Y-118855000D02*
X90865000Y-118855000D01*
%TO.C,J3*%
X133925000Y-73015000D02*
X135255000Y-73015000D01*
X133925000Y-74345000D02*
X133925000Y-73015000D01*
X133925000Y-75615000D02*
X136585000Y-75615000D01*
X136585000Y-75615000D02*
X136585000Y-85835000D01*
X133925000Y-75615000D02*
X133925000Y-85835000D01*
X133925000Y-85835000D02*
X136585000Y-85835000D01*
%TO.C,J2*%
X88205000Y-73015000D02*
X89535000Y-73015000D01*
X88205000Y-74345000D02*
X88205000Y-73015000D01*
X88205000Y-75615000D02*
X90865000Y-75615000D01*
X90865000Y-75615000D02*
X90865000Y-85835000D01*
X88205000Y-75615000D02*
X88205000Y-85835000D01*
X88205000Y-85835000D02*
X90865000Y-85835000D01*
%TO.C,J1*%
X88840000Y-59045000D02*
X90170000Y-59045000D01*
X88840000Y-60375000D02*
X88840000Y-59045000D01*
X88840000Y-61645000D02*
X91500000Y-61645000D01*
X91500000Y-61645000D02*
X91500000Y-64245000D01*
X88840000Y-61645000D02*
X88840000Y-64245000D01*
X88840000Y-64245000D02*
X91500000Y-64245000D01*
%TO.C,D1*%
X84265000Y-63205000D02*
X84421000Y-63205000D01*
X81949000Y-63205000D02*
X82105000Y-63205000D01*
X82106392Y-59972665D02*
G75*
G03*
X81949484Y-63205000I1078608J-1672335D01*
G01*
X84263608Y-59972665D02*
G75*
G02*
X84420516Y-63205000I-1078608J-1672335D01*
G01*
X82105163Y-60603870D02*
G75*
G03*
X82105000Y-62685961I1079837J-1041130D01*
G01*
X84264837Y-60603870D02*
G75*
G02*
X84265000Y-62685961I-1079837J-1041130D01*
G01*
%TO.C,J18*%
D10*
X144605476Y-104487380D02*
X144605476Y-105201666D01*
X144557857Y-105344523D01*
X144462619Y-105439761D01*
X144319761Y-105487380D01*
X144224523Y-105487380D01*
X145605476Y-105487380D02*
X145034047Y-105487380D01*
X145319761Y-105487380D02*
X145319761Y-104487380D01*
X145224523Y-104630238D01*
X145129285Y-104725476D01*
X145034047Y-104773095D01*
X146176904Y-104915952D02*
X146081666Y-104868333D01*
X146034047Y-104820714D01*
X145986428Y-104725476D01*
X145986428Y-104677857D01*
X146034047Y-104582619D01*
X146081666Y-104535000D01*
X146176904Y-104487380D01*
X146367380Y-104487380D01*
X146462619Y-104535000D01*
X146510238Y-104582619D01*
X146557857Y-104677857D01*
X146557857Y-104725476D01*
X146510238Y-104820714D01*
X146462619Y-104868333D01*
X146367380Y-104915952D01*
X146176904Y-104915952D01*
X146081666Y-104963571D01*
X146034047Y-105011190D01*
X145986428Y-105106428D01*
X145986428Y-105296904D01*
X146034047Y-105392142D01*
X146081666Y-105439761D01*
X146176904Y-105487380D01*
X146367380Y-105487380D01*
X146462619Y-105439761D01*
X146510238Y-105392142D01*
X146557857Y-105296904D01*
X146557857Y-105106428D01*
X146510238Y-105011190D01*
X146462619Y-104963571D01*
X146367380Y-104915952D01*
%TO.C,J17*%
X98885476Y-104487380D02*
X98885476Y-105201666D01*
X98837857Y-105344523D01*
X98742619Y-105439761D01*
X98599761Y-105487380D01*
X98504523Y-105487380D01*
X99885476Y-105487380D02*
X99314047Y-105487380D01*
X99599761Y-105487380D02*
X99599761Y-104487380D01*
X99504523Y-104630238D01*
X99409285Y-104725476D01*
X99314047Y-104773095D01*
X100218809Y-104487380D02*
X100885476Y-104487380D01*
X100456904Y-105487380D01*
%TO.C,J16*%
X144605476Y-71467380D02*
X144605476Y-72181666D01*
X144557857Y-72324523D01*
X144462619Y-72419761D01*
X144319761Y-72467380D01*
X144224523Y-72467380D01*
X145605476Y-72467380D02*
X145034047Y-72467380D01*
X145319761Y-72467380D02*
X145319761Y-71467380D01*
X145224523Y-71610238D01*
X145129285Y-71705476D01*
X145034047Y-71753095D01*
X146462619Y-71467380D02*
X146272142Y-71467380D01*
X146176904Y-71515000D01*
X146129285Y-71562619D01*
X146034047Y-71705476D01*
X145986428Y-71895952D01*
X145986428Y-72276904D01*
X146034047Y-72372142D01*
X146081666Y-72419761D01*
X146176904Y-72467380D01*
X146367380Y-72467380D01*
X146462619Y-72419761D01*
X146510238Y-72372142D01*
X146557857Y-72276904D01*
X146557857Y-72038809D01*
X146510238Y-71943571D01*
X146462619Y-71895952D01*
X146367380Y-71848333D01*
X146176904Y-71848333D01*
X146081666Y-71895952D01*
X146034047Y-71943571D01*
X145986428Y-72038809D01*
%TO.C,J15*%
X98885476Y-71467380D02*
X98885476Y-72181666D01*
X98837857Y-72324523D01*
X98742619Y-72419761D01*
X98599761Y-72467380D01*
X98504523Y-72467380D01*
X99885476Y-72467380D02*
X99314047Y-72467380D01*
X99599761Y-72467380D02*
X99599761Y-71467380D01*
X99504523Y-71610238D01*
X99409285Y-71705476D01*
X99314047Y-71753095D01*
X100790238Y-71467380D02*
X100314047Y-71467380D01*
X100266428Y-71943571D01*
X100314047Y-71895952D01*
X100409285Y-71848333D01*
X100647380Y-71848333D01*
X100742619Y-71895952D01*
X100790238Y-71943571D01*
X100837857Y-72038809D01*
X100837857Y-72276904D01*
X100790238Y-72372142D01*
X100742619Y-72419761D01*
X100647380Y-72467380D01*
X100409285Y-72467380D01*
X100314047Y-72419761D01*
X100266428Y-72372142D01*
%TO.C,J14*%
X121745476Y-104487380D02*
X121745476Y-105201666D01*
X121697857Y-105344523D01*
X121602619Y-105439761D01*
X121459761Y-105487380D01*
X121364523Y-105487380D01*
X122745476Y-105487380D02*
X122174047Y-105487380D01*
X122459761Y-105487380D02*
X122459761Y-104487380D01*
X122364523Y-104630238D01*
X122269285Y-104725476D01*
X122174047Y-104773095D01*
X123602619Y-104820714D02*
X123602619Y-105487380D01*
X123364523Y-104439761D02*
X123126428Y-105154047D01*
X123745476Y-105154047D01*
%TO.C,J13*%
X76025476Y-104487380D02*
X76025476Y-105201666D01*
X75977857Y-105344523D01*
X75882619Y-105439761D01*
X75739761Y-105487380D01*
X75644523Y-105487380D01*
X77025476Y-105487380D02*
X76454047Y-105487380D01*
X76739761Y-105487380D02*
X76739761Y-104487380D01*
X76644523Y-104630238D01*
X76549285Y-104725476D01*
X76454047Y-104773095D01*
X77358809Y-104487380D02*
X77977857Y-104487380D01*
X77644523Y-104868333D01*
X77787380Y-104868333D01*
X77882619Y-104915952D01*
X77930238Y-104963571D01*
X77977857Y-105058809D01*
X77977857Y-105296904D01*
X77930238Y-105392142D01*
X77882619Y-105439761D01*
X77787380Y-105487380D01*
X77501666Y-105487380D01*
X77406428Y-105439761D01*
X77358809Y-105392142D01*
%TO.C,J12*%
X121745476Y-71467380D02*
X121745476Y-72181666D01*
X121697857Y-72324523D01*
X121602619Y-72419761D01*
X121459761Y-72467380D01*
X121364523Y-72467380D01*
X122745476Y-72467380D02*
X122174047Y-72467380D01*
X122459761Y-72467380D02*
X122459761Y-71467380D01*
X122364523Y-71610238D01*
X122269285Y-71705476D01*
X122174047Y-71753095D01*
X123126428Y-71562619D02*
X123174047Y-71515000D01*
X123269285Y-71467380D01*
X123507380Y-71467380D01*
X123602619Y-71515000D01*
X123650238Y-71562619D01*
X123697857Y-71657857D01*
X123697857Y-71753095D01*
X123650238Y-71895952D01*
X123078809Y-72467380D01*
X123697857Y-72467380D01*
%TO.C,J11*%
X76025476Y-71467380D02*
X76025476Y-72181666D01*
X75977857Y-72324523D01*
X75882619Y-72419761D01*
X75739761Y-72467380D01*
X75644523Y-72467380D01*
X77025476Y-72467380D02*
X76454047Y-72467380D01*
X76739761Y-72467380D02*
X76739761Y-71467380D01*
X76644523Y-71610238D01*
X76549285Y-71705476D01*
X76454047Y-71753095D01*
X77977857Y-72467380D02*
X77406428Y-72467380D01*
X77692142Y-72467380D02*
X77692142Y-71467380D01*
X77596904Y-71610238D01*
X77501666Y-71705476D01*
X77406428Y-71753095D01*
%TO.C,J10*%
X143470380Y-62454523D02*
X144184666Y-62454523D01*
X144327523Y-62502142D01*
X144422761Y-62597380D01*
X144470380Y-62740238D01*
X144470380Y-62835476D01*
X144470380Y-61454523D02*
X144470380Y-62025952D01*
X144470380Y-61740238D02*
X143470380Y-61740238D01*
X143613238Y-61835476D01*
X143708476Y-61930714D01*
X143756095Y-62025952D01*
X143470380Y-60835476D02*
X143470380Y-60740238D01*
X143518000Y-60645000D01*
X143565619Y-60597380D01*
X143660857Y-60549761D01*
X143851333Y-60502142D01*
X144089428Y-60502142D01*
X144279904Y-60549761D01*
X144375142Y-60597380D01*
X144422761Y-60645000D01*
X144470380Y-60740238D01*
X144470380Y-60835476D01*
X144422761Y-60930714D01*
X144375142Y-60978333D01*
X144279904Y-61025952D01*
X144089428Y-61073571D01*
X143851333Y-61073571D01*
X143660857Y-61025952D01*
X143565619Y-60978333D01*
X143518000Y-60930714D01*
X143470380Y-60835476D01*
%TO.C,R1*%
X89307380Y-62126666D02*
X88831190Y-62460000D01*
X89307380Y-62698095D02*
X88307380Y-62698095D01*
X88307380Y-62317142D01*
X88355000Y-62221904D01*
X88402619Y-62174285D01*
X88497857Y-62126666D01*
X88640714Y-62126666D01*
X88735952Y-62174285D01*
X88783571Y-62221904D01*
X88831190Y-62317142D01*
X88831190Y-62698095D01*
X89307380Y-61174285D02*
X89307380Y-61745714D01*
X89307380Y-61460000D02*
X88307380Y-61460000D01*
X88450238Y-61555238D01*
X88545476Y-61650476D01*
X88593095Y-61745714D01*
%TO.C,J9*%
X157781666Y-104487380D02*
X157781666Y-105201666D01*
X157734047Y-105344523D01*
X157638809Y-105439761D01*
X157495952Y-105487380D01*
X157400714Y-105487380D01*
X158305476Y-105487380D02*
X158495952Y-105487380D01*
X158591190Y-105439761D01*
X158638809Y-105392142D01*
X158734047Y-105249285D01*
X158781666Y-105058809D01*
X158781666Y-104677857D01*
X158734047Y-104582619D01*
X158686428Y-104535000D01*
X158591190Y-104487380D01*
X158400714Y-104487380D01*
X158305476Y-104535000D01*
X158257857Y-104582619D01*
X158210238Y-104677857D01*
X158210238Y-104915952D01*
X158257857Y-105011190D01*
X158305476Y-105058809D01*
X158400714Y-105106428D01*
X158591190Y-105106428D01*
X158686428Y-105058809D01*
X158734047Y-105011190D01*
X158781666Y-104915952D01*
%TO.C,J8*%
X112061666Y-104487380D02*
X112061666Y-105201666D01*
X112014047Y-105344523D01*
X111918809Y-105439761D01*
X111775952Y-105487380D01*
X111680714Y-105487380D01*
X112680714Y-104915952D02*
X112585476Y-104868333D01*
X112537857Y-104820714D01*
X112490238Y-104725476D01*
X112490238Y-104677857D01*
X112537857Y-104582619D01*
X112585476Y-104535000D01*
X112680714Y-104487380D01*
X112871190Y-104487380D01*
X112966428Y-104535000D01*
X113014047Y-104582619D01*
X113061666Y-104677857D01*
X113061666Y-104725476D01*
X113014047Y-104820714D01*
X112966428Y-104868333D01*
X112871190Y-104915952D01*
X112680714Y-104915952D01*
X112585476Y-104963571D01*
X112537857Y-105011190D01*
X112490238Y-105106428D01*
X112490238Y-105296904D01*
X112537857Y-105392142D01*
X112585476Y-105439761D01*
X112680714Y-105487380D01*
X112871190Y-105487380D01*
X112966428Y-105439761D01*
X113014047Y-105392142D01*
X113061666Y-105296904D01*
X113061666Y-105106428D01*
X113014047Y-105011190D01*
X112966428Y-104963571D01*
X112871190Y-104915952D01*
%TO.C,J7*%
X157781666Y-71467380D02*
X157781666Y-72181666D01*
X157734047Y-72324523D01*
X157638809Y-72419761D01*
X157495952Y-72467380D01*
X157400714Y-72467380D01*
X158162619Y-71467380D02*
X158829285Y-71467380D01*
X158400714Y-72467380D01*
%TO.C,J6*%
X112061666Y-71467380D02*
X112061666Y-72181666D01*
X112014047Y-72324523D01*
X111918809Y-72419761D01*
X111775952Y-72467380D01*
X111680714Y-72467380D01*
X112966428Y-71467380D02*
X112775952Y-71467380D01*
X112680714Y-71515000D01*
X112633095Y-71562619D01*
X112537857Y-71705476D01*
X112490238Y-71895952D01*
X112490238Y-72276904D01*
X112537857Y-72372142D01*
X112585476Y-72419761D01*
X112680714Y-72467380D01*
X112871190Y-72467380D01*
X112966428Y-72419761D01*
X113014047Y-72372142D01*
X113061666Y-72276904D01*
X113061666Y-72038809D01*
X113014047Y-71943571D01*
X112966428Y-71895952D01*
X112871190Y-71848333D01*
X112680714Y-71848333D01*
X112585476Y-71895952D01*
X112537857Y-71943571D01*
X112490238Y-72038809D01*
%TO.C,J5*%
X134921666Y-104487380D02*
X134921666Y-105201666D01*
X134874047Y-105344523D01*
X134778809Y-105439761D01*
X134635952Y-105487380D01*
X134540714Y-105487380D01*
X135874047Y-104487380D02*
X135397857Y-104487380D01*
X135350238Y-104963571D01*
X135397857Y-104915952D01*
X135493095Y-104868333D01*
X135731190Y-104868333D01*
X135826428Y-104915952D01*
X135874047Y-104963571D01*
X135921666Y-105058809D01*
X135921666Y-105296904D01*
X135874047Y-105392142D01*
X135826428Y-105439761D01*
X135731190Y-105487380D01*
X135493095Y-105487380D01*
X135397857Y-105439761D01*
X135350238Y-105392142D01*
%TO.C,J4*%
X89201666Y-104487380D02*
X89201666Y-105201666D01*
X89154047Y-105344523D01*
X89058809Y-105439761D01*
X88915952Y-105487380D01*
X88820714Y-105487380D01*
X90106428Y-104820714D02*
X90106428Y-105487380D01*
X89868333Y-104439761D02*
X89630238Y-105154047D01*
X90249285Y-105154047D01*
%TO.C,J3*%
X134921666Y-71467380D02*
X134921666Y-72181666D01*
X134874047Y-72324523D01*
X134778809Y-72419761D01*
X134635952Y-72467380D01*
X134540714Y-72467380D01*
X135302619Y-71467380D02*
X135921666Y-71467380D01*
X135588333Y-71848333D01*
X135731190Y-71848333D01*
X135826428Y-71895952D01*
X135874047Y-71943571D01*
X135921666Y-72038809D01*
X135921666Y-72276904D01*
X135874047Y-72372142D01*
X135826428Y-72419761D01*
X135731190Y-72467380D01*
X135445476Y-72467380D01*
X135350238Y-72419761D01*
X135302619Y-72372142D01*
%TO.C,J2*%
X89201666Y-71467380D02*
X89201666Y-72181666D01*
X89154047Y-72324523D01*
X89058809Y-72419761D01*
X88915952Y-72467380D01*
X88820714Y-72467380D01*
X89630238Y-71562619D02*
X89677857Y-71515000D01*
X89773095Y-71467380D01*
X90011190Y-71467380D01*
X90106428Y-71515000D01*
X90154047Y-71562619D01*
X90201666Y-71657857D01*
X90201666Y-71753095D01*
X90154047Y-71895952D01*
X89582619Y-72467380D01*
X90201666Y-72467380D01*
%TO.C,J1*%
X89836666Y-57497380D02*
X89836666Y-58211666D01*
X89789047Y-58354523D01*
X89693809Y-58449761D01*
X89550952Y-58497380D01*
X89455714Y-58497380D01*
X90836666Y-58497380D02*
X90265238Y-58497380D01*
X90550952Y-58497380D02*
X90550952Y-57497380D01*
X90455714Y-57640238D01*
X90360476Y-57735476D01*
X90265238Y-57783095D01*
%TO.C,D1*%
X80677380Y-62383095D02*
X79677380Y-62383095D01*
X79677380Y-62145000D01*
X79725000Y-62002142D01*
X79820238Y-61906904D01*
X79915476Y-61859285D01*
X80105952Y-61811666D01*
X80248809Y-61811666D01*
X80439285Y-61859285D01*
X80534523Y-61906904D01*
X80629761Y-62002142D01*
X80677380Y-62145000D01*
X80677380Y-62383095D01*
X80677380Y-60859285D02*
X80677380Y-61430714D01*
X80677380Y-61145000D02*
X79677380Y-61145000D01*
X79820238Y-61240238D01*
X79915476Y-61335476D01*
X79963095Y-61430714D01*
%TD*%
M02*
