M48
; DRILL file {KiCad (5.1.10)-1} date 11/06/21 18:09:36
; FORMAT={-:-/ absolute / metric / decimal}
; #@! TF.CreationDate,2021-11-06T18:09:36+11:00
; #@! TF.GenerationSoftware,Kicad,Pcbnew,(5.1.10)-1
; #@! TF.FileFunction,Plated,1,2,PTH
FMAT,2
METRIC
T1C0.700
T2C0.900
T3C1.000
%
G90
G05
T1
X87.63Y-61.01
X87.63Y-62.91
T2
X83.82Y-60.375
X83.82Y-62.915
T3
X89.535Y-74.345
X89.535Y-76.885
X89.535Y-79.425
X89.535Y-81.965
X89.535Y-84.505
X89.535Y-107.365
X89.535Y-109.905
X89.535Y-112.445
X89.535Y-114.985
X89.535Y-117.525
X90.805Y-60.375
X90.805Y-62.915
X95.885Y-60.375
X95.885Y-62.915
X98.425Y-60.375
X98.425Y-62.915
X100.965Y-60.375
X100.965Y-62.915
X103.505Y-60.375
X103.505Y-62.915
X106.045Y-60.375
X106.045Y-62.915
X108.585Y-60.375
X108.585Y-62.915
X111.125Y-60.375
X111.125Y-62.915
X112.395Y-74.345
X112.395Y-76.885
X112.395Y-79.425
X112.395Y-81.965
X112.395Y-84.505
X112.395Y-107.365
X112.395Y-109.905
X112.395Y-112.445
X112.395Y-114.985
X112.395Y-117.525
X113.665Y-60.375
X113.665Y-62.915
X116.205Y-60.375
X116.205Y-62.915
X118.745Y-60.375
X118.745Y-62.915
X121.285Y-60.375
X121.285Y-62.915
X123.825Y-60.375
X123.825Y-62.915
X126.365Y-60.375
X126.365Y-62.915
X128.905Y-60.375
X128.905Y-62.915
X131.445Y-60.375
X131.445Y-62.915
X133.985Y-60.375
X133.985Y-62.915
X135.255Y-74.345
X135.255Y-76.885
X135.255Y-79.425
X135.255Y-81.965
X135.255Y-84.505
X135.255Y-107.365
X135.255Y-109.905
X135.255Y-112.445
X135.255Y-114.985
X135.255Y-117.525
X136.525Y-60.375
X136.525Y-62.915
X139.065Y-60.375
X139.065Y-62.915
X158.115Y-74.345
X158.115Y-76.885
X158.115Y-79.425
X158.115Y-81.965
X158.115Y-84.505
X158.115Y-107.365
X158.115Y-109.905
X158.115Y-112.445
X158.115Y-114.985
X158.115Y-117.525
T0
M30
