M48
; DRILL file {KiCad (5.1.10)-1} date 11/06/21 23:30:02
; FORMAT={-:-/ absolute / metric / decimal}
; #@! TF.CreationDate,2021-11-06T23:30:02+11:00
; #@! TF.GenerationSoftware,Kicad,Pcbnew,(5.1.10)-1
; #@! TF.FileFunction,Plated,1,2,PTH
FMAT,2
METRIC
T1C0.400
T2C0.700
T3C0.900
T4C1.000
%
G90
G05
T1
X107.95Y-76.885
X133.35Y-76.885
X155.48Y-75.71
X155.575Y-76.885
T2
X86.995Y-61.01
X86.995Y-62.91
T3
X83.185Y-60.375
X83.185Y-62.915
T4
X76.835Y-74.345
X76.835Y-76.885
X76.835Y-79.425
X76.835Y-81.965
X76.835Y-84.505
X76.835Y-107.365
X76.835Y-109.905
X76.835Y-112.445
X76.835Y-114.985
X76.835Y-117.525
X89.535Y-74.345
X89.535Y-76.885
X89.535Y-79.425
X89.535Y-81.965
X89.535Y-84.505
X89.535Y-107.365
X89.535Y-109.905
X89.535Y-112.445
X89.535Y-114.985
X89.535Y-117.525
X90.17Y-60.375
X90.17Y-62.915
X95.885Y-60.375
X95.885Y-62.915
X98.425Y-60.375
X98.425Y-62.915
X99.695Y-74.345
X99.695Y-76.885
X99.695Y-79.425
X99.695Y-81.965
X99.695Y-84.505
X99.695Y-107.365
X99.695Y-109.905
X99.695Y-112.445
X99.695Y-114.985
X99.695Y-117.525
X100.965Y-60.375
X100.965Y-62.915
X103.505Y-60.375
X103.505Y-62.915
X106.045Y-60.375
X106.045Y-62.915
X108.585Y-60.375
X108.585Y-62.915
X111.125Y-60.375
X111.125Y-62.915
X112.395Y-74.345
X112.395Y-76.885
X112.395Y-79.425
X112.395Y-81.965
X112.395Y-84.505
X112.395Y-107.365
X112.395Y-109.905
X112.395Y-112.445
X112.395Y-114.985
X112.395Y-117.525
X113.665Y-60.375
X113.665Y-62.915
X116.205Y-60.375
X116.205Y-62.915
X118.745Y-60.375
X118.745Y-62.915
X121.285Y-60.375
X121.285Y-62.915
X122.555Y-74.345
X122.555Y-76.885
X122.555Y-79.425
X122.555Y-81.965
X122.555Y-84.505
X122.555Y-107.365
X122.555Y-109.905
X122.555Y-112.445
X122.555Y-114.985
X122.555Y-117.525
X123.825Y-60.375
X123.825Y-62.915
X126.365Y-60.375
X126.365Y-62.915
X128.905Y-60.375
X128.905Y-62.915
X131.445Y-60.375
X131.445Y-62.915
X133.985Y-60.375
X133.985Y-62.915
X135.255Y-74.345
X135.255Y-76.885
X135.255Y-79.425
X135.255Y-81.965
X135.255Y-84.505
X135.255Y-107.365
X135.255Y-109.905
X135.255Y-112.445
X135.255Y-114.985
X135.255Y-117.525
X136.525Y-60.375
X136.525Y-62.915
X139.065Y-60.375
X139.065Y-62.915
X145.415Y-74.345
X145.415Y-76.885
X145.415Y-79.425
X145.415Y-81.965
X145.415Y-84.505
X145.415Y-107.365
X145.415Y-109.905
X145.415Y-112.445
X145.415Y-114.985
X145.415Y-117.525
X158.115Y-74.345
X158.115Y-76.885
X158.115Y-79.425
X158.115Y-81.965
X158.115Y-84.505
X158.115Y-107.365
X158.115Y-109.905
X158.115Y-112.445
X158.115Y-114.985
X158.115Y-117.525
T0
M30
