%TF.GenerationSoftware,KiCad,Pcbnew,(5.1.10)-1*%
%TF.CreationDate,2021-09-07T16:08:56+10:00*%
%TF.ProjectId,pannel-overlay,70616e6e-656c-42d6-9f76-65726c61792e,rev?*%
%TF.SameCoordinates,Original*%
%TF.FileFunction,Legend,Bot*%
%TF.FilePolarity,Positive*%
%FSLAX46Y46*%
G04 Gerber Fmt 4.6, Leading zero omitted, Abs format (unit mm)*
G04 Created by KiCad (PCBNEW (5.1.10)-1) date 2021-09-07 16:08:56*
%MOMM*%
%LPD*%
G01*
G04 APERTURE LIST*
%ADD10C,0.150000*%
G04 APERTURE END LIST*
%TO.C,REF\u002A\u002A*%
D10*
X119697142Y-91842380D02*
X119030476Y-91842380D01*
X119459047Y-92842380D01*
X118649523Y-92747142D02*
X118601904Y-92794761D01*
X118649523Y-92842380D01*
X118697142Y-92794761D01*
X118649523Y-92747142D01*
X118649523Y-92842380D01*
X117744761Y-91842380D02*
X117935238Y-91842380D01*
X118030476Y-91890000D01*
X118078095Y-91937619D01*
X118173333Y-92080476D01*
X118220952Y-92270952D01*
X118220952Y-92651904D01*
X118173333Y-92747142D01*
X118125714Y-92794761D01*
X118030476Y-92842380D01*
X117840000Y-92842380D01*
X117744761Y-92794761D01*
X117697142Y-92747142D01*
X117649523Y-92651904D01*
X117649523Y-92413809D01*
X117697142Y-92318571D01*
X117744761Y-92270952D01*
X117840000Y-92223333D01*
X118030476Y-92223333D01*
X118125714Y-92270952D01*
X118173333Y-92318571D01*
X118220952Y-92413809D01*
X117268571Y-91937619D02*
X117220952Y-91890000D01*
X117125714Y-91842380D01*
X116887619Y-91842380D01*
X116792380Y-91890000D01*
X116744761Y-91937619D01*
X116697142Y-92032857D01*
X116697142Y-92128095D01*
X116744761Y-92270952D01*
X117316190Y-92842380D01*
X116697142Y-92842380D01*
X116268571Y-92842380D02*
X116268571Y-92175714D01*
X116268571Y-92270952D02*
X116220952Y-92223333D01*
X116125714Y-92175714D01*
X115982857Y-92175714D01*
X115887619Y-92223333D01*
X115840000Y-92318571D01*
X115840000Y-92842380D01*
X115840000Y-92318571D02*
X115792380Y-92223333D01*
X115697142Y-92175714D01*
X115554285Y-92175714D01*
X115459047Y-92223333D01*
X115411428Y-92318571D01*
X115411428Y-92842380D01*
X114935238Y-92842380D02*
X114935238Y-92175714D01*
X114935238Y-92270952D02*
X114887619Y-92223333D01*
X114792380Y-92175714D01*
X114649523Y-92175714D01*
X114554285Y-92223333D01*
X114506666Y-92318571D01*
X114506666Y-92842380D01*
X114506666Y-92318571D02*
X114459047Y-92223333D01*
X114363809Y-92175714D01*
X114220952Y-92175714D01*
X114125714Y-92223333D01*
X114078095Y-92318571D01*
X114078095Y-92842380D01*
%TD*%
M02*
