%TF.GenerationSoftware,KiCad,Pcbnew,(5.1.10)-1*%
%TF.CreationDate,2021-09-07T16:08:56+10:00*%
%TF.ProjectId,pannel-overlay,70616e6e-656c-42d6-9f76-65726c61792e,rev?*%
%TF.SameCoordinates,Original*%
%TF.FileFunction,Legend,Top*%
%TF.FilePolarity,Positive*%
%FSLAX46Y46*%
G04 Gerber Fmt 4.6, Leading zero omitted, Abs format (unit mm)*
G04 Created by KiCad (PCBNEW (5.1.10)-1) date 2021-09-07 16:08:56*
%MOMM*%
%LPD*%
G01*
G04 APERTURE LIST*
%ADD10C,0.100000*%
%ADD11C,0.300000*%
%ADD12C,0.120000*%
G04 APERTURE END LIST*
D10*
G36*
X123190000Y-112395000D02*
G01*
X110490000Y-112395000D01*
X110490000Y-106045000D01*
X123190000Y-106045000D01*
X123190000Y-112395000D01*
G37*
X123190000Y-112395000D02*
X110490000Y-112395000D01*
X110490000Y-106045000D01*
X123190000Y-106045000D01*
X123190000Y-112395000D01*
G36*
X126365000Y-99060000D02*
G01*
X120990360Y-99060000D01*
X121175780Y-98430080D01*
X121175780Y-97160080D01*
X121046240Y-96644460D01*
X120954800Y-96520000D01*
X126365000Y-96520000D01*
X126365000Y-99060000D01*
G37*
X126365000Y-99060000D02*
X120990360Y-99060000D01*
X121175780Y-98430080D01*
X121175780Y-97160080D01*
X121046240Y-96644460D01*
X120954800Y-96520000D01*
X126365000Y-96520000D01*
X126365000Y-99060000D01*
G36*
X112547400Y-97053400D02*
G01*
X112547400Y-98831400D01*
X112699800Y-99060000D01*
X107315000Y-99060000D01*
X107315000Y-96520000D01*
X112674400Y-96520000D01*
X112547400Y-97053400D01*
G37*
X112547400Y-97053400D02*
X112547400Y-98831400D01*
X112699800Y-99060000D01*
X107315000Y-99060000D01*
X107315000Y-96520000D01*
X112674400Y-96520000D01*
X112547400Y-97053400D01*
G36*
X124460000Y-105410000D02*
G01*
X109220000Y-105410000D01*
X109220000Y-102870000D01*
X124460000Y-102870000D01*
X124460000Y-105410000D01*
G37*
X124460000Y-105410000D02*
X109220000Y-105410000D01*
X109220000Y-102870000D01*
X124460000Y-102870000D01*
X124460000Y-105410000D01*
G36*
X124460000Y-92710000D02*
G01*
X109220000Y-92710000D01*
X109220000Y-90170000D01*
X124460000Y-90170000D01*
X124460000Y-92710000D01*
G37*
X124460000Y-92710000D02*
X109220000Y-92710000D01*
X109220000Y-90170000D01*
X124460000Y-90170000D01*
X124460000Y-92710000D01*
G36*
X123190000Y-89535000D02*
G01*
X110490000Y-89535000D01*
X110490000Y-83185000D01*
X123190000Y-83185000D01*
X123190000Y-89535000D01*
G37*
X123190000Y-89535000D02*
X110490000Y-89535000D01*
X110490000Y-83185000D01*
X123190000Y-83185000D01*
X123190000Y-89535000D01*
D11*
X107315000Y-112395000D02*
X107315000Y-83185000D01*
X126365000Y-112395000D02*
X107315000Y-112395000D01*
X126365000Y-83185000D02*
X126365000Y-112395000D01*
X107315000Y-83185000D02*
X126365000Y-83185000D01*
D12*
%TO.C,REF\u002A\u002A*%
X121140000Y-97790000D02*
G75*
G03*
X121140000Y-97790000I-4300000J0D01*
G01*
%TD*%
M02*
