%TF.GenerationSoftware,KiCad,Pcbnew,(5.1.10)-1*%
%TF.CreationDate,2021-11-06T18:31:03+11:00*%
%TF.ProjectId,pannel108-cleanoverlay-v2,70616e6e-656c-4313-9038-2d636c65616e,rev?*%
%TF.SameCoordinates,Original*%
%TF.FileFunction,Legend,Top*%
%TF.FilePolarity,Positive*%
%FSLAX46Y46*%
G04 Gerber Fmt 4.6, Leading zero omitted, Abs format (unit mm)*
G04 Created by KiCad (PCBNEW (5.1.10)-1) date 2021-11-06 18:31:03*
%MOMM*%
%LPD*%
G01*
G04 APERTURE LIST*
%ADD10C,0.150000*%
%ADD11C,0.200000*%
%ADD12C,0.100000*%
%ADD13C,0.120000*%
G04 APERTURE END LIST*
D10*
X78105000Y-61645000D02*
G75*
G03*
X78105000Y-61645000I-1905000J0D01*
G01*
X160655000Y-61645000D02*
G75*
G03*
X160655000Y-61645000I-1905000J0D01*
G01*
X160655000Y-130225000D02*
G75*
G03*
X160655000Y-130225000I-1905000J0D01*
G01*
X78105000Y-130225000D02*
G75*
G03*
X78105000Y-130225000I-1905000J0D01*
G01*
X120015000Y-98475000D02*
X137795000Y-98475000D01*
X137795000Y-98475000D02*
X137795000Y-126415000D01*
X120015000Y-126415000D02*
X120015000Y-98475000D01*
X130810000Y-122605000D02*
G75*
G03*
X130810000Y-122605000I-1905000J0D01*
G01*
X130810000Y-102285000D02*
G75*
G03*
X130810000Y-102285000I-1905000J0D01*
G01*
X137795000Y-126415000D02*
X120015000Y-126415000D01*
X97155000Y-98475000D02*
X114935000Y-98475000D01*
X114935000Y-98475000D02*
X114935000Y-126415000D01*
X97155000Y-126415000D02*
X97155000Y-98475000D01*
X107950000Y-122605000D02*
G75*
G03*
X107950000Y-122605000I-1905000J0D01*
G01*
X107950000Y-102285000D02*
G75*
G03*
X107950000Y-102285000I-1905000J0D01*
G01*
X114935000Y-126415000D02*
X97155000Y-126415000D01*
X120015000Y-65455000D02*
X137795000Y-65455000D01*
X137795000Y-65455000D02*
X137795000Y-93395000D01*
X120015000Y-93395000D02*
X120015000Y-65455000D01*
X130810000Y-89585000D02*
G75*
G03*
X130810000Y-89585000I-1905000J0D01*
G01*
X130810000Y-69265000D02*
G75*
G03*
X130810000Y-69265000I-1905000J0D01*
G01*
X137795000Y-93395000D02*
X120015000Y-93395000D01*
X97155000Y-65455000D02*
X114935000Y-65455000D01*
X114935000Y-65455000D02*
X114935000Y-93395000D01*
X97155000Y-93395000D02*
X97155000Y-65455000D01*
X107950000Y-89585000D02*
G75*
G03*
X107950000Y-89585000I-1905000J0D01*
G01*
X107950000Y-69265000D02*
G75*
G03*
X107950000Y-69265000I-1905000J0D01*
G01*
X114935000Y-93395000D02*
X97155000Y-93395000D01*
X142875000Y-65455000D02*
X160655000Y-65455000D01*
X160655000Y-65455000D02*
X160655000Y-93395000D01*
X142875000Y-93395000D02*
X142875000Y-65455000D01*
X153670000Y-89585000D02*
G75*
G03*
X153670000Y-89585000I-1905000J0D01*
G01*
X153670000Y-69265000D02*
G75*
G03*
X153670000Y-69265000I-1905000J0D01*
G01*
X160655000Y-93395000D02*
X142875000Y-93395000D01*
X142875000Y-98475000D02*
X160655000Y-98475000D01*
X160655000Y-98475000D02*
X160655000Y-126415000D01*
X142875000Y-126415000D02*
X142875000Y-98475000D01*
X153670000Y-122605000D02*
G75*
G03*
X153670000Y-122605000I-1905000J0D01*
G01*
X153670000Y-102285000D02*
G75*
G03*
X153670000Y-102285000I-1905000J0D01*
G01*
X160655000Y-126415000D02*
X142875000Y-126415000D01*
X74295000Y-98475000D02*
X92075000Y-98475000D01*
X92075000Y-98475000D02*
X92075000Y-126415000D01*
X74295000Y-126415000D02*
X74295000Y-98475000D01*
X85090000Y-122605000D02*
G75*
G03*
X85090000Y-122605000I-1905000J0D01*
G01*
X85090000Y-102285000D02*
G75*
G03*
X85090000Y-102285000I-1905000J0D01*
G01*
X92075000Y-126415000D02*
X74295000Y-126415000D01*
X74295000Y-65455000D02*
X92075000Y-65455000D01*
X92075000Y-65455000D02*
X92075000Y-93395000D01*
X74295000Y-93395000D02*
X74295000Y-65455000D01*
X85090000Y-89585000D02*
G75*
G03*
X85090000Y-89585000I-1905000J0D01*
G01*
X85090000Y-69265000D02*
G75*
G03*
X85090000Y-69265000I-1905000J0D01*
G01*
X92075000Y-93395000D02*
X74295000Y-93395000D01*
D11*
X101459285Y-141698571D02*
X100602142Y-141698571D01*
X101030714Y-141698571D02*
X101030714Y-140198571D01*
X100887857Y-140412857D01*
X100745000Y-140555714D01*
X100602142Y-140627142D01*
X102387857Y-140198571D02*
X102530714Y-140198571D01*
X102673571Y-140270000D01*
X102745000Y-140341428D01*
X102816428Y-140484285D01*
X102887857Y-140770000D01*
X102887857Y-141127142D01*
X102816428Y-141412857D01*
X102745000Y-141555714D01*
X102673571Y-141627142D01*
X102530714Y-141698571D01*
X102387857Y-141698571D01*
X102245000Y-141627142D01*
X102173571Y-141555714D01*
X102102142Y-141412857D01*
X102030714Y-141127142D01*
X102030714Y-140770000D01*
X102102142Y-140484285D01*
X102173571Y-140341428D01*
X102245000Y-140270000D01*
X102387857Y-140198571D01*
X103745000Y-140841428D02*
X103602142Y-140770000D01*
X103530714Y-140698571D01*
X103459285Y-140555714D01*
X103459285Y-140484285D01*
X103530714Y-140341428D01*
X103602142Y-140270000D01*
X103745000Y-140198571D01*
X104030714Y-140198571D01*
X104173571Y-140270000D01*
X104245000Y-140341428D01*
X104316428Y-140484285D01*
X104316428Y-140555714D01*
X104245000Y-140698571D01*
X104173571Y-140770000D01*
X104030714Y-140841428D01*
X103745000Y-140841428D01*
X103602142Y-140912857D01*
X103530714Y-140984285D01*
X103459285Y-141127142D01*
X103459285Y-141412857D01*
X103530714Y-141555714D01*
X103602142Y-141627142D01*
X103745000Y-141698571D01*
X104030714Y-141698571D01*
X104173571Y-141627142D01*
X104245000Y-141555714D01*
X104316428Y-141412857D01*
X104316428Y-141127142D01*
X104245000Y-140984285D01*
X104173571Y-140912857D01*
X104030714Y-140841428D01*
X104959285Y-141698571D02*
X104959285Y-140698571D01*
X104959285Y-140841428D02*
X105030714Y-140770000D01*
X105173571Y-140698571D01*
X105387857Y-140698571D01*
X105530714Y-140770000D01*
X105602142Y-140912857D01*
X105602142Y-141698571D01*
X105602142Y-140912857D02*
X105673571Y-140770000D01*
X105816428Y-140698571D01*
X106030714Y-140698571D01*
X106173571Y-140770000D01*
X106245000Y-140912857D01*
X106245000Y-141698571D01*
X106959285Y-141698571D02*
X106959285Y-140698571D01*
X106959285Y-140841428D02*
X107030714Y-140770000D01*
X107173571Y-140698571D01*
X107387857Y-140698571D01*
X107530714Y-140770000D01*
X107602142Y-140912857D01*
X107602142Y-141698571D01*
X107602142Y-140912857D02*
X107673571Y-140770000D01*
X107816428Y-140698571D01*
X108030714Y-140698571D01*
X108173571Y-140770000D01*
X108245000Y-140912857D01*
X108245000Y-141698571D01*
X109959285Y-141698571D02*
X110745000Y-140698571D01*
X109959285Y-140698571D02*
X110745000Y-141698571D01*
X113245000Y-141698571D02*
X112387857Y-141698571D01*
X112816428Y-141698571D02*
X112816428Y-140198571D01*
X112673571Y-140412857D01*
X112530714Y-140555714D01*
X112387857Y-140627142D01*
X114173571Y-140198571D02*
X114316428Y-140198571D01*
X114459285Y-140270000D01*
X114530714Y-140341428D01*
X114602142Y-140484285D01*
X114673571Y-140770000D01*
X114673571Y-141127142D01*
X114602142Y-141412857D01*
X114530714Y-141555714D01*
X114459285Y-141627142D01*
X114316428Y-141698571D01*
X114173571Y-141698571D01*
X114030714Y-141627142D01*
X113959285Y-141555714D01*
X113887857Y-141412857D01*
X113816428Y-141127142D01*
X113816428Y-140770000D01*
X113887857Y-140484285D01*
X113959285Y-140341428D01*
X114030714Y-140270000D01*
X114173571Y-140198571D01*
X115530714Y-140841428D02*
X115387857Y-140770000D01*
X115316428Y-140698571D01*
X115245000Y-140555714D01*
X115245000Y-140484285D01*
X115316428Y-140341428D01*
X115387857Y-140270000D01*
X115530714Y-140198571D01*
X115816428Y-140198571D01*
X115959285Y-140270000D01*
X116030714Y-140341428D01*
X116102142Y-140484285D01*
X116102142Y-140555714D01*
X116030714Y-140698571D01*
X115959285Y-140770000D01*
X115816428Y-140841428D01*
X115530714Y-140841428D01*
X115387857Y-140912857D01*
X115316428Y-140984285D01*
X115245000Y-141127142D01*
X115245000Y-141412857D01*
X115316428Y-141555714D01*
X115387857Y-141627142D01*
X115530714Y-141698571D01*
X115816428Y-141698571D01*
X115959285Y-141627142D01*
X116030714Y-141555714D01*
X116102142Y-141412857D01*
X116102142Y-141127142D01*
X116030714Y-140984285D01*
X115959285Y-140912857D01*
X115816428Y-140841428D01*
X116745000Y-141698571D02*
X116745000Y-140698571D01*
X116745000Y-140841428D02*
X116816428Y-140770000D01*
X116959285Y-140698571D01*
X117173571Y-140698571D01*
X117316428Y-140770000D01*
X117387857Y-140912857D01*
X117387857Y-141698571D01*
X117387857Y-140912857D02*
X117459285Y-140770000D01*
X117602142Y-140698571D01*
X117816428Y-140698571D01*
X117959285Y-140770000D01*
X118030714Y-140912857D01*
X118030714Y-141698571D01*
X118745000Y-141698571D02*
X118745000Y-140698571D01*
X118745000Y-140841428D02*
X118816428Y-140770000D01*
X118959285Y-140698571D01*
X119173571Y-140698571D01*
X119316428Y-140770000D01*
X119387857Y-140912857D01*
X119387857Y-141698571D01*
X119387857Y-140912857D02*
X119459285Y-140770000D01*
X119602142Y-140698571D01*
X119816428Y-140698571D01*
X119959285Y-140770000D01*
X120030714Y-140912857D01*
X120030714Y-141698571D01*
X122173571Y-140198571D02*
X122459285Y-140198571D01*
X122602142Y-140270000D01*
X122745000Y-140412857D01*
X122816428Y-140698571D01*
X122816428Y-141198571D01*
X122745000Y-141484285D01*
X122602142Y-141627142D01*
X122459285Y-141698571D01*
X122173571Y-141698571D01*
X122030714Y-141627142D01*
X121887857Y-141484285D01*
X121816428Y-141198571D01*
X121816428Y-140698571D01*
X121887857Y-140412857D01*
X122030714Y-140270000D01*
X122173571Y-140198571D01*
X123316428Y-140698571D02*
X123673571Y-141698571D01*
X124030714Y-140698571D01*
X125173571Y-141627142D02*
X125030714Y-141698571D01*
X124745000Y-141698571D01*
X124602142Y-141627142D01*
X124530714Y-141484285D01*
X124530714Y-140912857D01*
X124602142Y-140770000D01*
X124745000Y-140698571D01*
X125030714Y-140698571D01*
X125173571Y-140770000D01*
X125245000Y-140912857D01*
X125245000Y-141055714D01*
X124530714Y-141198571D01*
X125887857Y-141698571D02*
X125887857Y-140698571D01*
X125887857Y-140984285D02*
X125959285Y-140841428D01*
X126030714Y-140770000D01*
X126173571Y-140698571D01*
X126316428Y-140698571D01*
X127030714Y-141698571D02*
X126887857Y-141627142D01*
X126816428Y-141484285D01*
X126816428Y-140198571D01*
X128245000Y-141698571D02*
X128245000Y-140912857D01*
X128173571Y-140770000D01*
X128030714Y-140698571D01*
X127745000Y-140698571D01*
X127602142Y-140770000D01*
X128245000Y-141627142D02*
X128102142Y-141698571D01*
X127745000Y-141698571D01*
X127602142Y-141627142D01*
X127530714Y-141484285D01*
X127530714Y-141341428D01*
X127602142Y-141198571D01*
X127745000Y-141127142D01*
X128102142Y-141127142D01*
X128245000Y-141055714D01*
X128816428Y-140698571D02*
X129173571Y-141698571D01*
X129530714Y-140698571D02*
X129173571Y-141698571D01*
X129030714Y-142055714D01*
X128959285Y-142127142D01*
X128816428Y-142198571D01*
X131245000Y-141698571D02*
X131245000Y-140198571D01*
X131816428Y-140198571D01*
X131959285Y-140270000D01*
X132030714Y-140341428D01*
X132102142Y-140484285D01*
X132102142Y-140698571D01*
X132030714Y-140841428D01*
X131959285Y-140912857D01*
X131816428Y-140984285D01*
X131245000Y-140984285D01*
X133387857Y-141698571D02*
X133387857Y-140912857D01*
X133316428Y-140770000D01*
X133173571Y-140698571D01*
X132887857Y-140698571D01*
X132745000Y-140770000D01*
X133387857Y-141627142D02*
X133245000Y-141698571D01*
X132887857Y-141698571D01*
X132745000Y-141627142D01*
X132673571Y-141484285D01*
X132673571Y-141341428D01*
X132745000Y-141198571D01*
X132887857Y-141127142D01*
X133245000Y-141127142D01*
X133387857Y-141055714D01*
X134102142Y-140698571D02*
X134102142Y-141698571D01*
X134102142Y-140841428D02*
X134173571Y-140770000D01*
X134316428Y-140698571D01*
X134530714Y-140698571D01*
X134673571Y-140770000D01*
X134745000Y-140912857D01*
X134745000Y-141698571D01*
X136030714Y-141627142D02*
X135887857Y-141698571D01*
X135602142Y-141698571D01*
X135459285Y-141627142D01*
X135387857Y-141484285D01*
X135387857Y-140912857D01*
X135459285Y-140770000D01*
X135602142Y-140698571D01*
X135887857Y-140698571D01*
X136030714Y-140770000D01*
X136102142Y-140912857D01*
X136102142Y-141055714D01*
X135387857Y-141198571D01*
X136959285Y-141698571D02*
X136816428Y-141627142D01*
X136745000Y-141484285D01*
X136745000Y-140198571D01*
D10*
X64135000Y-149275000D02*
X64135000Y-42595000D01*
X170815000Y-149275000D02*
X64135000Y-149275000D01*
X170815000Y-42595000D02*
X170815000Y-149275000D01*
X64135000Y-42595000D02*
X170815000Y-42595000D01*
X162560000Y-57835000D02*
X72390000Y-57820000D01*
X162560000Y-134020000D02*
X162560000Y-57835000D01*
X72390000Y-134035000D02*
X162600000Y-134020000D01*
X72390000Y-57835000D02*
X72390000Y-134035000D01*
D12*
X167005000Y-46405000D02*
X167005000Y-145415000D01*
X67945000Y-46405000D02*
X67945000Y-145465000D01*
X67945000Y-145465000D02*
X167005000Y-145415000D01*
X67945000Y-46405000D02*
X167005000Y-46405000D01*
D13*
%TO.C,REF\u002A\u002A*%
X132715000Y-112445000D02*
G75*
G03*
X132715000Y-112445000I-3810000J0D01*
G01*
X109855000Y-112445000D02*
G75*
G03*
X109855000Y-112445000I-3810000J0D01*
G01*
X132715000Y-79425000D02*
G75*
G03*
X132715000Y-79425000I-3810000J0D01*
G01*
X109855000Y-79425000D02*
G75*
G03*
X109855000Y-79425000I-3810000J0D01*
G01*
X155575000Y-79425000D02*
G75*
G03*
X155575000Y-79425000I-3810000J0D01*
G01*
X155575000Y-112445000D02*
G75*
G03*
X155575000Y-112445000I-3810000J0D01*
G01*
X86995000Y-112445000D02*
G75*
G03*
X86995000Y-112445000I-3810000J0D01*
G01*
X86995000Y-79425000D02*
G75*
G03*
X86995000Y-79425000I-3810000J0D01*
G01*
%TD*%
M02*
