M48
; DRILL file {KiCad (5.1.10)-1} date 11/06/21 18:12:40
; FORMAT={-:-/ absolute / metric / decimal}
; #@! TF.CreationDate,2021-11-06T18:12:40+11:00
; #@! TF.GenerationSoftware,Kicad,Pcbnew,(5.1.10)-1
; #@! TF.FileFunction,NonPlated,1,2,NPTH
FMAT,2
METRIC
T1C3.200
T2C4.000
T3C6.350
%
G90
G05
T1
X76.2Y-61.645
X76.2Y-130.225
X83.185Y-69.265
X83.185Y-89.585
X83.185Y-102.285
X83.185Y-122.605
X106.045Y-69.265
X106.045Y-89.585
X106.045Y-102.285
X106.045Y-122.605
X128.905Y-69.265
X128.905Y-89.585
X128.905Y-102.285
X128.905Y-122.605
X151.765Y-69.265
X151.765Y-89.585
X151.765Y-102.285
X151.765Y-122.605
X158.75Y-61.63
X158.75Y-130.225
T2
X73.025Y-140.385
X73.03Y-51.485
X161.925Y-51.485
X161.925Y-140.385
T3
X83.185Y-79.425
X83.185Y-112.445
X106.045Y-79.425
X106.045Y-112.445
X128.905Y-79.425
X128.905Y-112.445
X151.765Y-79.425
X151.765Y-112.445
T0
M30
