%TF.GenerationSoftware,KiCad,Pcbnew,(5.1.10)-1*%
%TF.CreationDate,2021-11-06T18:30:37+11:00*%
%TF.ProjectId,pannel108-v2,70616e6e-656c-4313-9038-2d76322e6b69,rev?*%
%TF.SameCoordinates,Original*%
%TF.FileFunction,Legend,Top*%
%TF.FilePolarity,Positive*%
%FSLAX46Y46*%
G04 Gerber Fmt 4.6, Leading zero omitted, Abs format (unit mm)*
G04 Created by KiCad (PCBNEW (5.1.10)-1) date 2021-11-06 18:30:37*
%MOMM*%
%LPD*%
G01*
G04 APERTURE LIST*
%ADD10C,0.150000*%
%ADD11C,0.200000*%
%ADD12C,0.100000*%
%ADD13C,0.120000*%
G04 APERTURE END LIST*
D10*
X120015000Y-98475000D02*
X137795000Y-98475000D01*
X137795000Y-98475000D02*
X137795000Y-126415000D01*
X120015000Y-126415000D02*
X120015000Y-98475000D01*
X130810000Y-122605000D02*
G75*
G03*
X130810000Y-122605000I-1905000J0D01*
G01*
X130810000Y-102285000D02*
G75*
G03*
X130810000Y-102285000I-1905000J0D01*
G01*
X137795000Y-126415000D02*
X120015000Y-126415000D01*
X97155000Y-98475000D02*
X114935000Y-98475000D01*
X114935000Y-98475000D02*
X114935000Y-126415000D01*
X97155000Y-126415000D02*
X97155000Y-98475000D01*
X107950000Y-122605000D02*
G75*
G03*
X107950000Y-122605000I-1905000J0D01*
G01*
X107950000Y-102285000D02*
G75*
G03*
X107950000Y-102285000I-1905000J0D01*
G01*
X114935000Y-126415000D02*
X97155000Y-126415000D01*
X120015000Y-65455000D02*
X137795000Y-65455000D01*
X137795000Y-65455000D02*
X137795000Y-93395000D01*
X120015000Y-93395000D02*
X120015000Y-65455000D01*
X130810000Y-89585000D02*
G75*
G03*
X130810000Y-89585000I-1905000J0D01*
G01*
X130810000Y-69265000D02*
G75*
G03*
X130810000Y-69265000I-1905000J0D01*
G01*
X137795000Y-93395000D02*
X120015000Y-93395000D01*
X97155000Y-65455000D02*
X114935000Y-65455000D01*
X114935000Y-65455000D02*
X114935000Y-93395000D01*
X97155000Y-93395000D02*
X97155000Y-65455000D01*
X107950000Y-89585000D02*
G75*
G03*
X107950000Y-89585000I-1905000J0D01*
G01*
X107950000Y-69265000D02*
G75*
G03*
X107950000Y-69265000I-1905000J0D01*
G01*
X114935000Y-93395000D02*
X97155000Y-93395000D01*
X142875000Y-65455000D02*
X160655000Y-65455000D01*
X160655000Y-65455000D02*
X160655000Y-93395000D01*
X142875000Y-93395000D02*
X142875000Y-65455000D01*
X153670000Y-89585000D02*
G75*
G03*
X153670000Y-89585000I-1905000J0D01*
G01*
X153670000Y-69265000D02*
G75*
G03*
X153670000Y-69265000I-1905000J0D01*
G01*
X160655000Y-93395000D02*
X142875000Y-93395000D01*
X142875000Y-98475000D02*
X160655000Y-98475000D01*
X160655000Y-98475000D02*
X160655000Y-126415000D01*
X142875000Y-126415000D02*
X142875000Y-98475000D01*
X153670000Y-122605000D02*
G75*
G03*
X153670000Y-122605000I-1905000J0D01*
G01*
X153670000Y-102285000D02*
G75*
G03*
X153670000Y-102285000I-1905000J0D01*
G01*
X160655000Y-126415000D02*
X142875000Y-126415000D01*
X74295000Y-98475000D02*
X92075000Y-98475000D01*
X92075000Y-98475000D02*
X92075000Y-126415000D01*
X74295000Y-126415000D02*
X74295000Y-98475000D01*
X85090000Y-122605000D02*
G75*
G03*
X85090000Y-122605000I-1905000J0D01*
G01*
X85090000Y-102285000D02*
G75*
G03*
X85090000Y-102285000I-1905000J0D01*
G01*
X92075000Y-126415000D02*
X74295000Y-126415000D01*
X74295000Y-65455000D02*
X92075000Y-65455000D01*
X92075000Y-65455000D02*
X92075000Y-93395000D01*
X74295000Y-93395000D02*
X74295000Y-65455000D01*
X85090000Y-89585000D02*
G75*
G03*
X85090000Y-89585000I-1905000J0D01*
G01*
X85090000Y-69265000D02*
G75*
G03*
X85090000Y-69265000I-1905000J0D01*
G01*
X92075000Y-93395000D02*
X74295000Y-93395000D01*
D11*
X98495000Y-141698571D02*
X97637857Y-141698571D01*
X98066428Y-141698571D02*
X98066428Y-140198571D01*
X97923571Y-140412857D01*
X97780714Y-140555714D01*
X97637857Y-140627142D01*
X99423571Y-140198571D02*
X99566428Y-140198571D01*
X99709285Y-140270000D01*
X99780714Y-140341428D01*
X99852142Y-140484285D01*
X99923571Y-140770000D01*
X99923571Y-141127142D01*
X99852142Y-141412857D01*
X99780714Y-141555714D01*
X99709285Y-141627142D01*
X99566428Y-141698571D01*
X99423571Y-141698571D01*
X99280714Y-141627142D01*
X99209285Y-141555714D01*
X99137857Y-141412857D01*
X99066428Y-141127142D01*
X99066428Y-140770000D01*
X99137857Y-140484285D01*
X99209285Y-140341428D01*
X99280714Y-140270000D01*
X99423571Y-140198571D01*
X100780714Y-140841428D02*
X100637857Y-140770000D01*
X100566428Y-140698571D01*
X100495000Y-140555714D01*
X100495000Y-140484285D01*
X100566428Y-140341428D01*
X100637857Y-140270000D01*
X100780714Y-140198571D01*
X101066428Y-140198571D01*
X101209285Y-140270000D01*
X101280714Y-140341428D01*
X101352142Y-140484285D01*
X101352142Y-140555714D01*
X101280714Y-140698571D01*
X101209285Y-140770000D01*
X101066428Y-140841428D01*
X100780714Y-140841428D01*
X100637857Y-140912857D01*
X100566428Y-140984285D01*
X100495000Y-141127142D01*
X100495000Y-141412857D01*
X100566428Y-141555714D01*
X100637857Y-141627142D01*
X100780714Y-141698571D01*
X101066428Y-141698571D01*
X101209285Y-141627142D01*
X101280714Y-141555714D01*
X101352142Y-141412857D01*
X101352142Y-141127142D01*
X101280714Y-140984285D01*
X101209285Y-140912857D01*
X101066428Y-140841428D01*
X101995000Y-141698571D02*
X101995000Y-140698571D01*
X101995000Y-140841428D02*
X102066428Y-140770000D01*
X102209285Y-140698571D01*
X102423571Y-140698571D01*
X102566428Y-140770000D01*
X102637857Y-140912857D01*
X102637857Y-141698571D01*
X102637857Y-140912857D02*
X102709285Y-140770000D01*
X102852142Y-140698571D01*
X103066428Y-140698571D01*
X103209285Y-140770000D01*
X103280714Y-140912857D01*
X103280714Y-141698571D01*
X103995000Y-141698571D02*
X103995000Y-140698571D01*
X103995000Y-140841428D02*
X104066428Y-140770000D01*
X104209285Y-140698571D01*
X104423571Y-140698571D01*
X104566428Y-140770000D01*
X104637857Y-140912857D01*
X104637857Y-141698571D01*
X104637857Y-140912857D02*
X104709285Y-140770000D01*
X104852142Y-140698571D01*
X105066428Y-140698571D01*
X105209285Y-140770000D01*
X105280714Y-140912857D01*
X105280714Y-141698571D01*
X106995000Y-141698571D02*
X107780714Y-140698571D01*
X106995000Y-140698571D02*
X107780714Y-141698571D01*
X110280714Y-141698571D02*
X109423571Y-141698571D01*
X109852142Y-141698571D02*
X109852142Y-140198571D01*
X109709285Y-140412857D01*
X109566428Y-140555714D01*
X109423571Y-140627142D01*
X111209285Y-140198571D02*
X111352142Y-140198571D01*
X111495000Y-140270000D01*
X111566428Y-140341428D01*
X111637857Y-140484285D01*
X111709285Y-140770000D01*
X111709285Y-141127142D01*
X111637857Y-141412857D01*
X111566428Y-141555714D01*
X111495000Y-141627142D01*
X111352142Y-141698571D01*
X111209285Y-141698571D01*
X111066428Y-141627142D01*
X110995000Y-141555714D01*
X110923571Y-141412857D01*
X110852142Y-141127142D01*
X110852142Y-140770000D01*
X110923571Y-140484285D01*
X110995000Y-140341428D01*
X111066428Y-140270000D01*
X111209285Y-140198571D01*
X112566428Y-140841428D02*
X112423571Y-140770000D01*
X112352142Y-140698571D01*
X112280714Y-140555714D01*
X112280714Y-140484285D01*
X112352142Y-140341428D01*
X112423571Y-140270000D01*
X112566428Y-140198571D01*
X112852142Y-140198571D01*
X112995000Y-140270000D01*
X113066428Y-140341428D01*
X113137857Y-140484285D01*
X113137857Y-140555714D01*
X113066428Y-140698571D01*
X112995000Y-140770000D01*
X112852142Y-140841428D01*
X112566428Y-140841428D01*
X112423571Y-140912857D01*
X112352142Y-140984285D01*
X112280714Y-141127142D01*
X112280714Y-141412857D01*
X112352142Y-141555714D01*
X112423571Y-141627142D01*
X112566428Y-141698571D01*
X112852142Y-141698571D01*
X112995000Y-141627142D01*
X113066428Y-141555714D01*
X113137857Y-141412857D01*
X113137857Y-141127142D01*
X113066428Y-140984285D01*
X112995000Y-140912857D01*
X112852142Y-140841428D01*
X113780714Y-141698571D02*
X113780714Y-140698571D01*
X113780714Y-140841428D02*
X113852142Y-140770000D01*
X113995000Y-140698571D01*
X114209285Y-140698571D01*
X114352142Y-140770000D01*
X114423571Y-140912857D01*
X114423571Y-141698571D01*
X114423571Y-140912857D02*
X114495000Y-140770000D01*
X114637857Y-140698571D01*
X114852142Y-140698571D01*
X114995000Y-140770000D01*
X115066428Y-140912857D01*
X115066428Y-141698571D01*
X115780714Y-141698571D02*
X115780714Y-140698571D01*
X115780714Y-140841428D02*
X115852142Y-140770000D01*
X115995000Y-140698571D01*
X116209285Y-140698571D01*
X116352142Y-140770000D01*
X116423571Y-140912857D01*
X116423571Y-141698571D01*
X116423571Y-140912857D02*
X116495000Y-140770000D01*
X116637857Y-140698571D01*
X116852142Y-140698571D01*
X116995000Y-140770000D01*
X117066428Y-140912857D01*
X117066428Y-141698571D01*
X118852142Y-141627142D02*
X119066428Y-141698571D01*
X119423571Y-141698571D01*
X119566428Y-141627142D01*
X119637857Y-141555714D01*
X119709285Y-141412857D01*
X119709285Y-141270000D01*
X119637857Y-141127142D01*
X119566428Y-141055714D01*
X119423571Y-140984285D01*
X119137857Y-140912857D01*
X118995000Y-140841428D01*
X118923571Y-140770000D01*
X118852142Y-140627142D01*
X118852142Y-140484285D01*
X118923571Y-140341428D01*
X118995000Y-140270000D01*
X119137857Y-140198571D01*
X119495000Y-140198571D01*
X119709285Y-140270000D01*
X120995000Y-140698571D02*
X120995000Y-141698571D01*
X120352142Y-140698571D02*
X120352142Y-141484285D01*
X120423571Y-141627142D01*
X120566428Y-141698571D01*
X120780714Y-141698571D01*
X120923571Y-141627142D01*
X120995000Y-141555714D01*
X121709285Y-141698571D02*
X121709285Y-140198571D01*
X121709285Y-140770000D02*
X121852142Y-140698571D01*
X122137857Y-140698571D01*
X122280714Y-140770000D01*
X122352142Y-140841428D01*
X122423571Y-140984285D01*
X122423571Y-141412857D01*
X122352142Y-141555714D01*
X122280714Y-141627142D01*
X122137857Y-141698571D01*
X121852142Y-141698571D01*
X121709285Y-141627142D01*
X124709285Y-140912857D02*
X124209285Y-140912857D01*
X124209285Y-141698571D02*
X124209285Y-140198571D01*
X124923571Y-140198571D01*
X125495000Y-141698571D02*
X125495000Y-140698571D01*
X125495000Y-140198571D02*
X125423571Y-140270000D01*
X125495000Y-140341428D01*
X125566428Y-140270000D01*
X125495000Y-140198571D01*
X125495000Y-140341428D01*
X126066428Y-141698571D02*
X126852142Y-140698571D01*
X126066428Y-140698571D02*
X126852142Y-141698571D01*
X128066428Y-141698571D02*
X128066428Y-140912857D01*
X127995000Y-140770000D01*
X127852142Y-140698571D01*
X127566428Y-140698571D01*
X127423571Y-140770000D01*
X128066428Y-141627142D02*
X127923571Y-141698571D01*
X127566428Y-141698571D01*
X127423571Y-141627142D01*
X127352142Y-141484285D01*
X127352142Y-141341428D01*
X127423571Y-141198571D01*
X127566428Y-141127142D01*
X127923571Y-141127142D01*
X128066428Y-141055714D01*
X128566428Y-140698571D02*
X129137857Y-140698571D01*
X128780714Y-140198571D02*
X128780714Y-141484285D01*
X128852142Y-141627142D01*
X128995000Y-141698571D01*
X129137857Y-141698571D01*
X129637857Y-141698571D02*
X129637857Y-140698571D01*
X129637857Y-140198571D02*
X129566428Y-140270000D01*
X129637857Y-140341428D01*
X129709285Y-140270000D01*
X129637857Y-140198571D01*
X129637857Y-140341428D01*
X130566428Y-141698571D02*
X130423571Y-141627142D01*
X130352142Y-141555714D01*
X130280714Y-141412857D01*
X130280714Y-140984285D01*
X130352142Y-140841428D01*
X130423571Y-140770000D01*
X130566428Y-140698571D01*
X130780714Y-140698571D01*
X130923571Y-140770000D01*
X130995000Y-140841428D01*
X131066428Y-140984285D01*
X131066428Y-141412857D01*
X130995000Y-141555714D01*
X130923571Y-141627142D01*
X130780714Y-141698571D01*
X130566428Y-141698571D01*
X131709285Y-140698571D02*
X131709285Y-141698571D01*
X131709285Y-140841428D02*
X131780714Y-140770000D01*
X131923571Y-140698571D01*
X132137857Y-140698571D01*
X132280714Y-140770000D01*
X132352142Y-140912857D01*
X132352142Y-141698571D01*
X134209285Y-141698571D02*
X134209285Y-140198571D01*
X134780714Y-140198571D01*
X134923571Y-140270000D01*
X134995000Y-140341428D01*
X135066428Y-140484285D01*
X135066428Y-140698571D01*
X134995000Y-140841428D01*
X134923571Y-140912857D01*
X134780714Y-140984285D01*
X134209285Y-140984285D01*
X136352142Y-141698571D02*
X136352142Y-140912857D01*
X136280714Y-140770000D01*
X136137857Y-140698571D01*
X135852142Y-140698571D01*
X135709285Y-140770000D01*
X136352142Y-141627142D02*
X136209285Y-141698571D01*
X135852142Y-141698571D01*
X135709285Y-141627142D01*
X135637857Y-141484285D01*
X135637857Y-141341428D01*
X135709285Y-141198571D01*
X135852142Y-141127142D01*
X136209285Y-141127142D01*
X136352142Y-141055714D01*
X137066428Y-140698571D02*
X137066428Y-141698571D01*
X137066428Y-140841428D02*
X137137857Y-140770000D01*
X137280714Y-140698571D01*
X137495000Y-140698571D01*
X137637857Y-140770000D01*
X137709285Y-140912857D01*
X137709285Y-141698571D01*
X138995000Y-141627142D02*
X138852142Y-141698571D01*
X138566428Y-141698571D01*
X138423571Y-141627142D01*
X138352142Y-141484285D01*
X138352142Y-140912857D01*
X138423571Y-140770000D01*
X138566428Y-140698571D01*
X138852142Y-140698571D01*
X138995000Y-140770000D01*
X139066428Y-140912857D01*
X139066428Y-141055714D01*
X138352142Y-141198571D01*
X139923571Y-141698571D02*
X139780714Y-141627142D01*
X139709285Y-141484285D01*
X139709285Y-140198571D01*
D10*
X64135000Y-149275000D02*
X64135000Y-42595000D01*
X170815000Y-149275000D02*
X64135000Y-149275000D01*
X170815000Y-42595000D02*
X170815000Y-149275000D01*
X64135000Y-42595000D02*
X170815000Y-42595000D01*
X162560000Y-57835000D02*
X72390000Y-57820000D01*
X162560000Y-134020000D02*
X162560000Y-57835000D01*
X72390000Y-134035000D02*
X162600000Y-134020000D01*
X72390000Y-57835000D02*
X72390000Y-134035000D01*
D12*
X167005000Y-46405000D02*
X167005000Y-145415000D01*
X67945000Y-46405000D02*
X67945000Y-145465000D01*
X67945000Y-145465000D02*
X167005000Y-145415000D01*
X67945000Y-46405000D02*
X167005000Y-46405000D01*
D13*
%TO.C,REF\u002A\u002A*%
X132715000Y-112445000D02*
G75*
G03*
X132715000Y-112445000I-3810000J0D01*
G01*
X109855000Y-112445000D02*
G75*
G03*
X109855000Y-112445000I-3810000J0D01*
G01*
X132715000Y-79425000D02*
G75*
G03*
X132715000Y-79425000I-3810000J0D01*
G01*
X109855000Y-79425000D02*
G75*
G03*
X109855000Y-79425000I-3810000J0D01*
G01*
X155575000Y-79425000D02*
G75*
G03*
X155575000Y-79425000I-3810000J0D01*
G01*
X155575000Y-112445000D02*
G75*
G03*
X155575000Y-112445000I-3810000J0D01*
G01*
X86995000Y-112445000D02*
G75*
G03*
X86995000Y-112445000I-3810000J0D01*
G01*
X86995000Y-79425000D02*
G75*
G03*
X86995000Y-79425000I-3810000J0D01*
G01*
%TD*%
M02*
