M48
; DRILL file {KiCad (5.1.10)-1} date 09/06/21 20:37:02
; FORMAT={-:-/ absolute / metric / decimal}
; #@! TF.CreationDate,2021-09-06T20:37:02+10:00
; #@! TF.GenerationSoftware,Kicad,Pcbnew,(5.1.10)-1
; #@! TF.FileFunction,Plated,1,2,PTH
FMAT,2
METRIC
T1C0.500
T2C0.700
T3C0.762
T4C1.000
T5C3.200
%
G90
G05
T1
X163.97Y-95.25
X163.97Y-115.57
X164.673Y-93.553
X164.673Y-96.947
X164.673Y-113.873
X164.673Y-117.267
X166.37Y-92.85
X166.37Y-97.65
X166.37Y-113.17
X166.37Y-117.97
X168.067Y-93.553
X168.067Y-96.947
X168.067Y-113.873
X168.067Y-117.267
X168.77Y-95.25
X168.77Y-115.57
T2
X160.02Y-94.62
X160.02Y-96.52
X160.02Y-114.3
X160.02Y-116.2
X172.72Y-94.62
X172.72Y-96.52
X172.72Y-114.3
X172.72Y-116.2
T4
X160.02Y-102.87
X160.02Y-105.41
X160.02Y-107.95
X172.72Y-100.33
X172.72Y-102.87
X172.72Y-105.41
X172.72Y-107.95
X172.72Y-110.49
T5
X166.37Y-95.25
X166.37Y-115.57
T3
G00X165.481Y-100.71
M15
G01X167.259Y-100.71
M16
G05
G00X165.481Y-105.41
M15
G01X167.259Y-105.41
M16
G05
G00X165.481Y-110.11
M15
G01X167.259Y-110.11
M16
G05
T0
M30
