%TF.GenerationSoftware,KiCad,Pcbnew,(5.1.10)-1*%
%TF.CreationDate,2021-09-06T20:37:00+10:00*%
%TF.ProjectId,BasicSwitchBO,42617369-6353-4776-9974-6368424f2e6b,rev?*%
%TF.SameCoordinates,Original*%
%TF.FileFunction,Legend,Bot*%
%TF.FilePolarity,Positive*%
%FSLAX46Y46*%
G04 Gerber Fmt 4.6, Leading zero omitted, Abs format (unit mm)*
G04 Created by KiCad (PCBNEW (5.1.10)-1) date 2021-09-06 20:37:00*
%MOMM*%
%LPD*%
G01*
G04 APERTURE LIST*
%ADD10C,0.150000*%
G04 APERTURE END LIST*
D10*
X161891309Y-104957619D02*
X161891309Y-105957619D01*
X162272261Y-105957619D01*
X162367500Y-105910000D01*
X162415119Y-105862380D01*
X162462738Y-105767142D01*
X162462738Y-105624285D01*
X162415119Y-105529047D01*
X162367500Y-105481428D01*
X162272261Y-105433809D01*
X161891309Y-105433809D01*
X163605595Y-105862380D02*
X163653214Y-105910000D01*
X163748452Y-105957619D01*
X163986547Y-105957619D01*
X164081785Y-105910000D01*
X164129404Y-105862380D01*
X164177023Y-105767142D01*
X164177023Y-105671904D01*
X164129404Y-105529047D01*
X163557976Y-104957619D01*
X164177023Y-104957619D01*
X167340595Y-107497619D02*
X167340595Y-108497619D01*
X167721547Y-108497619D01*
X167816785Y-108450000D01*
X167864404Y-108402380D01*
X167912023Y-108307142D01*
X167912023Y-108164285D01*
X167864404Y-108069047D01*
X167816785Y-108021428D01*
X167721547Y-107973809D01*
X167340595Y-107973809D01*
X168340595Y-107497619D02*
X168340595Y-108164285D01*
X168340595Y-108497619D02*
X168292976Y-108450000D01*
X168340595Y-108402380D01*
X168388214Y-108450000D01*
X168340595Y-108497619D01*
X168340595Y-108402380D01*
X168816785Y-108164285D02*
X168816785Y-107497619D01*
X168816785Y-108069047D02*
X168864404Y-108116666D01*
X168959642Y-108164285D01*
X169102500Y-108164285D01*
X169197738Y-108116666D01*
X169245357Y-108021428D01*
X169245357Y-107497619D01*
X171007261Y-107497619D02*
X170435833Y-107497619D01*
X170721547Y-107497619D02*
X170721547Y-108497619D01*
X170626309Y-108354761D01*
X170531071Y-108259523D01*
X170435833Y-108211904D01*
X168610595Y-104957619D02*
X168610595Y-105957619D01*
X168991547Y-105957619D01*
X169086785Y-105910000D01*
X169134404Y-105862380D01*
X169182023Y-105767142D01*
X169182023Y-105624285D01*
X169134404Y-105529047D01*
X169086785Y-105481428D01*
X168991547Y-105433809D01*
X168610595Y-105433809D01*
X170324880Y-105862380D02*
X170372500Y-105910000D01*
X170467738Y-105957619D01*
X170705833Y-105957619D01*
X170801071Y-105910000D01*
X170848690Y-105862380D01*
X170896309Y-105767142D01*
X170896309Y-105671904D01*
X170848690Y-105529047D01*
X170277261Y-104957619D01*
X170896309Y-104957619D01*
X167340595Y-102417619D02*
X167340595Y-103417619D01*
X167721547Y-103417619D01*
X167816785Y-103370000D01*
X167864404Y-103322380D01*
X167912023Y-103227142D01*
X167912023Y-103084285D01*
X167864404Y-102989047D01*
X167816785Y-102941428D01*
X167721547Y-102893809D01*
X167340595Y-102893809D01*
X168340595Y-102417619D02*
X168340595Y-103084285D01*
X168340595Y-103417619D02*
X168292976Y-103370000D01*
X168340595Y-103322380D01*
X168388214Y-103370000D01*
X168340595Y-103417619D01*
X168340595Y-103322380D01*
X168816785Y-103084285D02*
X168816785Y-102417619D01*
X168816785Y-102989047D02*
X168864404Y-103036666D01*
X168959642Y-103084285D01*
X169102500Y-103084285D01*
X169197738Y-103036666D01*
X169245357Y-102941428D01*
X169245357Y-102417619D01*
X170388214Y-103417619D02*
X171007261Y-103417619D01*
X170673928Y-103036666D01*
X170816785Y-103036666D01*
X170912023Y-102989047D01*
X170959642Y-102941428D01*
X171007261Y-102846190D01*
X171007261Y-102608095D01*
X170959642Y-102512857D01*
X170912023Y-102465238D01*
X170816785Y-102417619D01*
X170531071Y-102417619D01*
X170435833Y-102465238D01*
X170388214Y-102512857D01*
X169134404Y-110990000D02*
X169039166Y-111037619D01*
X168896309Y-111037619D01*
X168753452Y-110990000D01*
X168658214Y-110894761D01*
X168610595Y-110799523D01*
X168562976Y-110609047D01*
X168562976Y-110466190D01*
X168610595Y-110275714D01*
X168658214Y-110180476D01*
X168753452Y-110085238D01*
X168896309Y-110037619D01*
X168991547Y-110037619D01*
X169134404Y-110085238D01*
X169182023Y-110132857D01*
X169182023Y-110466190D01*
X168991547Y-110466190D01*
X169610595Y-110037619D02*
X169610595Y-111037619D01*
X170182023Y-110037619D01*
X170182023Y-111037619D01*
X170658214Y-110037619D02*
X170658214Y-111037619D01*
X170896309Y-111037619D01*
X171039166Y-110990000D01*
X171134404Y-110894761D01*
X171182023Y-110799523D01*
X171229642Y-110609047D01*
X171229642Y-110466190D01*
X171182023Y-110275714D01*
X171134404Y-110180476D01*
X171039166Y-110085238D01*
X170896309Y-110037619D01*
X170658214Y-110037619D01*
X168467738Y-100877619D02*
X168801071Y-99877619D01*
X169134404Y-100877619D01*
X170039166Y-99972857D02*
X169991547Y-99925238D01*
X169848690Y-99877619D01*
X169753452Y-99877619D01*
X169610595Y-99925238D01*
X169515357Y-100020476D01*
X169467738Y-100115714D01*
X169420119Y-100306190D01*
X169420119Y-100449047D01*
X169467738Y-100639523D01*
X169515357Y-100734761D01*
X169610595Y-100830000D01*
X169753452Y-100877619D01*
X169848690Y-100877619D01*
X169991547Y-100830000D01*
X170039166Y-100782380D01*
X171039166Y-99972857D02*
X170991547Y-99925238D01*
X170848690Y-99877619D01*
X170753452Y-99877619D01*
X170610595Y-99925238D01*
X170515357Y-100020476D01*
X170467738Y-100115714D01*
X170420119Y-100306190D01*
X170420119Y-100449047D01*
X170467738Y-100639523D01*
X170515357Y-100734761D01*
X170610595Y-100830000D01*
X170753452Y-100877619D01*
X170848690Y-100877619D01*
X170991547Y-100830000D01*
X171039166Y-100782380D01*
X162081785Y-108450000D02*
X161986547Y-108497619D01*
X161843690Y-108497619D01*
X161700833Y-108450000D01*
X161605595Y-108354761D01*
X161557976Y-108259523D01*
X161510357Y-108069047D01*
X161510357Y-107926190D01*
X161557976Y-107735714D01*
X161605595Y-107640476D01*
X161700833Y-107545238D01*
X161843690Y-107497619D01*
X161938928Y-107497619D01*
X162081785Y-107545238D01*
X162129404Y-107592857D01*
X162129404Y-107926190D01*
X161938928Y-107926190D01*
X162557976Y-107497619D02*
X162557976Y-108497619D01*
X163129404Y-107497619D01*
X163129404Y-108497619D01*
X163605595Y-107497619D02*
X163605595Y-108497619D01*
X163843690Y-108497619D01*
X163986547Y-108450000D01*
X164081785Y-108354761D01*
X164129404Y-108259523D01*
X164177023Y-108069047D01*
X164177023Y-107926190D01*
X164129404Y-107735714D01*
X164081785Y-107640476D01*
X163986547Y-107545238D01*
X163843690Y-107497619D01*
X163605595Y-107497619D01*
X161605595Y-103417619D02*
X161938928Y-102417619D01*
X162272261Y-103417619D01*
X163177023Y-102512857D02*
X163129404Y-102465238D01*
X162986547Y-102417619D01*
X162891309Y-102417619D01*
X162748452Y-102465238D01*
X162653214Y-102560476D01*
X162605595Y-102655714D01*
X162557976Y-102846190D01*
X162557976Y-102989047D01*
X162605595Y-103179523D01*
X162653214Y-103274761D01*
X162748452Y-103370000D01*
X162891309Y-103417619D01*
X162986547Y-103417619D01*
X163129404Y-103370000D01*
X163177023Y-103322380D01*
X164177023Y-102512857D02*
X164129404Y-102465238D01*
X163986547Y-102417619D01*
X163891309Y-102417619D01*
X163748452Y-102465238D01*
X163653214Y-102560476D01*
X163605595Y-102655714D01*
X163557976Y-102846190D01*
X163557976Y-102989047D01*
X163605595Y-103179523D01*
X163653214Y-103274761D01*
X163748452Y-103370000D01*
X163891309Y-103417619D01*
X163986547Y-103417619D01*
X164129404Y-103370000D01*
X164177023Y-103322380D01*
M02*
