%TF.GenerationSoftware,KiCad,Pcbnew,(5.1.10)-1*%
%TF.CreationDate,2021-09-06T20:37:00+10:00*%
%TF.ProjectId,BasicSwitchBO,42617369-6353-4776-9974-6368424f2e6b,rev?*%
%TF.SameCoordinates,Original*%
%TF.FileFunction,Copper,L2,Bot*%
%TF.FilePolarity,Positive*%
%FSLAX46Y46*%
G04 Gerber Fmt 4.6, Leading zero omitted, Abs format (unit mm)*
G04 Created by KiCad (PCBNEW (5.1.10)-1) date 2021-09-06 20:37:00*
%MOMM*%
%LPD*%
G01*
G04 APERTURE LIST*
%TA.AperFunction,ComponentPad*%
%ADD10O,4.000000X2.000000*%
%TD*%
%TA.AperFunction,ComponentPad*%
%ADD11R,1.700000X1.700000*%
%TD*%
%TA.AperFunction,ComponentPad*%
%ADD12O,1.700000X1.700000*%
%TD*%
%TA.AperFunction,ComponentPad*%
%ADD13C,1.400000*%
%TD*%
%TA.AperFunction,ComponentPad*%
%ADD14O,1.400000X1.400000*%
%TD*%
%TA.AperFunction,ComponentPad*%
%ADD15C,6.400000*%
%TD*%
%TA.AperFunction,ComponentPad*%
%ADD16C,0.800000*%
%TD*%
%TA.AperFunction,Conductor*%
%ADD17C,0.500000*%
%TD*%
%TA.AperFunction,Conductor*%
%ADD18C,0.250000*%
%TD*%
%TA.AperFunction,Conductor*%
%ADD19C,0.254000*%
%TD*%
%TA.AperFunction,Conductor*%
%ADD20C,0.100000*%
%TD*%
G04 APERTURE END LIST*
D10*
%TO.P,SW1,1*%
%TO.N,Net-(J2-Pad2)*%
X166370000Y-110110000D03*
%TO.P,SW1,2*%
%TO.N,Net-(J1-Pad2)*%
X166370000Y-105410000D03*
%TO.P,SW1,3*%
%TO.N,Net-(J2-Pad4)*%
X166370000Y-100710000D03*
%TD*%
D11*
%TO.P,J1,1*%
%TO.N,GND*%
X160020000Y-107950000D03*
D12*
%TO.P,J1,2*%
%TO.N,Net-(J1-Pad2)*%
X160020000Y-105410000D03*
%TO.P,J1,3*%
%TO.N,VCC*%
X160020000Y-102870000D03*
%TD*%
D13*
%TO.P,R4,1*%
%TO.N,Net-(J2-Pad4)*%
X160020000Y-96520000D03*
D14*
%TO.P,R4,2*%
%TO.N,GND*%
X160020000Y-94620000D03*
%TD*%
D13*
%TO.P,R3,1*%
%TO.N,GND*%
X160020000Y-116200000D03*
D14*
%TO.P,R3,2*%
%TO.N,Net-(J2-Pad2)*%
X160020000Y-114300000D03*
%TD*%
D13*
%TO.P,R2,1*%
%TO.N,Net-(J2-Pad4)*%
X172720000Y-96520000D03*
D14*
%TO.P,R2,2*%
%TO.N,VCC*%
X172720000Y-94620000D03*
%TD*%
D13*
%TO.P,R1,1*%
%TO.N,VCC*%
X172720000Y-116200000D03*
D14*
%TO.P,R1,2*%
%TO.N,Net-(J2-Pad2)*%
X172720000Y-114300000D03*
%TD*%
D11*
%TO.P,J2,1*%
%TO.N,GND*%
X172720000Y-110490000D03*
D12*
%TO.P,J2,2*%
%TO.N,Net-(J2-Pad2)*%
X172720000Y-107950000D03*
%TO.P,J2,3*%
%TO.N,Net-(J1-Pad2)*%
X172720000Y-105410000D03*
%TO.P,J2,4*%
%TO.N,Net-(J2-Pad4)*%
X172720000Y-102870000D03*
%TO.P,J2,5*%
%TO.N,VCC*%
X172720000Y-100330000D03*
%TD*%
D15*
%TO.P,H2,1*%
%TO.N,GND*%
X166370000Y-115570000D03*
D16*
X168770000Y-115570000D03*
X168067056Y-117267056D03*
X166370000Y-117970000D03*
X164672944Y-117267056D03*
X163970000Y-115570000D03*
X164672944Y-113872944D03*
X166370000Y-113170000D03*
X168067056Y-113872944D03*
%TD*%
D15*
%TO.P,H1,1*%
%TO.N,GND*%
X166370000Y-95250000D03*
D16*
X168770000Y-95250000D03*
X168067056Y-96947056D03*
X166370000Y-97650000D03*
X164672944Y-96947056D03*
X163970000Y-95250000D03*
X164672944Y-93552944D03*
X166370000Y-92850000D03*
X168067056Y-93552944D03*
%TD*%
D17*
%TO.N,Net-(J1-Pad2)*%
X160020000Y-105410000D02*
X166370000Y-105410000D01*
X166370000Y-105410000D02*
X172720000Y-105410000D01*
%TO.N,Net-(J2-Pad2)*%
X166370000Y-107950000D02*
X166370000Y-110110000D01*
D18*
X171450000Y-107950000D02*
X172720000Y-107950000D01*
D17*
X170180000Y-107950000D02*
X166370000Y-107950000D01*
X172720000Y-107950000D02*
X170180000Y-107950000D01*
X172720000Y-114300000D02*
X171450000Y-114300000D01*
X171450000Y-114300000D02*
X170180000Y-113030000D01*
X170180000Y-113030000D02*
X170180000Y-107950000D01*
X163830000Y-107950000D02*
X166370000Y-107950000D01*
X162560000Y-113030000D02*
X162560000Y-109220000D01*
X162560000Y-109220000D02*
X163830000Y-107950000D01*
X161290000Y-114300000D02*
X162560000Y-113030000D01*
X160020000Y-114300000D02*
X161290000Y-114300000D01*
%TO.N,Net-(J2-Pad4)*%
X166370000Y-102870000D02*
X166370000Y-100710000D01*
X172720000Y-96520000D02*
X171450000Y-96520000D01*
X171450000Y-96520000D02*
X170180000Y-97790000D01*
X163830000Y-102870000D02*
X172720000Y-102870000D01*
X162560000Y-97790000D02*
X162560000Y-101600000D01*
X162560000Y-101600000D02*
X163830000Y-102870000D01*
X161290000Y-96520000D02*
X162560000Y-97790000D01*
X160020000Y-96520000D02*
X161290000Y-96520000D01*
X170180000Y-97790000D02*
X170180000Y-102870000D01*
%TD*%
D19*
%TO.N,GND*%
X174600001Y-118720000D02*
X158140000Y-118720000D01*
X158140000Y-102723740D01*
X158535000Y-102723740D01*
X158535000Y-103016260D01*
X158592068Y-103303158D01*
X158704010Y-103573411D01*
X158866525Y-103816632D01*
X159073368Y-104023475D01*
X159247760Y-104140000D01*
X159073368Y-104256525D01*
X158866525Y-104463368D01*
X158704010Y-104706589D01*
X158592068Y-104976842D01*
X158535000Y-105263740D01*
X158535000Y-105556260D01*
X158592068Y-105843158D01*
X158704010Y-106113411D01*
X158866525Y-106356632D01*
X159073368Y-106563475D01*
X159316589Y-106725990D01*
X159586842Y-106837932D01*
X159873740Y-106895000D01*
X160166260Y-106895000D01*
X160453158Y-106837932D01*
X160723411Y-106725990D01*
X160966632Y-106563475D01*
X161173475Y-106356632D01*
X161214656Y-106295000D01*
X163989135Y-106295000D01*
X164003969Y-106322752D01*
X164208286Y-106571714D01*
X164457248Y-106776031D01*
X164741285Y-106927852D01*
X165049484Y-107021343D01*
X165289678Y-107045000D01*
X167450322Y-107045000D01*
X167690516Y-107021343D01*
X167998715Y-106927852D01*
X168282752Y-106776031D01*
X168531714Y-106571714D01*
X168736031Y-106322752D01*
X168750865Y-106295000D01*
X171525344Y-106295000D01*
X171566525Y-106356632D01*
X171773368Y-106563475D01*
X171947760Y-106680000D01*
X171773368Y-106796525D01*
X171566525Y-107003368D01*
X171525344Y-107065000D01*
X170223477Y-107065000D01*
X170180000Y-107060718D01*
X170136524Y-107065000D01*
X166413476Y-107065000D01*
X166370000Y-107060718D01*
X166326523Y-107065000D01*
X163873465Y-107065000D01*
X163829999Y-107060719D01*
X163786533Y-107065000D01*
X163786523Y-107065000D01*
X163656510Y-107077805D01*
X163489687Y-107128411D01*
X163335941Y-107210589D01*
X163335939Y-107210590D01*
X163335940Y-107210590D01*
X163234953Y-107293468D01*
X163234951Y-107293470D01*
X163201183Y-107321183D01*
X163173470Y-107354951D01*
X161964951Y-108563471D01*
X161931184Y-108591183D01*
X161903471Y-108624951D01*
X161903468Y-108624954D01*
X161820590Y-108725941D01*
X161738412Y-108879687D01*
X161687805Y-109046510D01*
X161670719Y-109220000D01*
X161675001Y-109263479D01*
X161675000Y-112663421D01*
X160973198Y-113365223D01*
X160871013Y-113263038D01*
X160652359Y-113116939D01*
X160409405Y-113016304D01*
X160151486Y-112965000D01*
X159888514Y-112965000D01*
X159630595Y-113016304D01*
X159387641Y-113116939D01*
X159168987Y-113263038D01*
X158983038Y-113448987D01*
X158836939Y-113667641D01*
X158736304Y-113910595D01*
X158685000Y-114168514D01*
X158685000Y-114431486D01*
X158736304Y-114689405D01*
X158836939Y-114932359D01*
X158983038Y-115151013D01*
X159168987Y-115336962D01*
X159387641Y-115483061D01*
X159630595Y-115583696D01*
X159888514Y-115635000D01*
X160151486Y-115635000D01*
X160409405Y-115583696D01*
X160652359Y-115483061D01*
X160871013Y-115336962D01*
X161022975Y-115185000D01*
X161246531Y-115185000D01*
X161290000Y-115189281D01*
X161333469Y-115185000D01*
X161333477Y-115185000D01*
X161463490Y-115172195D01*
X161630313Y-115121589D01*
X161784059Y-115039411D01*
X161918817Y-114928817D01*
X161946534Y-114895044D01*
X163155050Y-113686529D01*
X163188817Y-113658817D01*
X163216533Y-113625046D01*
X163299410Y-113524060D01*
X163299411Y-113524059D01*
X163381589Y-113370313D01*
X163432195Y-113203490D01*
X163445000Y-113073477D01*
X163445000Y-113073467D01*
X163449281Y-113030001D01*
X163445000Y-112986535D01*
X163445000Y-109586578D01*
X164196579Y-108835000D01*
X164346326Y-108835000D01*
X164208286Y-108948286D01*
X164003969Y-109197248D01*
X163852148Y-109481285D01*
X163758657Y-109789484D01*
X163727089Y-110110000D01*
X163758657Y-110430516D01*
X163852148Y-110738715D01*
X164003969Y-111022752D01*
X164208286Y-111271714D01*
X164457248Y-111476031D01*
X164741285Y-111627852D01*
X165049484Y-111721343D01*
X165289678Y-111745000D01*
X167450322Y-111745000D01*
X167690516Y-111721343D01*
X167998715Y-111627852D01*
X168282752Y-111476031D01*
X168531714Y-111271714D01*
X168736031Y-111022752D01*
X168887852Y-110738715D01*
X168981343Y-110430516D01*
X169012911Y-110110000D01*
X168981343Y-109789484D01*
X168887852Y-109481285D01*
X168736031Y-109197248D01*
X168531714Y-108948286D01*
X168393674Y-108835000D01*
X169295001Y-108835000D01*
X169295000Y-112986531D01*
X169290719Y-113030000D01*
X169295000Y-113073469D01*
X169295000Y-113073476D01*
X169299281Y-113116939D01*
X169307805Y-113203490D01*
X169323157Y-113254096D01*
X169358411Y-113370312D01*
X169440589Y-113524058D01*
X169551183Y-113658817D01*
X169584956Y-113686534D01*
X170793470Y-114895049D01*
X170821183Y-114928817D01*
X170854951Y-114956530D01*
X170854953Y-114956532D01*
X170926452Y-115015210D01*
X170955941Y-115039411D01*
X171109687Y-115121589D01*
X171276510Y-115172195D01*
X171406523Y-115185000D01*
X171406533Y-115185000D01*
X171449999Y-115189281D01*
X171493465Y-115185000D01*
X171717025Y-115185000D01*
X171782025Y-115250000D01*
X171683038Y-115348987D01*
X171536939Y-115567641D01*
X171436304Y-115810595D01*
X171385000Y-116068514D01*
X171385000Y-116331486D01*
X171436304Y-116589405D01*
X171536939Y-116832359D01*
X171683038Y-117051013D01*
X171868987Y-117236962D01*
X172087641Y-117383061D01*
X172330595Y-117483696D01*
X172588514Y-117535000D01*
X172851486Y-117535000D01*
X173109405Y-117483696D01*
X173352359Y-117383061D01*
X173571013Y-117236962D01*
X173756962Y-117051013D01*
X173903061Y-116832359D01*
X174003696Y-116589405D01*
X174055000Y-116331486D01*
X174055000Y-116068514D01*
X174003696Y-115810595D01*
X173903061Y-115567641D01*
X173756962Y-115348987D01*
X173657975Y-115250000D01*
X173756962Y-115151013D01*
X173903061Y-114932359D01*
X174003696Y-114689405D01*
X174055000Y-114431486D01*
X174055000Y-114168514D01*
X174003696Y-113910595D01*
X173903061Y-113667641D01*
X173756962Y-113448987D01*
X173571013Y-113263038D01*
X173352359Y-113116939D01*
X173109405Y-113016304D01*
X172851486Y-112965000D01*
X172588514Y-112965000D01*
X172330595Y-113016304D01*
X172087641Y-113116939D01*
X171868987Y-113263038D01*
X171766802Y-113365223D01*
X171065000Y-112663422D01*
X171065000Y-108835000D01*
X171525344Y-108835000D01*
X171566525Y-108896632D01*
X171773368Y-109103475D01*
X172016589Y-109265990D01*
X172286842Y-109377932D01*
X172573740Y-109435000D01*
X172866260Y-109435000D01*
X173153158Y-109377932D01*
X173423411Y-109265990D01*
X173666632Y-109103475D01*
X173873475Y-108896632D01*
X174035990Y-108653411D01*
X174147932Y-108383158D01*
X174205000Y-108096260D01*
X174205000Y-107803740D01*
X174147932Y-107516842D01*
X174035990Y-107246589D01*
X173873475Y-107003368D01*
X173666632Y-106796525D01*
X173492240Y-106680000D01*
X173666632Y-106563475D01*
X173873475Y-106356632D01*
X174035990Y-106113411D01*
X174147932Y-105843158D01*
X174205000Y-105556260D01*
X174205000Y-105263740D01*
X174147932Y-104976842D01*
X174035990Y-104706589D01*
X173873475Y-104463368D01*
X173666632Y-104256525D01*
X173492240Y-104140000D01*
X173666632Y-104023475D01*
X173873475Y-103816632D01*
X174035990Y-103573411D01*
X174147932Y-103303158D01*
X174205000Y-103016260D01*
X174205000Y-102723740D01*
X174147932Y-102436842D01*
X174035990Y-102166589D01*
X173873475Y-101923368D01*
X173666632Y-101716525D01*
X173492240Y-101600000D01*
X173666632Y-101483475D01*
X173873475Y-101276632D01*
X174035990Y-101033411D01*
X174147932Y-100763158D01*
X174205000Y-100476260D01*
X174205000Y-100183740D01*
X174147932Y-99896842D01*
X174035990Y-99626589D01*
X173873475Y-99383368D01*
X173666632Y-99176525D01*
X173423411Y-99014010D01*
X173153158Y-98902068D01*
X172866260Y-98845000D01*
X172573740Y-98845000D01*
X172286842Y-98902068D01*
X172016589Y-99014010D01*
X171773368Y-99176525D01*
X171566525Y-99383368D01*
X171404010Y-99626589D01*
X171292068Y-99896842D01*
X171235000Y-100183740D01*
X171235000Y-100476260D01*
X171292068Y-100763158D01*
X171404010Y-101033411D01*
X171566525Y-101276632D01*
X171773368Y-101483475D01*
X171947760Y-101600000D01*
X171773368Y-101716525D01*
X171566525Y-101923368D01*
X171525344Y-101985000D01*
X171065000Y-101985000D01*
X171065000Y-98156578D01*
X171766802Y-97454777D01*
X171868987Y-97556962D01*
X172087641Y-97703061D01*
X172330595Y-97803696D01*
X172588514Y-97855000D01*
X172851486Y-97855000D01*
X173109405Y-97803696D01*
X173352359Y-97703061D01*
X173571013Y-97556962D01*
X173756962Y-97371013D01*
X173903061Y-97152359D01*
X174003696Y-96909405D01*
X174055000Y-96651486D01*
X174055000Y-96388514D01*
X174003696Y-96130595D01*
X173903061Y-95887641D01*
X173756962Y-95668987D01*
X173657975Y-95570000D01*
X173756962Y-95471013D01*
X173903061Y-95252359D01*
X174003696Y-95009405D01*
X174055000Y-94751486D01*
X174055000Y-94488514D01*
X174003696Y-94230595D01*
X173903061Y-93987641D01*
X173756962Y-93768987D01*
X173571013Y-93583038D01*
X173352359Y-93436939D01*
X173109405Y-93336304D01*
X172851486Y-93285000D01*
X172588514Y-93285000D01*
X172330595Y-93336304D01*
X172087641Y-93436939D01*
X171868987Y-93583038D01*
X171683038Y-93768987D01*
X171536939Y-93987641D01*
X171436304Y-94230595D01*
X171385000Y-94488514D01*
X171385000Y-94751486D01*
X171436304Y-95009405D01*
X171536939Y-95252359D01*
X171683038Y-95471013D01*
X171782025Y-95570000D01*
X171717025Y-95635000D01*
X171493465Y-95635000D01*
X171449999Y-95630719D01*
X171406533Y-95635000D01*
X171406523Y-95635000D01*
X171276510Y-95647805D01*
X171109687Y-95698411D01*
X170955941Y-95780589D01*
X170955939Y-95780590D01*
X170955940Y-95780590D01*
X170854953Y-95863468D01*
X170854951Y-95863470D01*
X170821183Y-95891183D01*
X170793470Y-95924951D01*
X169584956Y-97133466D01*
X169551183Y-97161183D01*
X169440589Y-97295942D01*
X169358411Y-97449688D01*
X169325869Y-97556962D01*
X169307806Y-97616509D01*
X169307805Y-97616511D01*
X169295000Y-97746524D01*
X169295000Y-97746531D01*
X169290719Y-97790000D01*
X169295000Y-97833469D01*
X169295001Y-101985000D01*
X168393674Y-101985000D01*
X168531714Y-101871714D01*
X168736031Y-101622752D01*
X168887852Y-101338715D01*
X168981343Y-101030516D01*
X169012911Y-100710000D01*
X168981343Y-100389484D01*
X168887852Y-100081285D01*
X168736031Y-99797248D01*
X168531714Y-99548286D01*
X168282752Y-99343969D01*
X167998715Y-99192148D01*
X167690516Y-99098657D01*
X167450322Y-99075000D01*
X165289678Y-99075000D01*
X165049484Y-99098657D01*
X164741285Y-99192148D01*
X164457248Y-99343969D01*
X164208286Y-99548286D01*
X164003969Y-99797248D01*
X163852148Y-100081285D01*
X163758657Y-100389484D01*
X163727089Y-100710000D01*
X163758657Y-101030516D01*
X163852148Y-101338715D01*
X164003969Y-101622752D01*
X164208286Y-101871714D01*
X164346326Y-101985000D01*
X164196579Y-101985000D01*
X163445000Y-101233422D01*
X163445000Y-97833465D01*
X163449281Y-97789999D01*
X163445000Y-97746533D01*
X163445000Y-97746523D01*
X163432195Y-97616510D01*
X163381589Y-97449687D01*
X163299411Y-97295941D01*
X163269431Y-97259411D01*
X163216532Y-97194953D01*
X163216530Y-97194951D01*
X163188817Y-97161183D01*
X163155050Y-97133471D01*
X161946534Y-95924956D01*
X161918817Y-95891183D01*
X161784059Y-95780589D01*
X161630313Y-95698411D01*
X161463490Y-95647805D01*
X161333477Y-95635000D01*
X161333469Y-95635000D01*
X161290000Y-95630719D01*
X161246531Y-95635000D01*
X161022975Y-95635000D01*
X160871013Y-95483038D01*
X160652359Y-95336939D01*
X160409405Y-95236304D01*
X160151486Y-95185000D01*
X159888514Y-95185000D01*
X159630595Y-95236304D01*
X159387641Y-95336939D01*
X159168987Y-95483038D01*
X158983038Y-95668987D01*
X158836939Y-95887641D01*
X158736304Y-96130595D01*
X158685000Y-96388514D01*
X158685000Y-96651486D01*
X158736304Y-96909405D01*
X158836939Y-97152359D01*
X158983038Y-97371013D01*
X159168987Y-97556962D01*
X159387641Y-97703061D01*
X159630595Y-97803696D01*
X159888514Y-97855000D01*
X160151486Y-97855000D01*
X160409405Y-97803696D01*
X160652359Y-97703061D01*
X160871013Y-97556962D01*
X160973198Y-97454777D01*
X161675000Y-98156579D01*
X161675001Y-101556521D01*
X161670719Y-101600000D01*
X161687805Y-101773490D01*
X161738412Y-101940313D01*
X161820590Y-102094059D01*
X161903468Y-102195046D01*
X161903471Y-102195049D01*
X161931184Y-102228817D01*
X161964951Y-102256529D01*
X163173470Y-103465049D01*
X163201183Y-103498817D01*
X163234951Y-103526530D01*
X163234953Y-103526532D01*
X163292075Y-103573411D01*
X163335941Y-103609411D01*
X163489687Y-103691589D01*
X163656510Y-103742195D01*
X163786523Y-103755000D01*
X163786533Y-103755000D01*
X163829999Y-103759281D01*
X163873465Y-103755000D01*
X166326523Y-103755000D01*
X166370000Y-103759282D01*
X166413476Y-103755000D01*
X170136524Y-103755000D01*
X170180000Y-103759282D01*
X170223477Y-103755000D01*
X171525344Y-103755000D01*
X171566525Y-103816632D01*
X171773368Y-104023475D01*
X171947760Y-104140000D01*
X171773368Y-104256525D01*
X171566525Y-104463368D01*
X171525344Y-104525000D01*
X168750865Y-104525000D01*
X168736031Y-104497248D01*
X168531714Y-104248286D01*
X168282752Y-104043969D01*
X167998715Y-103892148D01*
X167690516Y-103798657D01*
X167450322Y-103775000D01*
X165289678Y-103775000D01*
X165049484Y-103798657D01*
X164741285Y-103892148D01*
X164457248Y-104043969D01*
X164208286Y-104248286D01*
X164003969Y-104497248D01*
X163989135Y-104525000D01*
X161214656Y-104525000D01*
X161173475Y-104463368D01*
X160966632Y-104256525D01*
X160792240Y-104140000D01*
X160966632Y-104023475D01*
X161173475Y-103816632D01*
X161335990Y-103573411D01*
X161447932Y-103303158D01*
X161505000Y-103016260D01*
X161505000Y-102723740D01*
X161447932Y-102436842D01*
X161335990Y-102166589D01*
X161173475Y-101923368D01*
X160966632Y-101716525D01*
X160723411Y-101554010D01*
X160453158Y-101442068D01*
X160166260Y-101385000D01*
X159873740Y-101385000D01*
X159586842Y-101442068D01*
X159316589Y-101554010D01*
X159073368Y-101716525D01*
X158866525Y-101923368D01*
X158704010Y-102166589D01*
X158592068Y-102436842D01*
X158535000Y-102723740D01*
X158140000Y-102723740D01*
X158140000Y-92100000D01*
X174600000Y-92100000D01*
X174600001Y-118720000D01*
%TA.AperFunction,Conductor*%
D20*
G36*
X174600001Y-118720000D02*
G01*
X158140000Y-118720000D01*
X158140000Y-102723740D01*
X158535000Y-102723740D01*
X158535000Y-103016260D01*
X158592068Y-103303158D01*
X158704010Y-103573411D01*
X158866525Y-103816632D01*
X159073368Y-104023475D01*
X159247760Y-104140000D01*
X159073368Y-104256525D01*
X158866525Y-104463368D01*
X158704010Y-104706589D01*
X158592068Y-104976842D01*
X158535000Y-105263740D01*
X158535000Y-105556260D01*
X158592068Y-105843158D01*
X158704010Y-106113411D01*
X158866525Y-106356632D01*
X159073368Y-106563475D01*
X159316589Y-106725990D01*
X159586842Y-106837932D01*
X159873740Y-106895000D01*
X160166260Y-106895000D01*
X160453158Y-106837932D01*
X160723411Y-106725990D01*
X160966632Y-106563475D01*
X161173475Y-106356632D01*
X161214656Y-106295000D01*
X163989135Y-106295000D01*
X164003969Y-106322752D01*
X164208286Y-106571714D01*
X164457248Y-106776031D01*
X164741285Y-106927852D01*
X165049484Y-107021343D01*
X165289678Y-107045000D01*
X167450322Y-107045000D01*
X167690516Y-107021343D01*
X167998715Y-106927852D01*
X168282752Y-106776031D01*
X168531714Y-106571714D01*
X168736031Y-106322752D01*
X168750865Y-106295000D01*
X171525344Y-106295000D01*
X171566525Y-106356632D01*
X171773368Y-106563475D01*
X171947760Y-106680000D01*
X171773368Y-106796525D01*
X171566525Y-107003368D01*
X171525344Y-107065000D01*
X170223477Y-107065000D01*
X170180000Y-107060718D01*
X170136524Y-107065000D01*
X166413476Y-107065000D01*
X166370000Y-107060718D01*
X166326523Y-107065000D01*
X163873465Y-107065000D01*
X163829999Y-107060719D01*
X163786533Y-107065000D01*
X163786523Y-107065000D01*
X163656510Y-107077805D01*
X163489687Y-107128411D01*
X163335941Y-107210589D01*
X163335939Y-107210590D01*
X163335940Y-107210590D01*
X163234953Y-107293468D01*
X163234951Y-107293470D01*
X163201183Y-107321183D01*
X163173470Y-107354951D01*
X161964951Y-108563471D01*
X161931184Y-108591183D01*
X161903471Y-108624951D01*
X161903468Y-108624954D01*
X161820590Y-108725941D01*
X161738412Y-108879687D01*
X161687805Y-109046510D01*
X161670719Y-109220000D01*
X161675001Y-109263479D01*
X161675000Y-112663421D01*
X160973198Y-113365223D01*
X160871013Y-113263038D01*
X160652359Y-113116939D01*
X160409405Y-113016304D01*
X160151486Y-112965000D01*
X159888514Y-112965000D01*
X159630595Y-113016304D01*
X159387641Y-113116939D01*
X159168987Y-113263038D01*
X158983038Y-113448987D01*
X158836939Y-113667641D01*
X158736304Y-113910595D01*
X158685000Y-114168514D01*
X158685000Y-114431486D01*
X158736304Y-114689405D01*
X158836939Y-114932359D01*
X158983038Y-115151013D01*
X159168987Y-115336962D01*
X159387641Y-115483061D01*
X159630595Y-115583696D01*
X159888514Y-115635000D01*
X160151486Y-115635000D01*
X160409405Y-115583696D01*
X160652359Y-115483061D01*
X160871013Y-115336962D01*
X161022975Y-115185000D01*
X161246531Y-115185000D01*
X161290000Y-115189281D01*
X161333469Y-115185000D01*
X161333477Y-115185000D01*
X161463490Y-115172195D01*
X161630313Y-115121589D01*
X161784059Y-115039411D01*
X161918817Y-114928817D01*
X161946534Y-114895044D01*
X163155050Y-113686529D01*
X163188817Y-113658817D01*
X163216533Y-113625046D01*
X163299410Y-113524060D01*
X163299411Y-113524059D01*
X163381589Y-113370313D01*
X163432195Y-113203490D01*
X163445000Y-113073477D01*
X163445000Y-113073467D01*
X163449281Y-113030001D01*
X163445000Y-112986535D01*
X163445000Y-109586578D01*
X164196579Y-108835000D01*
X164346326Y-108835000D01*
X164208286Y-108948286D01*
X164003969Y-109197248D01*
X163852148Y-109481285D01*
X163758657Y-109789484D01*
X163727089Y-110110000D01*
X163758657Y-110430516D01*
X163852148Y-110738715D01*
X164003969Y-111022752D01*
X164208286Y-111271714D01*
X164457248Y-111476031D01*
X164741285Y-111627852D01*
X165049484Y-111721343D01*
X165289678Y-111745000D01*
X167450322Y-111745000D01*
X167690516Y-111721343D01*
X167998715Y-111627852D01*
X168282752Y-111476031D01*
X168531714Y-111271714D01*
X168736031Y-111022752D01*
X168887852Y-110738715D01*
X168981343Y-110430516D01*
X169012911Y-110110000D01*
X168981343Y-109789484D01*
X168887852Y-109481285D01*
X168736031Y-109197248D01*
X168531714Y-108948286D01*
X168393674Y-108835000D01*
X169295001Y-108835000D01*
X169295000Y-112986531D01*
X169290719Y-113030000D01*
X169295000Y-113073469D01*
X169295000Y-113073476D01*
X169299281Y-113116939D01*
X169307805Y-113203490D01*
X169323157Y-113254096D01*
X169358411Y-113370312D01*
X169440589Y-113524058D01*
X169551183Y-113658817D01*
X169584956Y-113686534D01*
X170793470Y-114895049D01*
X170821183Y-114928817D01*
X170854951Y-114956530D01*
X170854953Y-114956532D01*
X170926452Y-115015210D01*
X170955941Y-115039411D01*
X171109687Y-115121589D01*
X171276510Y-115172195D01*
X171406523Y-115185000D01*
X171406533Y-115185000D01*
X171449999Y-115189281D01*
X171493465Y-115185000D01*
X171717025Y-115185000D01*
X171782025Y-115250000D01*
X171683038Y-115348987D01*
X171536939Y-115567641D01*
X171436304Y-115810595D01*
X171385000Y-116068514D01*
X171385000Y-116331486D01*
X171436304Y-116589405D01*
X171536939Y-116832359D01*
X171683038Y-117051013D01*
X171868987Y-117236962D01*
X172087641Y-117383061D01*
X172330595Y-117483696D01*
X172588514Y-117535000D01*
X172851486Y-117535000D01*
X173109405Y-117483696D01*
X173352359Y-117383061D01*
X173571013Y-117236962D01*
X173756962Y-117051013D01*
X173903061Y-116832359D01*
X174003696Y-116589405D01*
X174055000Y-116331486D01*
X174055000Y-116068514D01*
X174003696Y-115810595D01*
X173903061Y-115567641D01*
X173756962Y-115348987D01*
X173657975Y-115250000D01*
X173756962Y-115151013D01*
X173903061Y-114932359D01*
X174003696Y-114689405D01*
X174055000Y-114431486D01*
X174055000Y-114168514D01*
X174003696Y-113910595D01*
X173903061Y-113667641D01*
X173756962Y-113448987D01*
X173571013Y-113263038D01*
X173352359Y-113116939D01*
X173109405Y-113016304D01*
X172851486Y-112965000D01*
X172588514Y-112965000D01*
X172330595Y-113016304D01*
X172087641Y-113116939D01*
X171868987Y-113263038D01*
X171766802Y-113365223D01*
X171065000Y-112663422D01*
X171065000Y-108835000D01*
X171525344Y-108835000D01*
X171566525Y-108896632D01*
X171773368Y-109103475D01*
X172016589Y-109265990D01*
X172286842Y-109377932D01*
X172573740Y-109435000D01*
X172866260Y-109435000D01*
X173153158Y-109377932D01*
X173423411Y-109265990D01*
X173666632Y-109103475D01*
X173873475Y-108896632D01*
X174035990Y-108653411D01*
X174147932Y-108383158D01*
X174205000Y-108096260D01*
X174205000Y-107803740D01*
X174147932Y-107516842D01*
X174035990Y-107246589D01*
X173873475Y-107003368D01*
X173666632Y-106796525D01*
X173492240Y-106680000D01*
X173666632Y-106563475D01*
X173873475Y-106356632D01*
X174035990Y-106113411D01*
X174147932Y-105843158D01*
X174205000Y-105556260D01*
X174205000Y-105263740D01*
X174147932Y-104976842D01*
X174035990Y-104706589D01*
X173873475Y-104463368D01*
X173666632Y-104256525D01*
X173492240Y-104140000D01*
X173666632Y-104023475D01*
X173873475Y-103816632D01*
X174035990Y-103573411D01*
X174147932Y-103303158D01*
X174205000Y-103016260D01*
X174205000Y-102723740D01*
X174147932Y-102436842D01*
X174035990Y-102166589D01*
X173873475Y-101923368D01*
X173666632Y-101716525D01*
X173492240Y-101600000D01*
X173666632Y-101483475D01*
X173873475Y-101276632D01*
X174035990Y-101033411D01*
X174147932Y-100763158D01*
X174205000Y-100476260D01*
X174205000Y-100183740D01*
X174147932Y-99896842D01*
X174035990Y-99626589D01*
X173873475Y-99383368D01*
X173666632Y-99176525D01*
X173423411Y-99014010D01*
X173153158Y-98902068D01*
X172866260Y-98845000D01*
X172573740Y-98845000D01*
X172286842Y-98902068D01*
X172016589Y-99014010D01*
X171773368Y-99176525D01*
X171566525Y-99383368D01*
X171404010Y-99626589D01*
X171292068Y-99896842D01*
X171235000Y-100183740D01*
X171235000Y-100476260D01*
X171292068Y-100763158D01*
X171404010Y-101033411D01*
X171566525Y-101276632D01*
X171773368Y-101483475D01*
X171947760Y-101600000D01*
X171773368Y-101716525D01*
X171566525Y-101923368D01*
X171525344Y-101985000D01*
X171065000Y-101985000D01*
X171065000Y-98156578D01*
X171766802Y-97454777D01*
X171868987Y-97556962D01*
X172087641Y-97703061D01*
X172330595Y-97803696D01*
X172588514Y-97855000D01*
X172851486Y-97855000D01*
X173109405Y-97803696D01*
X173352359Y-97703061D01*
X173571013Y-97556962D01*
X173756962Y-97371013D01*
X173903061Y-97152359D01*
X174003696Y-96909405D01*
X174055000Y-96651486D01*
X174055000Y-96388514D01*
X174003696Y-96130595D01*
X173903061Y-95887641D01*
X173756962Y-95668987D01*
X173657975Y-95570000D01*
X173756962Y-95471013D01*
X173903061Y-95252359D01*
X174003696Y-95009405D01*
X174055000Y-94751486D01*
X174055000Y-94488514D01*
X174003696Y-94230595D01*
X173903061Y-93987641D01*
X173756962Y-93768987D01*
X173571013Y-93583038D01*
X173352359Y-93436939D01*
X173109405Y-93336304D01*
X172851486Y-93285000D01*
X172588514Y-93285000D01*
X172330595Y-93336304D01*
X172087641Y-93436939D01*
X171868987Y-93583038D01*
X171683038Y-93768987D01*
X171536939Y-93987641D01*
X171436304Y-94230595D01*
X171385000Y-94488514D01*
X171385000Y-94751486D01*
X171436304Y-95009405D01*
X171536939Y-95252359D01*
X171683038Y-95471013D01*
X171782025Y-95570000D01*
X171717025Y-95635000D01*
X171493465Y-95635000D01*
X171449999Y-95630719D01*
X171406533Y-95635000D01*
X171406523Y-95635000D01*
X171276510Y-95647805D01*
X171109687Y-95698411D01*
X170955941Y-95780589D01*
X170955939Y-95780590D01*
X170955940Y-95780590D01*
X170854953Y-95863468D01*
X170854951Y-95863470D01*
X170821183Y-95891183D01*
X170793470Y-95924951D01*
X169584956Y-97133466D01*
X169551183Y-97161183D01*
X169440589Y-97295942D01*
X169358411Y-97449688D01*
X169325869Y-97556962D01*
X169307806Y-97616509D01*
X169307805Y-97616511D01*
X169295000Y-97746524D01*
X169295000Y-97746531D01*
X169290719Y-97790000D01*
X169295000Y-97833469D01*
X169295001Y-101985000D01*
X168393674Y-101985000D01*
X168531714Y-101871714D01*
X168736031Y-101622752D01*
X168887852Y-101338715D01*
X168981343Y-101030516D01*
X169012911Y-100710000D01*
X168981343Y-100389484D01*
X168887852Y-100081285D01*
X168736031Y-99797248D01*
X168531714Y-99548286D01*
X168282752Y-99343969D01*
X167998715Y-99192148D01*
X167690516Y-99098657D01*
X167450322Y-99075000D01*
X165289678Y-99075000D01*
X165049484Y-99098657D01*
X164741285Y-99192148D01*
X164457248Y-99343969D01*
X164208286Y-99548286D01*
X164003969Y-99797248D01*
X163852148Y-100081285D01*
X163758657Y-100389484D01*
X163727089Y-100710000D01*
X163758657Y-101030516D01*
X163852148Y-101338715D01*
X164003969Y-101622752D01*
X164208286Y-101871714D01*
X164346326Y-101985000D01*
X164196579Y-101985000D01*
X163445000Y-101233422D01*
X163445000Y-97833465D01*
X163449281Y-97789999D01*
X163445000Y-97746533D01*
X163445000Y-97746523D01*
X163432195Y-97616510D01*
X163381589Y-97449687D01*
X163299411Y-97295941D01*
X163269431Y-97259411D01*
X163216532Y-97194953D01*
X163216530Y-97194951D01*
X163188817Y-97161183D01*
X163155050Y-97133471D01*
X161946534Y-95924956D01*
X161918817Y-95891183D01*
X161784059Y-95780589D01*
X161630313Y-95698411D01*
X161463490Y-95647805D01*
X161333477Y-95635000D01*
X161333469Y-95635000D01*
X161290000Y-95630719D01*
X161246531Y-95635000D01*
X161022975Y-95635000D01*
X160871013Y-95483038D01*
X160652359Y-95336939D01*
X160409405Y-95236304D01*
X160151486Y-95185000D01*
X159888514Y-95185000D01*
X159630595Y-95236304D01*
X159387641Y-95336939D01*
X159168987Y-95483038D01*
X158983038Y-95668987D01*
X158836939Y-95887641D01*
X158736304Y-96130595D01*
X158685000Y-96388514D01*
X158685000Y-96651486D01*
X158736304Y-96909405D01*
X158836939Y-97152359D01*
X158983038Y-97371013D01*
X159168987Y-97556962D01*
X159387641Y-97703061D01*
X159630595Y-97803696D01*
X159888514Y-97855000D01*
X160151486Y-97855000D01*
X160409405Y-97803696D01*
X160652359Y-97703061D01*
X160871013Y-97556962D01*
X160973198Y-97454777D01*
X161675000Y-98156579D01*
X161675001Y-101556521D01*
X161670719Y-101600000D01*
X161687805Y-101773490D01*
X161738412Y-101940313D01*
X161820590Y-102094059D01*
X161903468Y-102195046D01*
X161903471Y-102195049D01*
X161931184Y-102228817D01*
X161964951Y-102256529D01*
X163173470Y-103465049D01*
X163201183Y-103498817D01*
X163234951Y-103526530D01*
X163234953Y-103526532D01*
X163292075Y-103573411D01*
X163335941Y-103609411D01*
X163489687Y-103691589D01*
X163656510Y-103742195D01*
X163786523Y-103755000D01*
X163786533Y-103755000D01*
X163829999Y-103759281D01*
X163873465Y-103755000D01*
X166326523Y-103755000D01*
X166370000Y-103759282D01*
X166413476Y-103755000D01*
X170136524Y-103755000D01*
X170180000Y-103759282D01*
X170223477Y-103755000D01*
X171525344Y-103755000D01*
X171566525Y-103816632D01*
X171773368Y-104023475D01*
X171947760Y-104140000D01*
X171773368Y-104256525D01*
X171566525Y-104463368D01*
X171525344Y-104525000D01*
X168750865Y-104525000D01*
X168736031Y-104497248D01*
X168531714Y-104248286D01*
X168282752Y-104043969D01*
X167998715Y-103892148D01*
X167690516Y-103798657D01*
X167450322Y-103775000D01*
X165289678Y-103775000D01*
X165049484Y-103798657D01*
X164741285Y-103892148D01*
X164457248Y-104043969D01*
X164208286Y-104248286D01*
X164003969Y-104497248D01*
X163989135Y-104525000D01*
X161214656Y-104525000D01*
X161173475Y-104463368D01*
X160966632Y-104256525D01*
X160792240Y-104140000D01*
X160966632Y-104023475D01*
X161173475Y-103816632D01*
X161335990Y-103573411D01*
X161447932Y-103303158D01*
X161505000Y-103016260D01*
X161505000Y-102723740D01*
X161447932Y-102436842D01*
X161335990Y-102166589D01*
X161173475Y-101923368D01*
X160966632Y-101716525D01*
X160723411Y-101554010D01*
X160453158Y-101442068D01*
X160166260Y-101385000D01*
X159873740Y-101385000D01*
X159586842Y-101442068D01*
X159316589Y-101554010D01*
X159073368Y-101716525D01*
X158866525Y-101923368D01*
X158704010Y-102166589D01*
X158592068Y-102436842D01*
X158535000Y-102723740D01*
X158140000Y-102723740D01*
X158140000Y-92100000D01*
X174600000Y-92100000D01*
X174600001Y-118720000D01*
G37*
%TD.AperFunction*%
%TD*%
M02*
