%TF.GenerationSoftware,KiCad,Pcbnew,(5.1.10)-1*%
%TF.CreationDate,2021-09-07T19:43:19+10:00*%
%TF.ProjectId,BasicSwitchBO-logic,42617369-6353-4776-9974-6368424f2d6c,rev?*%
%TF.SameCoordinates,Original*%
%TF.FileFunction,Legend,Top*%
%TF.FilePolarity,Positive*%
%FSLAX46Y46*%
G04 Gerber Fmt 4.6, Leading zero omitted, Abs format (unit mm)*
G04 Created by KiCad (PCBNEW (5.1.10)-1) date 2021-09-07 19:43:19*
%MOMM*%
%LPD*%
G01*
G04 APERTURE LIST*
%ADD10C,0.120000*%
%ADD11C,0.150000*%
G04 APERTURE END LIST*
D10*
X168910000Y-92202000D02*
X169418000Y-93472000D01*
X169926000Y-93472000D02*
X167640000Y-93472000D01*
X168910000Y-92202000D02*
X169926000Y-93472000D01*
X167640000Y-93472000D02*
X168910000Y-92202000D01*
D11*
X181077619Y-93424523D02*
X181077619Y-93995952D01*
X180077619Y-93710238D02*
X181077619Y-93710238D01*
X181077619Y-94519761D02*
X181077619Y-94710238D01*
X181030000Y-94805476D01*
X180934761Y-94900714D01*
X180744285Y-94948333D01*
X180410952Y-94948333D01*
X180220476Y-94900714D01*
X180125238Y-94805476D01*
X180077619Y-94710238D01*
X180077619Y-94519761D01*
X180125238Y-94424523D01*
X180220476Y-94329285D01*
X180410952Y-94281666D01*
X180744285Y-94281666D01*
X180934761Y-94329285D01*
X181030000Y-94424523D01*
X181077619Y-94519761D01*
X178475238Y-93376904D02*
X178427619Y-93519761D01*
X178427619Y-93757857D01*
X178475238Y-93853095D01*
X178522857Y-93900714D01*
X178618095Y-93948333D01*
X178713333Y-93948333D01*
X178808571Y-93900714D01*
X178856190Y-93853095D01*
X178903809Y-93757857D01*
X178951428Y-93567380D01*
X178999047Y-93472142D01*
X179046666Y-93424523D01*
X179141904Y-93376904D01*
X179237142Y-93376904D01*
X179332380Y-93424523D01*
X179380000Y-93472142D01*
X179427619Y-93567380D01*
X179427619Y-93805476D01*
X179380000Y-93948333D01*
X179427619Y-94281666D02*
X178427619Y-94519761D01*
X179141904Y-94710238D01*
X178427619Y-94900714D01*
X179427619Y-95138809D01*
X179427619Y-95376904D02*
X179427619Y-95948333D01*
X178427619Y-95662619D02*
X179427619Y-95662619D01*
X178816095Y-113800000D02*
X178720857Y-113752380D01*
X178578000Y-113752380D01*
X178435142Y-113800000D01*
X178339904Y-113895238D01*
X178292285Y-113990476D01*
X178244666Y-114180952D01*
X178244666Y-114323809D01*
X178292285Y-114514285D01*
X178339904Y-114609523D01*
X178435142Y-114704761D01*
X178578000Y-114752380D01*
X178673238Y-114752380D01*
X178816095Y-114704761D01*
X178863714Y-114657142D01*
X178863714Y-114323809D01*
X178673238Y-114323809D01*
X179292285Y-114752380D02*
X179292285Y-113752380D01*
X179863714Y-114752380D01*
X179863714Y-113752380D01*
X180339904Y-114752380D02*
X180339904Y-113752380D01*
X180578000Y-113752380D01*
X180720857Y-113800000D01*
X180816095Y-113895238D01*
X180863714Y-113990476D01*
X180911333Y-114180952D01*
X180911333Y-114323809D01*
X180863714Y-114514285D01*
X180816095Y-114609523D01*
X180720857Y-114704761D01*
X180578000Y-114752380D01*
X180339904Y-114752380D01*
X178371666Y-97242380D02*
X178705000Y-98242380D01*
X179038333Y-97242380D01*
X179943095Y-98147142D02*
X179895476Y-98194761D01*
X179752619Y-98242380D01*
X179657380Y-98242380D01*
X179514523Y-98194761D01*
X179419285Y-98099523D01*
X179371666Y-98004285D01*
X179324047Y-97813809D01*
X179324047Y-97670952D01*
X179371666Y-97480476D01*
X179419285Y-97385238D01*
X179514523Y-97290000D01*
X179657380Y-97242380D01*
X179752619Y-97242380D01*
X179895476Y-97290000D01*
X179943095Y-97337619D01*
X180943095Y-98147142D02*
X180895476Y-98194761D01*
X180752619Y-98242380D01*
X180657380Y-98242380D01*
X180514523Y-98194761D01*
X180419285Y-98099523D01*
X180371666Y-98004285D01*
X180324047Y-97813809D01*
X180324047Y-97670952D01*
X180371666Y-97480476D01*
X180419285Y-97385238D01*
X180514523Y-97290000D01*
X180657380Y-97242380D01*
X180752619Y-97242380D01*
X180895476Y-97290000D01*
X180943095Y-97337619D01*
%TO.C,U1*%
X175430000Y-110460000D02*
X176805000Y-110460000D01*
X175430000Y-100335000D02*
X171280000Y-100335000D01*
X175430000Y-110485000D02*
X171280000Y-110485000D01*
X175430000Y-100335000D02*
X175430000Y-100440000D01*
X171280000Y-100335000D02*
X171280000Y-100440000D01*
X171280000Y-110485000D02*
X171280000Y-110380000D01*
X175430000Y-110485000D02*
X175430000Y-110460000D01*
D10*
%TO.C,J2*%
X181035000Y-111820000D02*
X179705000Y-111820000D01*
X181035000Y-110490000D02*
X181035000Y-111820000D01*
X181035000Y-109220000D02*
X178375000Y-109220000D01*
X178375000Y-109220000D02*
X178375000Y-99000000D01*
X181035000Y-109220000D02*
X181035000Y-99000000D01*
X181035000Y-99000000D02*
X178375000Y-99000000D01*
%TO.C,J1*%
X168335000Y-111820000D02*
X167005000Y-111820000D01*
X168335000Y-110490000D02*
X168335000Y-111820000D01*
X168335000Y-109220000D02*
X165675000Y-109220000D01*
X165675000Y-109220000D02*
X165675000Y-99000000D01*
X168335000Y-109220000D02*
X168335000Y-99000000D01*
X168335000Y-99000000D02*
X165675000Y-99000000D01*
%TO.C,U1*%
D11*
X172593095Y-110862380D02*
X172593095Y-111671904D01*
X172640714Y-111767142D01*
X172688333Y-111814761D01*
X172783571Y-111862380D01*
X172974047Y-111862380D01*
X173069285Y-111814761D01*
X173116904Y-111767142D01*
X173164523Y-111671904D01*
X173164523Y-110862380D01*
X174164523Y-111862380D02*
X173593095Y-111862380D01*
X173878809Y-111862380D02*
X173878809Y-110862380D01*
X173783571Y-111005238D01*
X173688333Y-111100476D01*
X173593095Y-111148095D01*
%TO.C,J2*%
X179371666Y-112482380D02*
X179371666Y-113196666D01*
X179324047Y-113339523D01*
X179228809Y-113434761D01*
X179085952Y-113482380D01*
X178990714Y-113482380D01*
X179800238Y-112577619D02*
X179847857Y-112530000D01*
X179943095Y-112482380D01*
X180181190Y-112482380D01*
X180276428Y-112530000D01*
X180324047Y-112577619D01*
X180371666Y-112672857D01*
X180371666Y-112768095D01*
X180324047Y-112910952D01*
X179752619Y-113482380D01*
X180371666Y-113482380D01*
%TO.C,J1*%
X166671666Y-112272380D02*
X166671666Y-112986666D01*
X166624047Y-113129523D01*
X166528809Y-113224761D01*
X166385952Y-113272380D01*
X166290714Y-113272380D01*
X167671666Y-113272380D02*
X167100238Y-113272380D01*
X167385952Y-113272380D02*
X167385952Y-112272380D01*
X167290714Y-112415238D01*
X167195476Y-112510476D01*
X167100238Y-112558095D01*
%TD*%
M02*
