M48
; DRILL file {KiCad (5.1.10)-1} date 09/07/21 19:43:22
; FORMAT={-:-/ absolute / metric / decimal}
; #@! TF.CreationDate,2021-09-07T19:43:22+10:00
; #@! TF.GenerationSoftware,Kicad,Pcbnew,(5.1.10)-1
; #@! TF.FileFunction,Plated,1,2,PTH
FMAT,2
METRIC
T1C0.400
T2C0.500
T3C1.000
T4C3.200
%
G90
G05
T1
X173.355Y-100.965
X173.99Y-107.225
X176.53Y-111.76
X177.8Y-107.315
T2
X170.955Y-95.25
X170.955Y-115.57
X171.658Y-93.553
X171.658Y-96.947
X171.658Y-113.873
X171.658Y-117.267
X173.355Y-92.85
X173.355Y-97.65
X173.355Y-113.17
X173.355Y-117.97
X175.052Y-93.553
X175.052Y-96.947
X175.052Y-113.873
X175.052Y-117.267
X175.755Y-95.25
X175.755Y-115.57
T3
X167.005Y-100.33
X167.005Y-102.87
X167.005Y-105.41
X167.005Y-107.95
X167.005Y-110.49
X179.705Y-100.33
X179.705Y-102.87
X179.705Y-105.41
X179.705Y-107.95
X179.705Y-110.49
T4
X173.355Y-95.25
X173.355Y-115.57
T0
M30
