%TF.GenerationSoftware,KiCad,Pcbnew,(5.1.10)-1*%
%TF.CreationDate,2021-09-07T19:43:19+10:00*%
%TF.ProjectId,BasicSwitchBO-logic,42617369-6353-4776-9974-6368424f2d6c,rev?*%
%TF.SameCoordinates,Original*%
%TF.FileFunction,Copper,L1,Top*%
%TF.FilePolarity,Positive*%
%FSLAX46Y46*%
G04 Gerber Fmt 4.6, Leading zero omitted, Abs format (unit mm)*
G04 Created by KiCad (PCBNEW (5.1.10)-1) date 2021-09-07 19:43:19*
%MOMM*%
%LPD*%
G01*
G04 APERTURE LIST*
%TA.AperFunction,SMDPad,CuDef*%
%ADD10R,1.500000X0.600000*%
%TD*%
%TA.AperFunction,ComponentPad*%
%ADD11R,1.700000X1.700000*%
%TD*%
%TA.AperFunction,ComponentPad*%
%ADD12O,1.700000X1.700000*%
%TD*%
%TA.AperFunction,ComponentPad*%
%ADD13C,6.400000*%
%TD*%
%TA.AperFunction,ComponentPad*%
%ADD14C,0.800000*%
%TD*%
%TA.AperFunction,ViaPad*%
%ADD15C,0.800000*%
%TD*%
%TA.AperFunction,Conductor*%
%ADD16C,0.250000*%
%TD*%
%TA.AperFunction,Conductor*%
%ADD17C,0.254000*%
%TD*%
%TA.AperFunction,Conductor*%
%ADD18C,0.100000*%
%TD*%
G04 APERTURE END LIST*
D10*
%TO.P,U1,1*%
%TO.N,Net-(U1-Pad1)*%
X176055000Y-109855000D03*
%TO.P,U1,2*%
%TO.N,Net-(U1-Pad2)*%
X176055000Y-108585000D03*
%TO.P,U1,3*%
%TO.N,GND*%
X176055000Y-107315000D03*
%TO.P,U1,4*%
X176055000Y-106045000D03*
%TO.P,U1,5*%
X176055000Y-104775000D03*
%TO.P,U1,6*%
%TO.N,VCC*%
X176055000Y-103505000D03*
%TO.P,U1,7*%
%TO.N,Net-(U1-Pad7)*%
X176055000Y-102235000D03*
%TO.P,U1,8*%
%TO.N,GND*%
X176055000Y-100965000D03*
%TO.P,U1,9*%
%TO.N,Net-(U1-Pad9)*%
X170655000Y-100965000D03*
%TO.P,U1,10*%
%TO.N,Net-(U1-Pad10)*%
X170655000Y-102235000D03*
%TO.P,U1,11*%
%TO.N,Net-(U1-Pad11)*%
X170655000Y-103505000D03*
%TO.P,U1,12*%
%TO.N,Net-(U1-Pad12)*%
X170655000Y-104775000D03*
%TO.P,U1,13*%
%TO.N,Net-(J1-Pad2)*%
X170655000Y-106045000D03*
%TO.P,U1,14*%
%TO.N,Net-(J1-Pad3)*%
X170655000Y-107315000D03*
%TO.P,U1,15*%
%TO.N,Net-(J1-Pad4)*%
X170655000Y-108585000D03*
%TO.P,U1,16*%
%TO.N,VCC*%
X170655000Y-109855000D03*
%TD*%
D11*
%TO.P,J2,1*%
%TO.N,GND*%
X179705000Y-110490000D03*
D12*
%TO.P,J2,2*%
%TO.N,Net-(J2-Pad2)*%
X179705000Y-107950000D03*
%TO.P,J2,3*%
%TO.N,Net-(J2-Pad3)*%
X179705000Y-105410000D03*
%TO.P,J2,4*%
%TO.N,Net-(J2-Pad4)*%
X179705000Y-102870000D03*
%TO.P,J2,5*%
%TO.N,VCC*%
X179705000Y-100330000D03*
%TD*%
D11*
%TO.P,J1,1*%
%TO.N,GND*%
X167005000Y-110490000D03*
D12*
%TO.P,J1,2*%
%TO.N,Net-(J1-Pad2)*%
X167005000Y-107950000D03*
%TO.P,J1,3*%
%TO.N,Net-(J1-Pad3)*%
X167005000Y-105410000D03*
%TO.P,J1,4*%
%TO.N,Net-(J1-Pad4)*%
X167005000Y-102870000D03*
%TO.P,J1,5*%
%TO.N,VCC*%
X167005000Y-100330000D03*
%TD*%
D13*
%TO.P,H2,1*%
%TO.N,GND*%
X173355000Y-115570000D03*
D14*
X175755000Y-115570000D03*
X175052056Y-117267056D03*
X173355000Y-117970000D03*
X171657944Y-117267056D03*
X170955000Y-115570000D03*
X171657944Y-113872944D03*
X173355000Y-113170000D03*
X175052056Y-113872944D03*
%TD*%
D13*
%TO.P,H1,1*%
%TO.N,GND*%
X173355000Y-95250000D03*
D14*
X175755000Y-95250000D03*
X175052056Y-96947056D03*
X173355000Y-97650000D03*
X171657944Y-96947056D03*
X170955000Y-95250000D03*
X171657944Y-93552944D03*
X173355000Y-92850000D03*
X175052056Y-93552944D03*
%TD*%
D15*
%TO.N,GND*%
X173355000Y-100965000D03*
%TO.N,VCC*%
X176530000Y-111760000D03*
%TO.N,Net-(U1-Pad1)*%
X173990000Y-107224990D03*
%TO.N,Net-(U1-Pad2)*%
X177800000Y-107315000D03*
%TD*%
D16*
%TO.N,Net-(J1-Pad2)*%
X171655000Y-106045000D02*
X172085000Y-106475000D01*
X170655000Y-106045000D02*
X171655000Y-106045000D01*
X172085000Y-107520002D02*
X171655002Y-107950000D01*
X172085000Y-106475000D02*
X172085000Y-107520002D01*
X171655002Y-107950000D02*
X167005000Y-107950000D01*
%TO.N,GND*%
X173355000Y-100965000D02*
X176055000Y-100965000D01*
X173355000Y-100965000D02*
X173355000Y-104140000D01*
X173355000Y-104140000D02*
X173990000Y-104775000D01*
X173990000Y-104775000D02*
X176055000Y-104775000D01*
X176055000Y-104775000D02*
X176055000Y-107315000D01*
%TO.N,Net-(J2-Pad4)*%
X179070000Y-102870000D02*
X179705000Y-102870000D01*
%TO.N,Net-(J1-Pad3)*%
X170655000Y-107315000D02*
X170180000Y-107315000D01*
X170655000Y-107315000D02*
X169545000Y-107315000D01*
X167640000Y-105410000D02*
X167005000Y-105410000D01*
X169545000Y-107315000D02*
X167640000Y-105410000D01*
%TO.N,Net-(J1-Pad4)*%
X171655002Y-102870000D02*
X167005000Y-102870000D01*
X172720000Y-107950000D02*
X172720000Y-103934998D01*
X172085000Y-108585000D02*
X172720000Y-107950000D01*
X172720000Y-103934998D02*
X171655002Y-102870000D01*
X170655000Y-108585000D02*
X172085000Y-108585000D01*
%TO.N,Net-(U1-Pad1)*%
X173990000Y-107315000D02*
X173990000Y-107315000D01*
X174625000Y-109855000D02*
X173990000Y-109220000D01*
X176055000Y-109855000D02*
X174625000Y-109855000D01*
X173990000Y-109220000D02*
X173990000Y-107224990D01*
%TO.N,Net-(U1-Pad2)*%
X176055000Y-108585000D02*
X177165000Y-108585000D01*
X177800000Y-107950000D02*
X177800000Y-107315000D01*
X177165000Y-108585000D02*
X177800000Y-107950000D01*
%TD*%
D17*
%TO.N,VCC*%
X170910330Y-92271161D02*
X170376161Y-92805330D01*
X169956467Y-93433446D01*
X169667377Y-94131372D01*
X169520000Y-94872285D01*
X169520000Y-95627715D01*
X169667377Y-96368628D01*
X169956467Y-97066554D01*
X170376161Y-97694670D01*
X170910330Y-98228839D01*
X171538446Y-98648533D01*
X172236372Y-98937623D01*
X172977285Y-99085000D01*
X173732715Y-99085000D01*
X174473628Y-98937623D01*
X175171554Y-98648533D01*
X175799670Y-98228839D01*
X176333839Y-97694670D01*
X176753533Y-97066554D01*
X177042623Y-96368628D01*
X177190000Y-95627715D01*
X177190000Y-94872285D01*
X177042623Y-94131372D01*
X176753533Y-93433446D01*
X176333839Y-92805330D01*
X175799670Y-92271161D01*
X175543510Y-92100000D01*
X181585000Y-92100000D01*
X181585001Y-118720000D01*
X175543510Y-118720000D01*
X175799670Y-118548839D01*
X176333839Y-118014670D01*
X176753533Y-117386554D01*
X177042623Y-116688628D01*
X177190000Y-115947715D01*
X177190000Y-115192285D01*
X177042623Y-114451372D01*
X176753533Y-113753446D01*
X176333839Y-113125330D01*
X175799670Y-112591161D01*
X175171554Y-112171467D01*
X174473628Y-111882377D01*
X173732715Y-111735000D01*
X172977285Y-111735000D01*
X172236372Y-111882377D01*
X171538446Y-112171467D01*
X170910330Y-112591161D01*
X170376161Y-113125330D01*
X169956467Y-113753446D01*
X169667377Y-114451372D01*
X169520000Y-115192285D01*
X169520000Y-115947715D01*
X169667377Y-116688628D01*
X169956467Y-117386554D01*
X170376161Y-118014670D01*
X170910330Y-118548839D01*
X171166490Y-118720000D01*
X165125000Y-118720000D01*
X165125000Y-109640000D01*
X165516928Y-109640000D01*
X165516928Y-111340000D01*
X165529188Y-111464482D01*
X165565498Y-111584180D01*
X165624463Y-111694494D01*
X165703815Y-111791185D01*
X165800506Y-111870537D01*
X165910820Y-111929502D01*
X166030518Y-111965812D01*
X166155000Y-111978072D01*
X167855000Y-111978072D01*
X167979482Y-111965812D01*
X168099180Y-111929502D01*
X168209494Y-111870537D01*
X168306185Y-111791185D01*
X168385537Y-111694494D01*
X168444502Y-111584180D01*
X168480812Y-111464482D01*
X168493072Y-111340000D01*
X168493072Y-109640000D01*
X168480812Y-109515518D01*
X168444502Y-109395820D01*
X168385537Y-109285506D01*
X168306185Y-109188815D01*
X168209494Y-109109463D01*
X168099180Y-109050498D01*
X168026620Y-109028487D01*
X168158475Y-108896632D01*
X168283178Y-108710000D01*
X169266928Y-108710000D01*
X169266928Y-108885000D01*
X169279188Y-109009482D01*
X169315498Y-109129180D01*
X169374463Y-109239494D01*
X169453815Y-109336185D01*
X169550506Y-109415537D01*
X169660820Y-109474502D01*
X169780518Y-109510812D01*
X169905000Y-109523072D01*
X171405000Y-109523072D01*
X171529482Y-109510812D01*
X171649180Y-109474502D01*
X171759494Y-109415537D01*
X171845444Y-109345000D01*
X172047678Y-109345000D01*
X172085000Y-109348676D01*
X172122322Y-109345000D01*
X172122333Y-109345000D01*
X172233986Y-109334003D01*
X172377247Y-109290546D01*
X172509276Y-109219974D01*
X172625001Y-109125001D01*
X172648803Y-109095998D01*
X173230000Y-108514802D01*
X173230000Y-109182677D01*
X173226324Y-109220000D01*
X173230000Y-109257322D01*
X173230000Y-109257332D01*
X173240997Y-109368985D01*
X173273005Y-109474502D01*
X173284454Y-109512246D01*
X173355026Y-109644276D01*
X173394871Y-109692826D01*
X173449999Y-109760001D01*
X173479002Y-109783803D01*
X174061200Y-110366002D01*
X174084999Y-110395001D01*
X174113997Y-110418799D01*
X174200724Y-110489974D01*
X174332753Y-110560546D01*
X174476014Y-110604003D01*
X174625000Y-110618677D01*
X174662333Y-110615000D01*
X174864556Y-110615000D01*
X174950506Y-110685537D01*
X175060820Y-110744502D01*
X175180518Y-110780812D01*
X175305000Y-110793072D01*
X176805000Y-110793072D01*
X176929482Y-110780812D01*
X177049180Y-110744502D01*
X177159494Y-110685537D01*
X177256185Y-110606185D01*
X177335537Y-110509494D01*
X177394502Y-110399180D01*
X177430812Y-110279482D01*
X177443072Y-110155000D01*
X177443072Y-109555000D01*
X177430812Y-109430518D01*
X177394502Y-109310820D01*
X177393931Y-109309752D01*
X177457247Y-109290546D01*
X177589276Y-109219974D01*
X177705001Y-109125001D01*
X177728803Y-109095998D01*
X178311004Y-108513798D01*
X178326062Y-108501440D01*
X178389010Y-108653411D01*
X178551525Y-108896632D01*
X178683380Y-109028487D01*
X178610820Y-109050498D01*
X178500506Y-109109463D01*
X178403815Y-109188815D01*
X178324463Y-109285506D01*
X178265498Y-109395820D01*
X178229188Y-109515518D01*
X178216928Y-109640000D01*
X178216928Y-111340000D01*
X178229188Y-111464482D01*
X178265498Y-111584180D01*
X178324463Y-111694494D01*
X178403815Y-111791185D01*
X178500506Y-111870537D01*
X178610820Y-111929502D01*
X178730518Y-111965812D01*
X178855000Y-111978072D01*
X180555000Y-111978072D01*
X180679482Y-111965812D01*
X180799180Y-111929502D01*
X180909494Y-111870537D01*
X181006185Y-111791185D01*
X181085537Y-111694494D01*
X181144502Y-111584180D01*
X181180812Y-111464482D01*
X181193072Y-111340000D01*
X181193072Y-109640000D01*
X181180812Y-109515518D01*
X181144502Y-109395820D01*
X181085537Y-109285506D01*
X181006185Y-109188815D01*
X180909494Y-109109463D01*
X180799180Y-109050498D01*
X180726620Y-109028487D01*
X180858475Y-108896632D01*
X181020990Y-108653411D01*
X181132932Y-108383158D01*
X181190000Y-108096260D01*
X181190000Y-107803740D01*
X181132932Y-107516842D01*
X181020990Y-107246589D01*
X180858475Y-107003368D01*
X180651632Y-106796525D01*
X180477240Y-106680000D01*
X180651632Y-106563475D01*
X180858475Y-106356632D01*
X181020990Y-106113411D01*
X181132932Y-105843158D01*
X181190000Y-105556260D01*
X181190000Y-105263740D01*
X181132932Y-104976842D01*
X181020990Y-104706589D01*
X180858475Y-104463368D01*
X180651632Y-104256525D01*
X180477240Y-104140000D01*
X180651632Y-104023475D01*
X180858475Y-103816632D01*
X181020990Y-103573411D01*
X181132932Y-103303158D01*
X181190000Y-103016260D01*
X181190000Y-102723740D01*
X181132932Y-102436842D01*
X181020990Y-102166589D01*
X180858475Y-101923368D01*
X180651632Y-101716525D01*
X180408411Y-101554010D01*
X180138158Y-101442068D01*
X179851260Y-101385000D01*
X179558740Y-101385000D01*
X179271842Y-101442068D01*
X179001589Y-101554010D01*
X178758368Y-101716525D01*
X178551525Y-101923368D01*
X178389010Y-102166589D01*
X178277068Y-102436842D01*
X178220000Y-102723740D01*
X178220000Y-103016260D01*
X178277068Y-103303158D01*
X178389010Y-103573411D01*
X178551525Y-103816632D01*
X178758368Y-104023475D01*
X178932760Y-104140000D01*
X178758368Y-104256525D01*
X178551525Y-104463368D01*
X178389010Y-104706589D01*
X178277068Y-104976842D01*
X178220000Y-105263740D01*
X178220000Y-105556260D01*
X178277068Y-105843158D01*
X178389010Y-106113411D01*
X178551525Y-106356632D01*
X178758368Y-106563475D01*
X178932760Y-106680000D01*
X178758368Y-106796525D01*
X178720996Y-106833897D01*
X178717205Y-106824744D01*
X178603937Y-106655226D01*
X178459774Y-106511063D01*
X178290256Y-106397795D01*
X178101898Y-106319774D01*
X177901939Y-106280000D01*
X177698061Y-106280000D01*
X177498102Y-106319774D01*
X177443072Y-106342568D01*
X177443072Y-105745000D01*
X177430812Y-105620518D01*
X177394502Y-105500820D01*
X177345957Y-105410000D01*
X177394502Y-105319180D01*
X177430812Y-105199482D01*
X177443072Y-105075000D01*
X177443072Y-104475000D01*
X177430812Y-104350518D01*
X177394502Y-104230820D01*
X177335537Y-104120506D01*
X177256185Y-104023815D01*
X177159494Y-103944463D01*
X177049180Y-103885498D01*
X176929482Y-103849188D01*
X176805000Y-103836928D01*
X175305000Y-103836928D01*
X175180518Y-103849188D01*
X175060820Y-103885498D01*
X174950506Y-103944463D01*
X174864556Y-104015000D01*
X174304802Y-104015000D01*
X174115000Y-103825199D01*
X174115000Y-101725000D01*
X174705130Y-101725000D01*
X174679188Y-101810518D01*
X174666928Y-101935000D01*
X174666928Y-102535000D01*
X174679188Y-102659482D01*
X174715498Y-102779180D01*
X174774463Y-102889494D01*
X174853815Y-102986185D01*
X174950506Y-103065537D01*
X175060820Y-103124502D01*
X175180518Y-103160812D01*
X175305000Y-103173072D01*
X176805000Y-103173072D01*
X176929482Y-103160812D01*
X177049180Y-103124502D01*
X177159494Y-103065537D01*
X177256185Y-102986185D01*
X177335537Y-102889494D01*
X177394502Y-102779180D01*
X177430812Y-102659482D01*
X177443072Y-102535000D01*
X177443072Y-101935000D01*
X177430812Y-101810518D01*
X177394502Y-101690820D01*
X177345957Y-101600000D01*
X177394502Y-101509180D01*
X177430812Y-101389482D01*
X177443072Y-101265000D01*
X177443072Y-100665000D01*
X177430812Y-100540518D01*
X177394502Y-100420820D01*
X177335537Y-100310506D01*
X177256185Y-100213815D01*
X177159494Y-100134463D01*
X177049180Y-100075498D01*
X176929482Y-100039188D01*
X176805000Y-100026928D01*
X175305000Y-100026928D01*
X175180518Y-100039188D01*
X175060820Y-100075498D01*
X174950506Y-100134463D01*
X174864556Y-100205000D01*
X174058711Y-100205000D01*
X174014774Y-100161063D01*
X173845256Y-100047795D01*
X173656898Y-99969774D01*
X173456939Y-99930000D01*
X173253061Y-99930000D01*
X173053102Y-99969774D01*
X172864744Y-100047795D01*
X172695226Y-100161063D01*
X172551063Y-100305226D01*
X172437795Y-100474744D01*
X172359774Y-100663102D01*
X172320000Y-100863061D01*
X172320000Y-101066939D01*
X172359774Y-101266898D01*
X172437795Y-101455256D01*
X172551063Y-101624774D01*
X172595000Y-101668711D01*
X172595001Y-102735197D01*
X172218806Y-102359002D01*
X172195003Y-102329999D01*
X172079278Y-102235026D01*
X172043072Y-102215673D01*
X172043072Y-101935000D01*
X172030812Y-101810518D01*
X171994502Y-101690820D01*
X171945957Y-101600000D01*
X171994502Y-101509180D01*
X172030812Y-101389482D01*
X172043072Y-101265000D01*
X172043072Y-100665000D01*
X172030812Y-100540518D01*
X171994502Y-100420820D01*
X171935537Y-100310506D01*
X171856185Y-100213815D01*
X171759494Y-100134463D01*
X171649180Y-100075498D01*
X171529482Y-100039188D01*
X171405000Y-100026928D01*
X169905000Y-100026928D01*
X169780518Y-100039188D01*
X169660820Y-100075498D01*
X169550506Y-100134463D01*
X169453815Y-100213815D01*
X169374463Y-100310506D01*
X169315498Y-100420820D01*
X169279188Y-100540518D01*
X169266928Y-100665000D01*
X169266928Y-101265000D01*
X169279188Y-101389482D01*
X169315498Y-101509180D01*
X169364043Y-101600000D01*
X169315498Y-101690820D01*
X169279188Y-101810518D01*
X169266928Y-101935000D01*
X169266928Y-102110000D01*
X168283178Y-102110000D01*
X168158475Y-101923368D01*
X167951632Y-101716525D01*
X167708411Y-101554010D01*
X167438158Y-101442068D01*
X167151260Y-101385000D01*
X166858740Y-101385000D01*
X166571842Y-101442068D01*
X166301589Y-101554010D01*
X166058368Y-101716525D01*
X165851525Y-101923368D01*
X165689010Y-102166589D01*
X165577068Y-102436842D01*
X165520000Y-102723740D01*
X165520000Y-103016260D01*
X165577068Y-103303158D01*
X165689010Y-103573411D01*
X165851525Y-103816632D01*
X166058368Y-104023475D01*
X166232760Y-104140000D01*
X166058368Y-104256525D01*
X165851525Y-104463368D01*
X165689010Y-104706589D01*
X165577068Y-104976842D01*
X165520000Y-105263740D01*
X165520000Y-105556260D01*
X165577068Y-105843158D01*
X165689010Y-106113411D01*
X165851525Y-106356632D01*
X166058368Y-106563475D01*
X166232760Y-106680000D01*
X166058368Y-106796525D01*
X165851525Y-107003368D01*
X165689010Y-107246589D01*
X165577068Y-107516842D01*
X165520000Y-107803740D01*
X165520000Y-108096260D01*
X165577068Y-108383158D01*
X165689010Y-108653411D01*
X165851525Y-108896632D01*
X165983380Y-109028487D01*
X165910820Y-109050498D01*
X165800506Y-109109463D01*
X165703815Y-109188815D01*
X165624463Y-109285506D01*
X165565498Y-109395820D01*
X165529188Y-109515518D01*
X165516928Y-109640000D01*
X165125000Y-109640000D01*
X165125000Y-92100000D01*
X171166490Y-92100000D01*
X170910330Y-92271161D01*
%TA.AperFunction,Conductor*%
D18*
G36*
X170910330Y-92271161D02*
G01*
X170376161Y-92805330D01*
X169956467Y-93433446D01*
X169667377Y-94131372D01*
X169520000Y-94872285D01*
X169520000Y-95627715D01*
X169667377Y-96368628D01*
X169956467Y-97066554D01*
X170376161Y-97694670D01*
X170910330Y-98228839D01*
X171538446Y-98648533D01*
X172236372Y-98937623D01*
X172977285Y-99085000D01*
X173732715Y-99085000D01*
X174473628Y-98937623D01*
X175171554Y-98648533D01*
X175799670Y-98228839D01*
X176333839Y-97694670D01*
X176753533Y-97066554D01*
X177042623Y-96368628D01*
X177190000Y-95627715D01*
X177190000Y-94872285D01*
X177042623Y-94131372D01*
X176753533Y-93433446D01*
X176333839Y-92805330D01*
X175799670Y-92271161D01*
X175543510Y-92100000D01*
X181585000Y-92100000D01*
X181585001Y-118720000D01*
X175543510Y-118720000D01*
X175799670Y-118548839D01*
X176333839Y-118014670D01*
X176753533Y-117386554D01*
X177042623Y-116688628D01*
X177190000Y-115947715D01*
X177190000Y-115192285D01*
X177042623Y-114451372D01*
X176753533Y-113753446D01*
X176333839Y-113125330D01*
X175799670Y-112591161D01*
X175171554Y-112171467D01*
X174473628Y-111882377D01*
X173732715Y-111735000D01*
X172977285Y-111735000D01*
X172236372Y-111882377D01*
X171538446Y-112171467D01*
X170910330Y-112591161D01*
X170376161Y-113125330D01*
X169956467Y-113753446D01*
X169667377Y-114451372D01*
X169520000Y-115192285D01*
X169520000Y-115947715D01*
X169667377Y-116688628D01*
X169956467Y-117386554D01*
X170376161Y-118014670D01*
X170910330Y-118548839D01*
X171166490Y-118720000D01*
X165125000Y-118720000D01*
X165125000Y-109640000D01*
X165516928Y-109640000D01*
X165516928Y-111340000D01*
X165529188Y-111464482D01*
X165565498Y-111584180D01*
X165624463Y-111694494D01*
X165703815Y-111791185D01*
X165800506Y-111870537D01*
X165910820Y-111929502D01*
X166030518Y-111965812D01*
X166155000Y-111978072D01*
X167855000Y-111978072D01*
X167979482Y-111965812D01*
X168099180Y-111929502D01*
X168209494Y-111870537D01*
X168306185Y-111791185D01*
X168385537Y-111694494D01*
X168444502Y-111584180D01*
X168480812Y-111464482D01*
X168493072Y-111340000D01*
X168493072Y-109640000D01*
X168480812Y-109515518D01*
X168444502Y-109395820D01*
X168385537Y-109285506D01*
X168306185Y-109188815D01*
X168209494Y-109109463D01*
X168099180Y-109050498D01*
X168026620Y-109028487D01*
X168158475Y-108896632D01*
X168283178Y-108710000D01*
X169266928Y-108710000D01*
X169266928Y-108885000D01*
X169279188Y-109009482D01*
X169315498Y-109129180D01*
X169374463Y-109239494D01*
X169453815Y-109336185D01*
X169550506Y-109415537D01*
X169660820Y-109474502D01*
X169780518Y-109510812D01*
X169905000Y-109523072D01*
X171405000Y-109523072D01*
X171529482Y-109510812D01*
X171649180Y-109474502D01*
X171759494Y-109415537D01*
X171845444Y-109345000D01*
X172047678Y-109345000D01*
X172085000Y-109348676D01*
X172122322Y-109345000D01*
X172122333Y-109345000D01*
X172233986Y-109334003D01*
X172377247Y-109290546D01*
X172509276Y-109219974D01*
X172625001Y-109125001D01*
X172648803Y-109095998D01*
X173230000Y-108514802D01*
X173230000Y-109182677D01*
X173226324Y-109220000D01*
X173230000Y-109257322D01*
X173230000Y-109257332D01*
X173240997Y-109368985D01*
X173273005Y-109474502D01*
X173284454Y-109512246D01*
X173355026Y-109644276D01*
X173394871Y-109692826D01*
X173449999Y-109760001D01*
X173479002Y-109783803D01*
X174061200Y-110366002D01*
X174084999Y-110395001D01*
X174113997Y-110418799D01*
X174200724Y-110489974D01*
X174332753Y-110560546D01*
X174476014Y-110604003D01*
X174625000Y-110618677D01*
X174662333Y-110615000D01*
X174864556Y-110615000D01*
X174950506Y-110685537D01*
X175060820Y-110744502D01*
X175180518Y-110780812D01*
X175305000Y-110793072D01*
X176805000Y-110793072D01*
X176929482Y-110780812D01*
X177049180Y-110744502D01*
X177159494Y-110685537D01*
X177256185Y-110606185D01*
X177335537Y-110509494D01*
X177394502Y-110399180D01*
X177430812Y-110279482D01*
X177443072Y-110155000D01*
X177443072Y-109555000D01*
X177430812Y-109430518D01*
X177394502Y-109310820D01*
X177393931Y-109309752D01*
X177457247Y-109290546D01*
X177589276Y-109219974D01*
X177705001Y-109125001D01*
X177728803Y-109095998D01*
X178311004Y-108513798D01*
X178326062Y-108501440D01*
X178389010Y-108653411D01*
X178551525Y-108896632D01*
X178683380Y-109028487D01*
X178610820Y-109050498D01*
X178500506Y-109109463D01*
X178403815Y-109188815D01*
X178324463Y-109285506D01*
X178265498Y-109395820D01*
X178229188Y-109515518D01*
X178216928Y-109640000D01*
X178216928Y-111340000D01*
X178229188Y-111464482D01*
X178265498Y-111584180D01*
X178324463Y-111694494D01*
X178403815Y-111791185D01*
X178500506Y-111870537D01*
X178610820Y-111929502D01*
X178730518Y-111965812D01*
X178855000Y-111978072D01*
X180555000Y-111978072D01*
X180679482Y-111965812D01*
X180799180Y-111929502D01*
X180909494Y-111870537D01*
X181006185Y-111791185D01*
X181085537Y-111694494D01*
X181144502Y-111584180D01*
X181180812Y-111464482D01*
X181193072Y-111340000D01*
X181193072Y-109640000D01*
X181180812Y-109515518D01*
X181144502Y-109395820D01*
X181085537Y-109285506D01*
X181006185Y-109188815D01*
X180909494Y-109109463D01*
X180799180Y-109050498D01*
X180726620Y-109028487D01*
X180858475Y-108896632D01*
X181020990Y-108653411D01*
X181132932Y-108383158D01*
X181190000Y-108096260D01*
X181190000Y-107803740D01*
X181132932Y-107516842D01*
X181020990Y-107246589D01*
X180858475Y-107003368D01*
X180651632Y-106796525D01*
X180477240Y-106680000D01*
X180651632Y-106563475D01*
X180858475Y-106356632D01*
X181020990Y-106113411D01*
X181132932Y-105843158D01*
X181190000Y-105556260D01*
X181190000Y-105263740D01*
X181132932Y-104976842D01*
X181020990Y-104706589D01*
X180858475Y-104463368D01*
X180651632Y-104256525D01*
X180477240Y-104140000D01*
X180651632Y-104023475D01*
X180858475Y-103816632D01*
X181020990Y-103573411D01*
X181132932Y-103303158D01*
X181190000Y-103016260D01*
X181190000Y-102723740D01*
X181132932Y-102436842D01*
X181020990Y-102166589D01*
X180858475Y-101923368D01*
X180651632Y-101716525D01*
X180408411Y-101554010D01*
X180138158Y-101442068D01*
X179851260Y-101385000D01*
X179558740Y-101385000D01*
X179271842Y-101442068D01*
X179001589Y-101554010D01*
X178758368Y-101716525D01*
X178551525Y-101923368D01*
X178389010Y-102166589D01*
X178277068Y-102436842D01*
X178220000Y-102723740D01*
X178220000Y-103016260D01*
X178277068Y-103303158D01*
X178389010Y-103573411D01*
X178551525Y-103816632D01*
X178758368Y-104023475D01*
X178932760Y-104140000D01*
X178758368Y-104256525D01*
X178551525Y-104463368D01*
X178389010Y-104706589D01*
X178277068Y-104976842D01*
X178220000Y-105263740D01*
X178220000Y-105556260D01*
X178277068Y-105843158D01*
X178389010Y-106113411D01*
X178551525Y-106356632D01*
X178758368Y-106563475D01*
X178932760Y-106680000D01*
X178758368Y-106796525D01*
X178720996Y-106833897D01*
X178717205Y-106824744D01*
X178603937Y-106655226D01*
X178459774Y-106511063D01*
X178290256Y-106397795D01*
X178101898Y-106319774D01*
X177901939Y-106280000D01*
X177698061Y-106280000D01*
X177498102Y-106319774D01*
X177443072Y-106342568D01*
X177443072Y-105745000D01*
X177430812Y-105620518D01*
X177394502Y-105500820D01*
X177345957Y-105410000D01*
X177394502Y-105319180D01*
X177430812Y-105199482D01*
X177443072Y-105075000D01*
X177443072Y-104475000D01*
X177430812Y-104350518D01*
X177394502Y-104230820D01*
X177335537Y-104120506D01*
X177256185Y-104023815D01*
X177159494Y-103944463D01*
X177049180Y-103885498D01*
X176929482Y-103849188D01*
X176805000Y-103836928D01*
X175305000Y-103836928D01*
X175180518Y-103849188D01*
X175060820Y-103885498D01*
X174950506Y-103944463D01*
X174864556Y-104015000D01*
X174304802Y-104015000D01*
X174115000Y-103825199D01*
X174115000Y-101725000D01*
X174705130Y-101725000D01*
X174679188Y-101810518D01*
X174666928Y-101935000D01*
X174666928Y-102535000D01*
X174679188Y-102659482D01*
X174715498Y-102779180D01*
X174774463Y-102889494D01*
X174853815Y-102986185D01*
X174950506Y-103065537D01*
X175060820Y-103124502D01*
X175180518Y-103160812D01*
X175305000Y-103173072D01*
X176805000Y-103173072D01*
X176929482Y-103160812D01*
X177049180Y-103124502D01*
X177159494Y-103065537D01*
X177256185Y-102986185D01*
X177335537Y-102889494D01*
X177394502Y-102779180D01*
X177430812Y-102659482D01*
X177443072Y-102535000D01*
X177443072Y-101935000D01*
X177430812Y-101810518D01*
X177394502Y-101690820D01*
X177345957Y-101600000D01*
X177394502Y-101509180D01*
X177430812Y-101389482D01*
X177443072Y-101265000D01*
X177443072Y-100665000D01*
X177430812Y-100540518D01*
X177394502Y-100420820D01*
X177335537Y-100310506D01*
X177256185Y-100213815D01*
X177159494Y-100134463D01*
X177049180Y-100075498D01*
X176929482Y-100039188D01*
X176805000Y-100026928D01*
X175305000Y-100026928D01*
X175180518Y-100039188D01*
X175060820Y-100075498D01*
X174950506Y-100134463D01*
X174864556Y-100205000D01*
X174058711Y-100205000D01*
X174014774Y-100161063D01*
X173845256Y-100047795D01*
X173656898Y-99969774D01*
X173456939Y-99930000D01*
X173253061Y-99930000D01*
X173053102Y-99969774D01*
X172864744Y-100047795D01*
X172695226Y-100161063D01*
X172551063Y-100305226D01*
X172437795Y-100474744D01*
X172359774Y-100663102D01*
X172320000Y-100863061D01*
X172320000Y-101066939D01*
X172359774Y-101266898D01*
X172437795Y-101455256D01*
X172551063Y-101624774D01*
X172595000Y-101668711D01*
X172595001Y-102735197D01*
X172218806Y-102359002D01*
X172195003Y-102329999D01*
X172079278Y-102235026D01*
X172043072Y-102215673D01*
X172043072Y-101935000D01*
X172030812Y-101810518D01*
X171994502Y-101690820D01*
X171945957Y-101600000D01*
X171994502Y-101509180D01*
X172030812Y-101389482D01*
X172043072Y-101265000D01*
X172043072Y-100665000D01*
X172030812Y-100540518D01*
X171994502Y-100420820D01*
X171935537Y-100310506D01*
X171856185Y-100213815D01*
X171759494Y-100134463D01*
X171649180Y-100075498D01*
X171529482Y-100039188D01*
X171405000Y-100026928D01*
X169905000Y-100026928D01*
X169780518Y-100039188D01*
X169660820Y-100075498D01*
X169550506Y-100134463D01*
X169453815Y-100213815D01*
X169374463Y-100310506D01*
X169315498Y-100420820D01*
X169279188Y-100540518D01*
X169266928Y-100665000D01*
X169266928Y-101265000D01*
X169279188Y-101389482D01*
X169315498Y-101509180D01*
X169364043Y-101600000D01*
X169315498Y-101690820D01*
X169279188Y-101810518D01*
X169266928Y-101935000D01*
X169266928Y-102110000D01*
X168283178Y-102110000D01*
X168158475Y-101923368D01*
X167951632Y-101716525D01*
X167708411Y-101554010D01*
X167438158Y-101442068D01*
X167151260Y-101385000D01*
X166858740Y-101385000D01*
X166571842Y-101442068D01*
X166301589Y-101554010D01*
X166058368Y-101716525D01*
X165851525Y-101923368D01*
X165689010Y-102166589D01*
X165577068Y-102436842D01*
X165520000Y-102723740D01*
X165520000Y-103016260D01*
X165577068Y-103303158D01*
X165689010Y-103573411D01*
X165851525Y-103816632D01*
X166058368Y-104023475D01*
X166232760Y-104140000D01*
X166058368Y-104256525D01*
X165851525Y-104463368D01*
X165689010Y-104706589D01*
X165577068Y-104976842D01*
X165520000Y-105263740D01*
X165520000Y-105556260D01*
X165577068Y-105843158D01*
X165689010Y-106113411D01*
X165851525Y-106356632D01*
X166058368Y-106563475D01*
X166232760Y-106680000D01*
X166058368Y-106796525D01*
X165851525Y-107003368D01*
X165689010Y-107246589D01*
X165577068Y-107516842D01*
X165520000Y-107803740D01*
X165520000Y-108096260D01*
X165577068Y-108383158D01*
X165689010Y-108653411D01*
X165851525Y-108896632D01*
X165983380Y-109028487D01*
X165910820Y-109050498D01*
X165800506Y-109109463D01*
X165703815Y-109188815D01*
X165624463Y-109285506D01*
X165565498Y-109395820D01*
X165529188Y-109515518D01*
X165516928Y-109640000D01*
X165125000Y-109640000D01*
X165125000Y-92100000D01*
X171166490Y-92100000D01*
X170910330Y-92271161D01*
G37*
%TD.AperFunction*%
%TD*%
M02*
