%TF.GenerationSoftware,KiCad,Pcbnew,(5.1.10)-1*%
%TF.CreationDate,2021-09-07T19:43:19+10:00*%
%TF.ProjectId,BasicSwitchBO-logic,42617369-6353-4776-9974-6368424f2d6c,rev?*%
%TF.SameCoordinates,Original*%
%TF.FileFunction,Legend,Bot*%
%TF.FilePolarity,Positive*%
%FSLAX46Y46*%
G04 Gerber Fmt 4.6, Leading zero omitted, Abs format (unit mm)*
G04 Created by KiCad (PCBNEW (5.1.10)-1) date 2021-09-07 19:43:19*
%MOMM*%
%LPD*%
G01*
G04 APERTURE LIST*
%ADD10C,0.120000*%
%ADD11C,0.150000*%
G04 APERTURE END LIST*
D10*
X169164000Y-118872000D02*
X169164000Y-91948000D01*
D11*
X180339904Y-112530000D02*
X180435142Y-112482380D01*
X180578000Y-112482380D01*
X180720857Y-112530000D01*
X180816095Y-112625238D01*
X180863714Y-112720476D01*
X180911333Y-112910952D01*
X180911333Y-113053809D01*
X180863714Y-113244285D01*
X180816095Y-113339523D01*
X180720857Y-113434761D01*
X180578000Y-113482380D01*
X180482761Y-113482380D01*
X180339904Y-113434761D01*
X180292285Y-113387142D01*
X180292285Y-113053809D01*
X180482761Y-113053809D01*
X179863714Y-113482380D02*
X179863714Y-112482380D01*
X179292285Y-113482380D01*
X179292285Y-112482380D01*
X178816095Y-113482380D02*
X178816095Y-112482380D01*
X178578000Y-112482380D01*
X178435142Y-112530000D01*
X178339904Y-112625238D01*
X178292285Y-112720476D01*
X178244666Y-112910952D01*
X178244666Y-113053809D01*
X178292285Y-113244285D01*
X178339904Y-113339523D01*
X178435142Y-113434761D01*
X178578000Y-113482380D01*
X178816095Y-113482380D01*
X180911333Y-97242380D02*
X180578000Y-98242380D01*
X180244666Y-97242380D01*
X179339904Y-98147142D02*
X179387523Y-98194761D01*
X179530380Y-98242380D01*
X179625619Y-98242380D01*
X179768476Y-98194761D01*
X179863714Y-98099523D01*
X179911333Y-98004285D01*
X179958952Y-97813809D01*
X179958952Y-97670952D01*
X179911333Y-97480476D01*
X179863714Y-97385238D01*
X179768476Y-97290000D01*
X179625619Y-97242380D01*
X179530380Y-97242380D01*
X179387523Y-97290000D01*
X179339904Y-97337619D01*
X178339904Y-98147142D02*
X178387523Y-98194761D01*
X178530380Y-98242380D01*
X178625619Y-98242380D01*
X178768476Y-98194761D01*
X178863714Y-98099523D01*
X178911333Y-98004285D01*
X178958952Y-97813809D01*
X178958952Y-97670952D01*
X178911333Y-97480476D01*
X178863714Y-97385238D01*
X178768476Y-97290000D01*
X178625619Y-97242380D01*
X178530380Y-97242380D01*
X178387523Y-97290000D01*
X178339904Y-97337619D01*
X168005000Y-92670380D02*
X167814523Y-92670380D01*
X167719285Y-92718000D01*
X167624047Y-92813238D01*
X167576428Y-93003714D01*
X167576428Y-93337047D01*
X167624047Y-93527523D01*
X167719285Y-93622761D01*
X167814523Y-93670380D01*
X168005000Y-93670380D01*
X168100238Y-93622761D01*
X168195476Y-93527523D01*
X168243095Y-93337047D01*
X168243095Y-93003714D01*
X168195476Y-92813238D01*
X168100238Y-92718000D01*
X168005000Y-92670380D01*
X167147857Y-92670380D02*
X167147857Y-93479904D01*
X167100238Y-93575142D01*
X167052619Y-93622761D01*
X166957380Y-93670380D01*
X166766904Y-93670380D01*
X166671666Y-93622761D01*
X166624047Y-93575142D01*
X166576428Y-93479904D01*
X166576428Y-92670380D01*
X166243095Y-92670380D02*
X165671666Y-92670380D01*
X165957380Y-93670380D02*
X165957380Y-92670380D01*
X167766904Y-113165000D02*
X167862142Y-113117380D01*
X168005000Y-113117380D01*
X168147857Y-113165000D01*
X168243095Y-113260238D01*
X168290714Y-113355476D01*
X168338333Y-113545952D01*
X168338333Y-113688809D01*
X168290714Y-113879285D01*
X168243095Y-113974523D01*
X168147857Y-114069761D01*
X168005000Y-114117380D01*
X167909761Y-114117380D01*
X167766904Y-114069761D01*
X167719285Y-114022142D01*
X167719285Y-113688809D01*
X167909761Y-113688809D01*
X167290714Y-114117380D02*
X167290714Y-113117380D01*
X166719285Y-114117380D01*
X166719285Y-113117380D01*
X166243095Y-114117380D02*
X166243095Y-113117380D01*
X166005000Y-113117380D01*
X165862142Y-113165000D01*
X165766904Y-113260238D01*
X165719285Y-113355476D01*
X165671666Y-113545952D01*
X165671666Y-113688809D01*
X165719285Y-113879285D01*
X165766904Y-113974523D01*
X165862142Y-114069761D01*
X166005000Y-114117380D01*
X166243095Y-114117380D01*
X168338333Y-97242380D02*
X168005000Y-98242380D01*
X167671666Y-97242380D01*
X166766904Y-98147142D02*
X166814523Y-98194761D01*
X166957380Y-98242380D01*
X167052619Y-98242380D01*
X167195476Y-98194761D01*
X167290714Y-98099523D01*
X167338333Y-98004285D01*
X167385952Y-97813809D01*
X167385952Y-97670952D01*
X167338333Y-97480476D01*
X167290714Y-97385238D01*
X167195476Y-97290000D01*
X167052619Y-97242380D01*
X166957380Y-97242380D01*
X166814523Y-97290000D01*
X166766904Y-97337619D01*
X165766904Y-98147142D02*
X165814523Y-98194761D01*
X165957380Y-98242380D01*
X166052619Y-98242380D01*
X166195476Y-98194761D01*
X166290714Y-98099523D01*
X166338333Y-98004285D01*
X166385952Y-97813809D01*
X166385952Y-97670952D01*
X166338333Y-97480476D01*
X166290714Y-97385238D01*
X166195476Y-97290000D01*
X166052619Y-97242380D01*
X165957380Y-97242380D01*
X165814523Y-97290000D01*
X165766904Y-97337619D01*
%TO.C,U2*%
X171280000Y-109835000D02*
X169905000Y-109835000D01*
X171280000Y-100960000D02*
X175430000Y-100960000D01*
X171280000Y-109860000D02*
X175430000Y-109860000D01*
X171280000Y-100960000D02*
X171280000Y-101075000D01*
X175430000Y-100960000D02*
X175430000Y-101075000D01*
X175430000Y-109860000D02*
X175430000Y-109745000D01*
X171280000Y-109860000D02*
X171280000Y-109835000D01*
X174116904Y-110237380D02*
X174116904Y-111046904D01*
X174069285Y-111142142D01*
X174021666Y-111189761D01*
X173926428Y-111237380D01*
X173735952Y-111237380D01*
X173640714Y-111189761D01*
X173593095Y-111142142D01*
X173545476Y-111046904D01*
X173545476Y-110237380D01*
X173116904Y-110332619D02*
X173069285Y-110285000D01*
X172974047Y-110237380D01*
X172735952Y-110237380D01*
X172640714Y-110285000D01*
X172593095Y-110332619D01*
X172545476Y-110427857D01*
X172545476Y-110523095D01*
X172593095Y-110665952D01*
X173164523Y-111237380D01*
X172545476Y-111237380D01*
%TD*%
M02*
